{"glyphs":{"0":{"ha":864,"x_min":83,"x_max":781,"o":"m 83 1075 l 781 1075 l 781 0 l 83 0 l 83 1075 m 431 29 l 774 590 l 432 1050 l 90 589 l 431 29 z "},"1":{"ha":833,"x_min":167,"x_max":600,"o":"m 600 1075 l 447 69 l 557 69 l 557 0 l 311 0 l 311 69 l 415 69 l 322 872 l 222 872 l 222 839 l 167 839 l 167 975 l 222 975 l 222 942 l 315 942 l 303 1075 l 600 1075 z "},"2":{"ha":917,"x_min":83,"x_max":833,"o":"m 114 69 l 521 69 l 753 261 l 753 0 l 83 0 l 83 636 l 510 636 l 510 1006 l 308 1006 l 83 821 l 83 1075 l 833 1075 l 510 567 l 421 567 l 114 69 z "},"3":{"ha":956,"x_min":83,"x_max":872,"o":"m 872 636 l 556 0 l 83 0 l 83 261 l 315 69 l 544 69 l 544 567 l 151 567 l 151 533 l 96 533 l 96 669 l 151 669 l 151 636 l 482 636 l 482 1006 l 308 1006 l 83 819 l 83 1075 l 806 1075 l 528 636 l 872 636 z "},"4":{"ha":975,"x_min":83,"x_max":892,"o":"m 892 218 l 836 218 l 836 253 l 758 253 l 758 69 l 864 69 l 864 0 l 618 0 l 618 69 l 719 69 l 669 253 l 83 253 l 382 1150 l 382 322 l 651 322 l 449 1075 l 758 1075 l 758 322 l 836 322 l 836 357 l 892 357 l 892 218 z "},"5":{"ha":917,"x_min":83,"x_max":833,"o":"m 833 636 l 474 0 l 83 0 l 83 261 l 313 72 l 454 72 l 454 567 l 90 567 l 90 1075 l 779 1075 l 779 821 l 554 1006 l 411 1006 l 143 636 l 833 636 z "},"6":{"ha":908,"x_min":83,"x_max":825,"o":"m 825 636 l 454 0 l 83 0 l 83 1075 l 790 1075 l 790 817 l 564 1006 l 438 1006 l 317 636 l 825 636 m 444 69 l 444 567 l 294 567 l 131 69 l 444 69 z "},"7":{"ha":918,"x_min":83,"x_max":835,"o":"m 835 1075 l 543 69 l 632 69 l 632 0 l 385 0 l 385 69 l 499 69 l 499 1006 l 315 1006 l 83 815 l 83 1075 l 835 1075 z "},"8":{"ha":979,"x_min":83,"x_max":896,"o":"m 801 636 l 896 636 l 896 0 l 83 0 l 83 636 l 183 636 l 183 1075 l 801 1075 l 801 636 m 471 1006 l 221 636 l 764 636 l 515 1006 l 471 1006 m 147 69 l 836 69 l 588 567 l 392 567 l 147 69 z "},"9":{"ha":869,"x_min":83,"x_max":786,"o":"m 83 1075 l 786 1075 l 786 0 l 83 0 l 83 261 l 315 69 l 764 69 l 608 514 l 83 514 l 83 1075 m 121 585 l 585 585 l 439 1006 l 357 1006 l 121 585 z "},"A":{"ha":1129,"x_min":42,"x_max":1088,"o":"m 1088 69 l 1088 0 l 835 0 l 835 69 l 950 69 l 753 458 l 346 458 l 185 69 l 294 69 l 294 0 l 42 0 l 42 69 l 154 69 l 344 1006 l 238 1006 l 238 1075 l 750 1075 l 988 69 l 1088 69 m 375 528 l 717 528 l 529 897 l 375 528 z "},"Á":{"ha":1129,"x_min":42,"x_max":1088,"o":"m 497 1299 l 768 1299 l 483 1100 l 497 1299 m 1088 69 l 1088 0 l 835 0 l 835 69 l 950 69 l 751 458 l 346 458 l 185 69 l 294 69 l 294 0 l 42 0 l 42 69 l 154 69 l 343 1006 l 236 1006 l 236 1075 l 750 1075 l 988 69 l 1088 69 m 375 528 l 717 528 l 528 897 l 375 528 z "},"Ă":{"ha":1129,"x_min":42,"x_max":1088,"o":"m 674 1365 l 781 1365 l 633 1140 l 376 1140 l 229 1365 l 335 1365 l 422 1225 l 586 1225 l 674 1365 m 1088 69 l 1088 0 l 835 0 l 835 69 l 949 69 l 751 458 l 346 458 l 183 69 l 294 69 l 294 0 l 42 0 l 42 69 l 154 69 l 343 1006 l 236 1006 l 236 1075 l 750 1075 l 988 69 l 1088 69 m 374 528 l 717 528 l 528 897 l 374 528 z "},"Ắ":{"ha":1129,"x_min":42,"x_max":1088,"o":"m 507 1497 l 778 1497 l 493 1299 l 507 1497 m 736 1365 l 842 1365 l 694 1140 l 439 1140 l 292 1365 l 397 1365 l 485 1225 l 649 1225 l 736 1365 m 1088 69 l 1088 0 l 835 0 l 835 69 l 950 69 l 753 458 l 346 458 l 185 69 l 294 69 l 294 0 l 42 0 l 42 69 l 154 69 l 344 1006 l 238 1006 l 238 1075 l 750 1075 l 988 69 l 1088 69 m 375 528 l 717 528 l 529 897 l 375 528 z "},"Ặ":{"ha":1129,"x_min":42,"x_max":1088,"o":"m 714 1365 l 819 1365 l 672 1140 l 417 1140 l 269 1365 l 375 1365 l 463 1226 l 626 1226 l 714 1365 m 1088 69 l 1088 0 l 835 0 l 835 69 l 949 69 l 751 458 l 346 458 l 185 69 l 294 69 l 294 0 l 42 0 l 42 69 l 154 69 l 343 1006 l 236 1006 l 236 1075 l 750 1076 l 988 69 l 1088 69 m 374 528 l 717 528 l 528 899 l 374 528 m 478 -53 l 651 -53 l 651 -226 l 478 -226 l 478 -53 z "},"Ằ":{"ha":1129,"x_min":42,"x_max":1088,"o":"m 586 1496 l 600 1297 l 315 1496 l 586 1496 m 711 1364 l 817 1364 l 669 1139 l 414 1139 l 267 1364 l 372 1364 l 460 1225 l 624 1225 l 711 1364 m 1088 68 l 1088 -1 l 835 -1 l 835 68 l 950 68 l 753 457 l 346 457 l 185 68 l 294 68 l 294 -1 l 42 -1 l 42 68 l 154 68 l 344 1004 l 238 1004 l 238 1074 l 750 1075 l 988 68 l 1088 68 m 375 526 l 717 526 l 529 897 l 375 526 z "},"Ẳ":{"ha":1129,"x_min":42,"x_max":1088,"o":"m 472 1376 l 601 1376 l 601 1438 l 368 1438 l 531 1554 l 667 1468 l 667 1353 l 536 1299 l 536 1251 l 472 1251 l 472 1376 m 710 1364 l 815 1364 l 668 1139 l 411 1139 l 264 1364 l 371 1364 l 458 1225 l 622 1225 l 710 1364 m 1088 68 l 1088 -1 l 835 -1 l 835 68 l 950 68 l 753 457 l 346 457 l 185 68 l 294 68 l 294 -1 l 42 -1 l 42 68 l 154 68 l 344 1004 l 238 1004 l 238 1074 l 750 1075 l 988 68 l 1088 68 m 375 526 l 717 526 l 529 897 l 375 526 z "},"Ẵ":{"ha":1131,"x_min":42,"x_max":1089,"o":"m 724 1364 l 831 1364 l 683 1139 l 426 1139 l 279 1364 l 386 1364 l 396 1349 l 629 1515 l 635 1450 l 865 1510 l 569 1300 l 565 1369 l 411 1325 l 474 1225 l 638 1225 l 724 1364 m 1089 68 l 1089 -1 l 836 -1 l 836 68 l 950 68 l 753 457 l 346 457 l 185 68 l 296 68 l 296 -1 l 42 -1 l 42 68 l 156 68 l 344 1004 l 238 1004 l 238 1074 l 751 1075 l 989 68 l 1089 68 m 375 526 l 718 526 l 529 897 l 375 526 z "},"Â":{"ha":1129,"x_min":42,"x_max":1088,"o":"m 535 1321 l 788 1117 l 535 1178 l 281 1117 l 535 1321 m 1088 69 l 1088 0 l 835 0 l 835 69 l 949 69 l 751 458 l 346 458 l 185 69 l 294 69 l 294 0 l 42 0 l 42 69 l 154 69 l 343 1006 l 236 1006 l 236 1075 l 750 1075 l 988 69 l 1088 69 m 375 528 l 717 528 l 528 897 l 375 528 z "},"Ấ":{"ha":1129,"x_min":42,"x_max":1088,"o":"m 435 1497 l 704 1497 l 421 1299 l 435 1497 m 536 1321 l 789 1118 l 536 1179 l 283 1118 l 536 1321 m 1088 69 l 1088 0 l 835 0 l 835 69 l 949 69 l 751 458 l 346 458 l 183 69 l 294 69 l 294 0 l 42 0 l 42 69 l 154 69 l 343 1006 l 236 1006 l 236 1075 l 750 1075 l 988 69 l 1088 69 m 374 528 l 717 528 l 528 897 l 374 528 z "},"Ậ":{"ha":1129,"x_min":42,"x_max":1088,"o":"m 542 1421 l 794 1218 l 542 1279 l 289 1218 l 542 1421 m 1088 169 l 1088 100 l 835 100 l 835 169 l 950 169 l 753 558 l 346 558 l 185 169 l 294 169 l 294 100 l 42 100 l 42 169 l 154 169 l 343 1106 l 236 1106 l 236 1175 l 750 1175 l 988 169 l 1088 169 m 375 628 l 717 628 l 529 997 l 375 628 m 478 46 l 651 46 l 651 -128 l 478 -128 l 478 46 z "},"Ầ":{"ha":1131,"x_min":42,"x_max":1089,"o":"m 650 1497 l 664 1299 l 379 1497 l 650 1497 m 549 1321 l 801 1118 l 549 1179 l 294 1118 l 549 1321 m 1089 69 l 1089 0 l 836 0 l 836 69 l 950 69 l 753 458 l 346 458 l 185 69 l 296 69 l 296 0 l 42 0 l 42 69 l 156 69 l 344 1006 l 238 1006 l 238 1075 l 751 1075 l 989 69 l 1089 69 m 375 528 l 718 528 l 529 897 l 375 528 z "},"Ẩ":{"ha":1129,"x_min":42,"x_max":1088,"o":"m 711 1332 l 840 1332 l 840 1393 l 608 1393 l 771 1508 l 907 1424 l 907 1308 l 776 1254 l 776 1207 l 711 1207 l 711 1332 m 556 1321 l 808 1118 l 556 1179 l 303 1118 l 556 1321 m 1088 69 l 1088 0 l 835 0 l 835 69 l 950 69 l 753 458 l 346 458 l 185 69 l 294 69 l 294 0 l 42 0 l 42 69 l 154 69 l 344 1006 l 238 1006 l 238 1075 l 750 1075 l 988 69 l 1088 69 m 375 528 l 717 528 l 529 897 l 375 528 z "},"Ẫ":{"ha":1129,"x_min":42,"x_max":1088,"o":"m 860 1511 l 565 1301 l 560 1369 l 324 1301 l 625 1517 l 631 1451 l 860 1511 m 521 1321 l 774 1118 l 521 1179 l 267 1118 l 521 1321 m 1088 69 l 1088 0 l 835 0 l 835 69 l 949 69 l 751 458 l 346 458 l 185 69 l 294 69 l 294 0 l 42 0 l 42 69 l 154 69 l 343 1006 l 236 1006 l 236 1075 l 750 1075 l 988 69 l 1088 69 m 375 528 l 717 528 l 528 897 l 375 528 z "},"Ȁ":{"ha":1129,"x_min":42,"x_max":1088,"o":"m 753 1300 l 767 1101 l 483 1300 l 753 1300 m 439 1300 l 453 1101 l 168 1300 l 439 1300 m 1088 69 l 1088 0 l 835 0 l 835 69 l 950 69 l 753 458 l 346 458 l 185 69 l 294 69 l 294 0 l 42 0 l 42 69 l 154 69 l 343 1006 l 236 1006 l 236 1075 l 750 1075 l 988 69 l 1088 69 m 375 528 l 717 528 l 529 897 l 375 528 z "},"Ä":{"ha":1129,"x_min":42,"x_max":1088,"o":"m 293 1319 l 467 1319 l 467 1146 l 293 1146 l 293 1319 m 588 1319 l 761 1319 l 761 1146 l 588 1146 l 588 1319 m 1088 69 l 1088 0 l 835 0 l 835 69 l 950 69 l 753 458 l 346 458 l 185 69 l 294 69 l 294 0 l 42 0 l 42 69 l 154 69 l 344 1006 l 238 1006 l 238 1075 l 750 1075 l 988 69 l 1088 69 m 375 528 l 717 528 l 529 897 l 375 528 z "},"Ạ":{"ha":1129,"x_min":42,"x_max":1088,"o":"m 1088 29 l 1088 -40 l 835 -40 l 835 29 l 949 29 l 751 418 l 346 418 l 185 29 l 294 29 l 294 -40 l 42 -40 l 42 29 l 154 29 l 343 965 l 236 965 l 236 1035 l 750 1035 l 988 29 l 1088 29 m 374 488 l 717 488 l 528 857 l 374 488 m 478 -94 l 651 -94 l 651 -268 l 478 -268 l 478 -94 z "},"À":{"ha":1129,"x_min":42,"x_max":1088,"o":"m 590 1299 l 604 1100 l 319 1299 l 590 1299 m 1088 69 l 1088 0 l 835 0 l 835 69 l 950 69 l 753 458 l 346 458 l 185 69 l 294 69 l 294 0 l 42 0 l 42 69 l 154 69 l 344 1006 l 238 1006 l 238 1075 l 750 1075 l 988 69 l 1088 69 m 375 528 l 717 528 l 529 897 l 375 528 z "},"Ả":{"ha":1129,"x_min":42,"x_max":1088,"o":"m 492 1243 l 619 1243 l 619 1304 l 388 1304 l 550 1419 l 686 1335 l 686 1218 l 556 1165 l 556 1106 l 492 1106 l 492 1243 m 1088 69 l 1088 0 l 835 0 l 835 69 l 950 69 l 753 458 l 346 458 l 185 69 l 294 69 l 294 0 l 42 0 l 42 69 l 154 69 l 344 1006 l 238 1006 l 238 1075 l 750 1075 l 988 69 l 1088 69 m 375 528 l 717 528 l 529 897 l 375 528 z "},"Ȃ":{"ha":1129,"x_min":42,"x_max":1088,"o":"m 717 1140 l 631 1279 l 465 1279 l 379 1140 l 272 1140 l 419 1365 l 676 1365 l 824 1140 l 717 1140 m 1088 69 l 1088 0 l 835 0 l 835 69 l 949 69 l 751 458 l 346 458 l 183 69 l 294 69 l 294 0 l 42 0 l 42 69 l 154 69 l 343 1006 l 236 1006 l 236 1075 l 750 1075 l 988 69 l 1088 69 m 374 528 l 717 528 l 528 897 l 374 528 z "},"Ā":{"ha":1129,"x_min":42,"x_max":1088,"o":"m 228 1297 l 839 1297 l 797 1242 l 340 1158 l 228 1297 m 1088 69 l 1088 0 l 835 0 l 835 69 l 950 69 l 753 458 l 346 458 l 185 69 l 294 69 l 294 0 l 42 0 l 42 69 l 154 69 l 344 1006 l 238 1006 l 238 1075 l 750 1075 l 988 69 l 1088 69 m 375 528 l 717 528 l 529 897 l 375 528 z "},"Ą":{"ha":1147,"x_min":42,"x_max":1147,"o":"m 1147 -150 l 849 -312 l 918 0 l 835 0 l 835 69 l 949 69 l 751 458 l 346 458 l 183 69 l 294 69 l 294 0 l 42 0 l 42 69 l 154 69 l 343 1006 l 236 1006 l 236 1075 l 750 1075 l 988 69 l 1088 69 l 1088 0 l 1004 0 l 965 -150 l 1147 -150 m 374 528 l 717 528 l 528 897 l 374 528 z "},"Å":{"ha":1131,"x_min":42,"x_max":1089,"o":"m 386 1364 l 708 1364 l 708 1129 l 386 1129 l 386 1364 m 639 1199 l 639 1294 l 456 1294 l 456 1199 l 639 1199 m 1089 69 l 1089 0 l 835 0 l 835 69 l 950 69 l 753 458 l 346 458 l 185 69 l 294 69 l 294 0 l 42 0 l 42 69 l 156 69 l 344 1006 l 238 1006 l 238 1075 l 751 1075 l 989 69 l 1089 69 m 375 528 l 718 528 l 529 897 l 375 528 z "},"Ǻ":{"ha":1129,"x_min":42,"x_max":1088,"o":"m 449 1585 l 719 1585 l 435 1388 l 449 1585 m 369 1365 l 693 1365 l 693 1131 l 369 1131 l 369 1365 m 624 1200 l 624 1296 l 439 1296 l 439 1200 l 624 1200 m 1088 69 l 1088 0 l 835 0 l 835 69 l 949 69 l 751 457 l 346 457 l 185 69 l 294 69 l 294 0 l 42 0 l 42 69 l 154 69 l 343 1006 l 236 1006 l 236 1075 l 750 1075 l 988 69 l 1088 69 m 375 526 l 717 526 l 528 897 l 375 526 z "},"Ã":{"ha":1129,"x_min":42,"x_max":1088,"o":"m 815 1317 l 521 1107 l 515 1176 l 281 1108 l 581 1322 l 586 1257 l 815 1317 m 1088 69 l 1088 0 l 835 0 l 835 69 l 949 69 l 751 458 l 346 458 l 185 69 l 294 69 l 294 0 l 42 0 l 42 69 l 154 69 l 343 1006 l 236 1006 l 236 1075 l 750 1075 l 988 69 l 1088 69 m 375 528 l 717 528 l 528 897 l 375 528 z "},"Æ":{"ha":1522,"x_min":42,"x_max":1481,"o":"m 1076 1006 l 974 600 l 1328 600 l 1328 669 l 1383 669 l 1383 461 l 1328 461 l 1328 531 l 956 531 l 839 69 l 1286 69 l 1481 318 l 1481 -33 l 1425 -33 l 1425 0 l 626 0 l 626 69 l 803 69 l 803 458 l 411 458 l 189 69 l 294 69 l 294 0 l 42 0 l 42 69 l 150 69 l 469 1006 l 390 1006 l 390 1075 l 1425 1075 l 1425 1111 l 1481 1111 l 1481 758 l 1286 1006 l 1076 1006 m 450 528 l 803 528 l 803 1006 l 724 1006 l 450 528 z "},"Ǽ":{"ha":1522,"x_min":42,"x_max":1481,"o":"m 931 1299 l 1201 1299 l 917 1100 l 931 1299 m 1076 1006 l 974 600 l 1328 600 l 1328 669 l 1383 669 l 1383 461 l 1328 461 l 1328 531 l 956 531 l 839 69 l 1286 69 l 1481 317 l 1481 -33 l 1425 -33 l 1425 0 l 626 0 l 626 69 l 803 69 l 803 457 l 411 457 l 189 69 l 294 69 l 294 0 l 42 0 l 42 69 l 150 69 l 469 1006 l 390 1006 l 390 1075 l 1425 1075 l 1425 1111 l 1481 1111 l 1481 758 l 1286 1006 l 1076 1006 m 450 526 l 803 526 l 803 1006 l 724 1006 l 450 526 z "},"B":{"ha":1069,"x_min":42,"x_max":1028,"o":"m 1028 317 l 738 0 l 42 0 l 42 69 l 124 69 l 124 1006 l 42 1006 l 42 1075 l 696 1075 l 924 825 l 725 600 l 1028 317 m 432 1006 l 315 600 l 654 600 l 654 1006 l 432 1006 m 296 531 l 164 69 l 711 69 l 711 531 l 296 531 z "},"C":{"ha":999,"x_min":42,"x_max":957,"o":"m 763 1006 l 367 1006 l 367 69 l 957 69 l 957 0 l 349 0 l 42 568 l 349 1075 l 900 1075 l 900 1111 l 956 1111 l 957 758 l 763 1006 z "},"Ć":{"ha":997,"x_min":42,"x_max":956,"o":"m 544 1300 l 815 1300 l 531 1101 l 544 1300 m 763 1006 l 365 1006 l 365 69 l 956 69 l 956 0 l 347 0 l 42 568 l 347 1075 l 900 1075 l 900 1111 l 956 1111 l 956 758 l 763 1006 z "},"Č":{"ha":997,"x_min":42,"x_max":956,"o":"m 617 1118 l 364 1321 l 617 1260 l 869 1321 l 617 1118 m 763 1006 l 365 1006 l 365 69 l 956 69 l 956 0 l 347 0 l 42 568 l 347 1075 l 900 1075 l 900 1111 l 956 1111 l 956 758 l 763 1006 z "},"Ç":{"ha":999,"x_min":42,"x_max":957,"o":"m 367 1006 l 367 69 l 957 69 l 957 0 l 660 0 l 660 -28 l 829 -111 l 829 -211 l 683 -312 l 531 -196 l 763 -196 l 763 -135 l 594 -135 l 594 0 l 349 0 l 42 568 l 349 1075 l 900 1075 l 900 1111 l 956 1111 l 957 758 l 763 1006 l 367 1006 z "},"Ĉ":{"ha":997,"x_min":42,"x_max":956,"o":"m 661 1321 l 914 1118 l 661 1179 l 408 1118 l 661 1321 m 763 1006 l 365 1006 l 365 69 l 956 69 l 956 0 l 347 0 l 42 568 l 347 1075 l 900 1075 l 900 1111 l 956 1111 l 956 758 l 763 1006 z "},"Ċ":{"ha":997,"x_min":42,"x_max":956,"o":"m 514 1321 l 688 1321 l 688 1147 l 514 1147 l 514 1321 m 763 1006 l 365 1006 l 365 69 l 956 69 l 956 0 l 347 0 l 42 568 l 347 1075 l 900 1075 l 900 1111 l 956 1111 l 956 758 l 763 1006 z "},"D":{"ha":1132,"x_min":42,"x_max":1090,"o":"m 1090 568 l 782 0 l 42 0 l 42 69 l 110 69 l 110 1006 l 42 1006 l 42 1075 l 782 1075 l 1090 568 m 150 69 l 764 69 l 764 1006 l 418 1006 l 150 69 z "},"Ǆ":{"ha":1888,"x_min":42,"x_max":1846,"o":"m 1465 1118 l 1213 1322 l 1465 1260 l 1718 1322 l 1465 1118 m 1497 69 l 1585 69 l 1779 318 l 1779 -29 l 1724 -29 l 1724 0 l 1108 0 l 1497 607 l 1497 1006 l 1297 1006 l 1104 758 l 1104 1113 l 1160 1113 l 1160 1076 l 1846 1076 l 1497 599 l 1497 69 m 1090 568 l 782 0 l 42 0 l 42 69 l 110 69 l 110 1006 l 42 1006 l 42 1075 l 782 1075 l 1090 568 m 150 69 l 764 69 l 764 1006 l 418 1006 l 150 69 z "},"Ð":{"ha":1256,"x_min":42,"x_max":1214,"o":"m 906 1075 l 1214 568 l 906 0 l 164 0 l 164 69 l 233 69 l 233 468 l 153 454 l 42 593 l 233 593 l 233 1006 l 164 1006 l 164 1075 l 906 1075 m 886 69 l 886 1006 l 542 1006 l 422 593 l 653 593 l 611 538 l 396 499 l 274 69 l 886 69 z "},"Ď":{"ha":1133,"x_min":42,"x_max":1092,"o":"m 429 1118 l 176 1321 l 429 1260 l 682 1321 l 429 1118 m 1092 568 l 783 0 l 42 0 l 42 69 l 111 69 l 111 1006 l 42 1006 l 42 1075 l 783 1075 l 1092 568 m 151 69 l 765 69 l 765 1006 l 419 1006 l 151 69 z "},"Đ":{"ha":1256,"x_min":42,"x_max":1214,"o":"m 904 1075 l 1214 568 l 904 0 l 164 0 l 164 69 l 232 69 l 232 468 l 153 454 l 42 593 l 232 593 l 232 1006 l 164 1006 l 164 1075 l 904 1075 m 886 69 l 886 1006 l 540 1006 l 422 593 l 651 593 l 611 538 l 396 499 l 272 69 l 886 69 z "},"ǅ":{"ha":1739,"x_min":42,"x_max":1697,"o":"m 1092 568 l 783 0 l 42 0 l 42 69 l 111 69 l 111 1006 l 42 1006 l 42 1075 l 783 1075 l 1092 568 m 151 69 l 764 69 l 764 1006 l 419 1006 l 151 69 m 1417 797 l 1164 1001 l 1417 940 l 1669 1001 l 1417 797 m 1408 71 l 1528 71 l 1657 196 l 1657 0 l 1131 0 l 1408 358 l 1408 607 l 1289 607 l 1160 481 l 1160 676 l 1697 676 l 1408 350 l 1408 71 z "},"E":{"ha":861,"x_min":42,"x_max":819,"o":"m 425 1006 l 310 600 l 711 600 l 711 669 l 767 669 l 767 461 l 711 461 l 711 531 l 289 531 l 157 69 l 625 69 l 818 318 l 819 -33 l 764 -33 l 764 0 l 42 0 l 42 69 l 117 69 l 117 1006 l 60 1006 l 60 1075 l 764 1075 l 764 1111 l 819 1111 l 818 758 l 625 1006 l 425 1006 z "},"É":{"ha":861,"x_min":42,"x_max":819,"o":"m 367 1299 l 638 1299 l 353 1100 l 367 1299 m 426 1006 l 310 600 l 711 600 l 711 669 l 767 669 l 767 461 l 711 461 l 711 531 l 290 531 l 158 69 l 625 69 l 819 318 l 819 -33 l 764 -33 l 764 0 l 42 0 l 42 69 l 118 69 l 118 1006 l 61 1006 l 61 1075 l 764 1075 l 764 1111 l 819 1111 l 819 758 l 625 1006 l 426 1006 z "},"Ĕ":{"ha":861,"x_min":42,"x_max":819,"o":"m 653 1364 l 760 1364 l 613 1139 l 356 1139 l 208 1364 l 314 1364 l 401 1225 l 565 1225 l 653 1364 m 425 1004 l 308 599 l 710 599 l 710 668 l 765 668 l 765 460 l 710 460 l 710 529 l 289 529 l 157 68 l 624 68 l 818 317 l 819 -35 l 764 -35 l 764 -1 l 42 -1 l 42 68 l 117 68 l 117 1004 l 60 1004 l 60 1074 l 764 1075 l 764 1111 l 819 1111 l 818 757 l 625 1004 l 425 1004 z "},"Ě":{"ha":861,"x_min":42,"x_max":819,"o":"m 435 1117 l 182 1321 l 435 1258 l 688 1321 l 435 1117 m 426 1004 l 310 599 l 711 599 l 711 668 l 767 668 l 767 460 l 711 460 l 711 529 l 289 529 l 157 68 l 625 68 l 819 317 l 819 -35 l 764 -35 l 764 -1 l 42 -1 l 42 68 l 117 68 l 117 1004 l 60 1004 l 60 1074 l 764 1075 l 764 1111 l 819 1111 l 819 757 l 625 1004 l 426 1004 z "},"Ê":{"ha":861,"x_min":42,"x_max":819,"o":"m 454 1321 l 707 1117 l 454 1178 l 201 1117 l 454 1321 m 426 1006 l 310 600 l 711 600 l 711 669 l 767 669 l 767 461 l 711 461 l 711 531 l 290 531 l 157 69 l 625 69 l 819 318 l 819 -33 l 764 -33 l 764 0 l 42 0 l 42 69 l 117 69 l 117 1006 l 60 1006 l 60 1075 l 764 1075 l 764 1111 l 819 1111 l 819 758 l 625 1006 l 426 1006 z "},"Ế":{"ha":863,"x_min":42,"x_max":821,"o":"m 354 1496 l 625 1496 l 340 1297 l 354 1496 m 456 1321 l 710 1117 l 456 1178 l 203 1117 l 456 1321 m 426 1004 l 310 599 l 711 599 l 711 668 l 767 668 l 767 460 l 711 460 l 711 529 l 290 529 l 158 68 l 625 68 l 819 317 l 821 -35 l 765 -35 l 765 -1 l 42 -1 l 42 68 l 118 68 l 118 1004 l 61 1004 l 61 1074 l 765 1075 l 765 1111 l 821 1111 l 819 757 l 625 1004 l 426 1004 z "},"Ệ":{"ha":863,"x_min":42,"x_max":821,"o":"m 421 1321 l 674 1117 l 421 1179 l 168 1117 l 421 1321 m 426 1006 l 310 600 l 711 600 l 711 669 l 767 669 l 767 461 l 711 461 l 711 531 l 290 531 l 158 69 l 625 69 l 819 317 l 821 -33 l 765 -33 l 765 0 l 42 0 l 42 69 l 118 69 l 118 1006 l 61 1006 l 61 1075 l 765 1075 l 765 1111 l 821 1111 l 819 758 l 626 1006 l 426 1006 m 336 -54 l 511 -54 l 511 -228 l 336 -228 l 336 -54 z "},"Ề":{"ha":861,"x_min":42,"x_max":819,"o":"m 542 1497 l 556 1299 l 271 1497 l 542 1497 m 440 1321 l 693 1117 l 440 1179 l 186 1117 l 440 1321 m 425 1006 l 308 600 l 710 600 l 710 669 l 765 669 l 765 461 l 710 461 l 710 531 l 289 531 l 157 69 l 624 69 l 818 317 l 819 -33 l 764 -33 l 764 0 l 42 0 l 42 69 l 117 69 l 117 1006 l 60 1006 l 60 1075 l 764 1075 l 764 1111 l 819 1111 l 818 758 l 625 1006 l 425 1006 z "},"Ể":{"ha":861,"x_min":42,"x_max":819,"o":"m 614 1332 l 743 1332 l 743 1392 l 510 1392 l 672 1508 l 808 1424 l 808 1307 l 678 1254 l 678 1206 l 614 1206 l 614 1332 m 457 1321 l 710 1117 l 457 1179 l 204 1117 l 457 1321 m 425 1006 l 310 600 l 711 600 l 711 669 l 767 669 l 767 461 l 711 461 l 711 531 l 289 531 l 157 69 l 625 69 l 819 317 l 819 -33 l 764 -33 l 764 0 l 42 0 l 42 69 l 117 69 l 117 1006 l 60 1006 l 60 1075 l 764 1075 l 764 1111 l 819 1111 l 819 758 l 625 1006 l 425 1006 z "},"Ễ":{"ha":861,"x_min":42,"x_max":819,"o":"m 781 1511 l 486 1300 l 481 1369 l 246 1301 l 546 1515 l 551 1451 l 781 1511 m 442 1321 l 694 1117 l 442 1179 l 189 1117 l 442 1321 m 425 1006 l 310 600 l 711 600 l 711 669 l 767 669 l 767 461 l 711 461 l 711 531 l 289 531 l 157 69 l 625 69 l 818 317 l 819 -33 l 764 -33 l 764 0 l 42 0 l 42 69 l 117 69 l 117 1006 l 60 1006 l 60 1075 l 764 1075 l 764 1111 l 819 1111 l 818 758 l 625 1006 l 425 1006 z "},"Ȅ":{"ha":861,"x_min":42,"x_max":819,"o":"m 660 1300 l 674 1101 l 389 1300 l 660 1300 m 344 1300 l 358 1101 l 75 1300 l 344 1300 m 425 1006 l 308 600 l 710 600 l 710 669 l 765 669 l 765 461 l 710 461 l 710 531 l 289 531 l 157 69 l 624 69 l 818 318 l 819 -33 l 764 -33 l 764 0 l 42 0 l 42 69 l 117 69 l 117 1006 l 60 1006 l 60 1075 l 764 1075 l 764 1111 l 819 1111 l 818 758 l 625 1006 l 425 1006 z "},"Ë":{"ha":863,"x_min":42,"x_max":821,"o":"m 219 1319 l 394 1319 l 394 1146 l 219 1146 l 219 1319 m 514 1319 l 688 1319 l 688 1146 l 514 1146 l 514 1319 m 426 1006 l 310 600 l 711 600 l 711 669 l 767 669 l 767 461 l 711 461 l 711 531 l 290 531 l 158 69 l 625 69 l 819 318 l 821 -33 l 765 -33 l 765 0 l 42 0 l 42 69 l 118 69 l 118 1006 l 61 1006 l 61 1075 l 765 1075 l 765 1111 l 821 1111 l 819 758 l 625 1006 l 426 1006 z "},"Ė":{"ha":863,"x_min":42,"x_max":821,"o":"m 358 1319 l 532 1319 l 532 1146 l 358 1146 l 358 1319 m 426 1004 l 310 599 l 711 599 l 711 668 l 767 668 l 767 460 l 711 460 l 711 529 l 290 529 l 158 68 l 625 68 l 819 317 l 821 -35 l 765 -35 l 765 -1 l 42 -1 l 42 68 l 118 68 l 118 1004 l 61 1004 l 61 1074 l 765 1075 l 765 1111 l 821 1111 l 819 757 l 625 1004 l 426 1004 z "},"Ẹ":{"ha":861,"x_min":42,"x_max":819,"o":"m 425 1006 l 308 600 l 710 600 l 710 669 l 765 669 l 765 461 l 710 461 l 710 531 l 289 531 l 157 69 l 624 69 l 818 318 l 819 -33 l 764 -33 l 764 0 l 42 0 l 42 69 l 117 69 l 117 1006 l 60 1006 l 60 1075 l 764 1076 l 764 1113 l 819 1113 l 818 758 l 625 1006 l 425 1006 m 364 -53 l 538 -53 l 538 -226 l 364 -226 l 364 -53 z "},"È":{"ha":863,"x_min":42,"x_max":821,"o":"m 569 1299 l 583 1100 l 300 1299 l 569 1299 m 426 1006 l 310 600 l 711 600 l 711 669 l 767 669 l 767 461 l 711 461 l 711 531 l 290 531 l 158 69 l 625 69 l 819 318 l 821 -33 l 765 -33 l 765 0 l 42 0 l 42 69 l 118 69 l 118 1006 l 61 1006 l 61 1075 l 765 1075 l 765 1111 l 821 1111 l 819 758 l 625 1006 l 426 1006 z "},"Ẻ":{"ha":863,"x_min":42,"x_max":821,"o":"m 371 1243 l 500 1243 l 500 1304 l 267 1304 l 429 1421 l 565 1335 l 565 1219 l 435 1165 l 435 1106 l 371 1106 l 371 1243 m 426 1006 l 310 600 l 711 600 l 711 669 l 767 669 l 767 461 l 711 461 l 711 531 l 290 531 l 158 69 l 625 69 l 819 318 l 821 -33 l 765 -33 l 765 0 l 42 0 l 42 69 l 118 69 l 118 1006 l 61 1006 l 61 1075 l 765 1076 l 765 1113 l 821 1113 l 819 758 l 625 1006 l 426 1006 z "},"Ȇ":{"ha":861,"x_min":42,"x_max":819,"o":"m 599 1140 l 513 1279 l 349 1279 l 261 1140 l 154 1140 l 301 1365 l 558 1365 l 706 1140 l 599 1140 m 425 1006 l 308 600 l 710 600 l 710 669 l 765 669 l 765 461 l 710 461 l 710 531 l 289 531 l 157 69 l 624 69 l 818 318 l 819 -33 l 764 -33 l 764 0 l 42 0 l 42 69 l 117 69 l 117 1006 l 60 1006 l 60 1075 l 764 1075 l 764 1111 l 819 1111 l 818 758 l 625 1006 l 425 1006 z "},"Ē":{"ha":861,"x_min":42,"x_max":819,"o":"m 126 1296 l 736 1296 l 694 1240 l 238 1157 l 126 1296 m 426 1004 l 310 599 l 711 599 l 711 668 l 767 668 l 767 460 l 711 460 l 711 529 l 290 529 l 157 68 l 625 68 l 819 317 l 819 -35 l 764 -35 l 764 -1 l 42 -1 l 42 68 l 117 68 l 117 1004 l 60 1004 l 60 1074 l 764 1075 l 764 1111 l 819 1111 l 819 757 l 625 1004 l 426 1004 z "},"Ę":{"ha":861,"x_min":42,"x_max":819,"o":"m 625 -150 l 326 -311 l 396 0 l 42 0 l 42 69 l 117 69 l 117 1006 l 60 1006 l 60 1075 l 764 1076 l 764 1113 l 819 1113 l 819 758 l 625 1006 l 425 1006 l 310 600 l 711 600 l 711 669 l 767 669 l 767 461 l 711 461 l 711 531 l 289 531 l 157 69 l 625 69 l 819 318 l 819 -33 l 764 -33 l 764 0 l 479 0 l 443 -150 l 625 -150 z "},"Ẽ":{"ha":863,"x_min":42,"x_max":821,"o":"m 758 1319 l 464 1108 l 458 1178 l 222 1110 l 524 1324 l 529 1258 l 758 1319 m 426 1006 l 310 600 l 711 600 l 711 669 l 767 669 l 767 461 l 711 461 l 711 531 l 290 531 l 158 69 l 625 69 l 819 318 l 821 -33 l 765 -33 l 765 0 l 42 0 l 42 69 l 118 69 l 118 1006 l 61 1006 l 61 1075 l 765 1076 l 765 1113 l 821 1113 l 819 758 l 625 1006 l 426 1006 z "},"F":{"ha":871,"x_min":42,"x_max":829,"o":"m 451 1006 l 335 600 l 681 600 l 681 669 l 736 669 l 736 461 l 681 461 l 681 531 l 315 531 l 183 69 l 288 69 l 288 0 l 42 0 l 42 69 l 143 69 l 143 1006 l 71 1006 l 71 1075 l 774 1075 l 774 1111 l 829 1111 l 829 758 l 636 1006 l 451 1006 z "},"G":{"ha":1113,"x_min":42,"x_max":1071,"o":"m 1071 571 l 792 0 l 350 0 l 42 568 l 350 1075 l 919 1075 l 919 1113 l 975 1113 l 975 758 l 782 1006 l 371 1006 l 371 69 l 772 69 l 772 571 l 1071 571 z "},"Ğ":{"ha":1113,"x_min":42,"x_max":1071,"o":"m 765 1365 l 871 1365 l 724 1140 l 468 1140 l 321 1365 l 426 1365 l 514 1226 l 678 1226 l 765 1365 m 1071 571 l 792 0 l 350 0 l 42 569 l 350 1075 l 919 1076 l 919 1113 l 975 1113 l 975 758 l 781 1006 l 371 1006 l 371 69 l 772 69 l 772 571 l 1071 571 z "},"Ǧ":{"ha":1113,"x_min":42,"x_max":1071,"o":"m 579 1118 l 325 1321 l 579 1260 l 832 1321 l 579 1118 m 1071 571 l 792 0 l 350 0 l 42 568 l 350 1075 l 919 1075 l 919 1113 l 975 1113 l 975 758 l 782 1006 l 371 1006 l 371 69 l 772 69 l 772 571 l 1071 571 z "},"Ĝ":{"ha":1113,"x_min":42,"x_max":1071,"o":"m 608 1322 l 861 1118 l 608 1179 l 356 1118 l 608 1322 m 1071 571 l 792 0 l 350 0 l 42 569 l 350 1075 l 919 1076 l 919 1113 l 975 1113 l 975 758 l 781 1006 l 371 1006 l 371 69 l 772 69 l 772 571 l 1071 571 z "},"Ģ":{"ha":1113,"x_min":42,"x_max":1071,"o":"m 1071 569 l 792 0 l 350 0 l 42 568 l 350 1075 l 919 1075 l 919 1111 l 975 1111 l 975 758 l 781 1006 l 371 1006 l 371 69 l 771 69 l 771 569 l 1071 569 m 499 -33 l 654 -81 l 503 -322 l 499 -322 l 499 -33 z "},"Ġ":{"ha":1113,"x_min":42,"x_max":1071,"o":"m 532 1321 l 706 1321 l 706 1147 l 532 1147 l 532 1321 m 1071 569 l 792 0 l 350 0 l 42 568 l 350 1075 l 919 1075 l 919 1111 l 975 1111 l 975 758 l 781 1006 l 371 1006 l 371 69 l 772 69 l 772 569 l 1071 569 z "},"H":{"ha":1057,"x_min":42,"x_max":1015,"o":"m 1015 69 l 1015 0 l 763 0 l 763 69 l 856 69 l 721 539 l 321 539 l 186 69 l 294 69 l 294 0 l 42 0 l 42 69 l 146 69 l 146 1006 l 72 1006 l 72 1075 l 475 1075 l 342 608 l 701 608 l 567 1075 l 964 1075 l 964 1006 l 896 1006 l 896 69 l 1015 69 z "},"Ħ":{"ha":1135,"x_min":42,"x_max":1093,"o":"m 957 832 l 957 69 l 1078 69 l 1078 0 l 825 0 l 825 69 l 917 69 l 782 539 l 383 539 l 249 69 l 357 69 l 357 0 l 104 0 l 104 69 l 208 69 l 208 767 l 110 758 l 42 896 l 208 896 l 208 1006 l 133 1006 l 133 1075 l 536 1075 l 485 896 l 681 896 l 629 1075 l 1025 1075 l 1025 1006 l 957 1006 l 957 896 l 1093 896 l 1053 840 l 957 832 m 403 608 l 763 608 l 704 810 l 454 788 l 403 608 z "},"Ĥ":{"ha":1057,"x_min":42,"x_max":1015,"o":"m 528 1321 l 781 1117 l 528 1179 l 275 1117 l 528 1321 m 1015 69 l 1015 0 l 761 0 l 761 69 l 854 69 l 719 539 l 319 539 l 186 69 l 294 69 l 294 0 l 42 0 l 42 69 l 146 69 l 146 1006 l 71 1006 l 71 1075 l 474 1075 l 340 608 l 700 608 l 565 1075 l 963 1075 l 963 1006 l 894 1006 l 894 69 l 1015 69 z "},"I":{"ha":485,"x_min":42,"x_max":443,"o":"m 443 1075 l 161 225 l 404 0 l 119 0 l 119 1006 l 42 1006 l 42 1075 l 443 1075 z "},"Í":{"ha":524,"x_min":42,"x_max":482,"o":"m 199 1299 l 482 1299 l 199 1100 l 199 1299 m 443 1075 l 161 225 l 404 0 l 119 0 l 119 1006 l 42 1006 l 42 1075 l 443 1075 z "},"Ĭ":{"ha":633,"x_min":42,"x_max":592,"o":"m 486 1365 l 592 1365 l 446 1139 l 189 1139 l 42 1365 l 147 1365 l 235 1225 l 399 1225 l 486 1365 m 546 1075 l 264 225 l 507 0 l 224 0 l 224 1006 l 146 1006 l 146 1075 l 546 1075 z "},"Î":{"ha":589,"x_min":42,"x_max":547,"o":"m 294 1321 l 547 1117 l 294 1178 l 42 1117 l 294 1321 m 496 1075 l 214 225 l 457 0 l 172 0 l 172 1006 l 94 1006 l 94 1075 l 496 1075 z "},"Ȉ":{"ha":682,"x_min":42,"x_max":640,"o":"m 626 1300 l 640 1101 l 357 1300 l 626 1300 m 313 1300 l 326 1101 l 42 1300 l 313 1300 m 590 1075 l 307 225 l 551 0 l 267 0 l 267 1006 l 189 1006 l 189 1075 l 590 1075 z "},"Ï":{"ha":551,"x_min":42,"x_max":510,"o":"m 42 1319 l 215 1319 l 215 1146 l 42 1146 l 42 1319 m 336 1319 l 510 1319 l 510 1146 l 336 1146 l 336 1319 m 464 1075 l 182 225 l 425 0 l 142 0 l 142 1006 l 64 1006 l 64 1075 l 464 1075 z "},"İ":{"ha":485,"x_min":42,"x_max":443,"o":"m 176 1321 l 350 1321 l 350 1147 l 176 1147 l 176 1321 m 443 1075 l 160 225 l 404 0 l 119 0 l 119 1006 l 42 1006 l 42 1075 l 443 1075 z "},"Ị":{"ha":483,"x_min":42,"x_max":442,"o":"m 442 1076 l 160 225 l 403 0 l 119 0 l 119 1006 l 42 1006 l 42 1075 l 442 1076 m 154 -53 l 329 -53 l 329 -228 l 154 -228 l 154 -53 z "},"Ì":{"ha":483,"x_min":42,"x_max":442,"o":"m 343 1299 l 343 1100 l 58 1299 l 343 1299 m 442 1075 l 160 225 l 403 0 l 119 0 l 119 1006 l 42 1006 l 42 1075 l 442 1075 z "},"Ỉ":{"ha":485,"x_min":42,"x_max":443,"o":"m 206 1243 l 335 1243 l 335 1304 l 103 1304 l 265 1421 l 401 1335 l 401 1219 l 271 1165 l 271 1106 l 206 1106 l 206 1243 m 443 1076 l 161 225 l 404 0 l 119 0 l 119 1006 l 42 1006 l 42 1075 l 443 1076 z "},"Ȋ":{"ha":635,"x_min":42,"x_max":593,"o":"m 488 1140 l 400 1279 l 236 1279 l 149 1140 l 42 1140 l 189 1365 l 446 1365 l 593 1140 l 488 1140 m 533 1075 l 251 225 l 494 0 l 210 0 l 210 1006 l 132 1006 l 132 1075 l 533 1075 z "},"Ī":{"ha":693,"x_min":42,"x_max":651,"o":"m 42 1296 l 651 1296 l 610 1242 l 153 1158 l 42 1296 m 543 1075 l 261 225 l 504 0 l 219 0 l 219 1006 l 142 1006 l 142 1075 l 543 1075 z "},"Į":{"ha":483,"x_min":42,"x_max":442,"o":"m 403 0 l 204 0 l 165 -151 l 349 -151 l 50 -312 l 119 0 l 119 1006 l 42 1006 l 42 1075 l 442 1075 l 160 225 l 403 0 z "},"Ĩ":{"ha":618,"x_min":42,"x_max":576,"o":"m 576 1318 l 282 1108 l 276 1176 l 42 1108 l 342 1324 l 347 1258 l 576 1318 m 442 1075 l 160 225 l 403 0 l 119 0 l 119 1006 l 42 1006 l 42 1075 l 442 1075 z "},"J":{"ha":535,"x_min":42,"x_max":493,"o":"m 493 1075 l 493 1006 l 404 1006 l 404 0 l 42 0 l 42 215 l 208 19 l 367 215 l 82 1075 l 493 1075 z "},"Ĵ":{"ha":589,"x_min":42,"x_max":547,"o":"m 294 1321 l 547 1117 l 294 1179 l 42 1117 l 294 1321 m 494 1075 l 494 1006 l 407 1006 l 407 0 l 43 0 l 43 215 l 210 18 l 368 215 l 83 1075 l 494 1075 z "},"K":{"ha":1013,"x_min":42,"x_max":971,"o":"m 878 69 l 971 69 l 971 0 l 718 0 l 718 69 l 850 69 l 617 539 l 321 539 l 186 69 l 294 69 l 294 0 l 42 0 l 42 69 l 146 69 l 146 1006 l 72 1006 l 72 1075 l 475 1075 l 340 608 l 618 608 l 618 1006 l 560 1006 l 560 1075 l 947 1075 l 639 606 l 878 606 l 878 69 z "},"Ķ":{"ha":1013,"x_min":42,"x_max":971,"o":"m 878 69 l 971 69 l 971 0 l 718 0 l 718 69 l 850 69 l 617 539 l 321 539 l 186 69 l 294 69 l 294 0 l 42 0 l 42 69 l 146 69 l 146 1006 l 72 1006 l 72 1075 l 475 1075 l 340 608 l 618 608 l 618 1006 l 560 1006 l 560 1075 l 947 1075 l 639 606 l 878 606 l 878 69 m 450 -33 l 606 -81 l 454 -322 l 450 -322 l 450 -33 z "},"L":{"ha":796,"x_min":42,"x_max":754,"o":"m 560 69 l 754 318 l 754 -32 l 699 -32 l 699 0 l 42 0 l 42 69 l 136 69 l 136 1006 l 42 1006 l 42 1075 l 465 1075 l 176 69 l 560 69 z "},"Ǉ":{"ha":1354,"x_min":42,"x_max":1313,"o":"m 1313 1075 l 1313 1006 l 1224 1006 l 1224 0 l 860 0 l 860 217 l 1026 19 l 1186 217 l 900 1076 l 1313 1075 m 561 69 l 754 318 l 754 -31 l 699 -31 l 699 0 l 42 0 l 42 69 l 136 69 l 136 1006 l 42 1006 l 42 1075 l 465 1076 l 176 69 l 561 69 z "},"Ĺ":{"ha":797,"x_min":42,"x_max":756,"o":"m 156 1297 l 426 1301 l 144 1099 l 156 1297 m 561 69 l 756 317 l 756 -32 l 700 -32 l 700 0 l 42 0 l 42 69 l 138 69 l 138 1006 l 42 1006 l 42 1075 l 467 1075 l 178 69 l 561 69 z "},"Ľ":{"ha":796,"x_min":42,"x_max":754,"o":"m 560 69 l 754 317 l 754 -32 l 699 -32 l 699 0 l 42 0 l 42 69 l 136 69 l 136 1006 l 42 1006 l 42 1075 l 465 1075 l 176 69 l 560 69 m 508 953 l 664 906 l 513 664 l 508 664 l 508 953 z "},"Ļ":{"ha":797,"x_min":42,"x_max":756,"o":"m 561 69 l 756 317 l 756 -32 l 700 -32 l 700 0 l 42 0 l 42 69 l 138 69 l 138 1006 l 42 1006 l 42 1075 l 465 1075 l 178 69 l 561 69 m 389 -33 l 544 -81 l 393 -322 l 389 -322 l 389 -33 z "},"Ŀ":{"ha":797,"x_min":42,"x_max":756,"o":"m 561 69 l 756 317 l 756 -32 l 700 -32 l 700 0 l 42 0 l 42 69 l 138 69 l 138 1006 l 42 1006 l 42 1075 l 465 1075 l 178 69 l 561 69 m 450 688 l 624 688 l 624 514 l 450 514 l 450 688 z "},"ǈ":{"ha":1154,"x_min":42,"x_max":1113,"o":"m 560 69 l 754 317 l 754 -32 l 699 -32 l 699 0 l 42 0 l 42 69 l 136 69 l 136 1006 l 42 1006 l 42 1075 l 465 1075 l 176 69 l 560 69 m 1008 997 l 1008 810 l 792 810 l 792 997 l 1008 997 m 1113 676 l 1113 607 l 1017 607 l 1017 -104 l 806 -104 l 982 115 l 761 676 l 1113 676 z "},"Ł":{"ha":892,"x_min":42,"x_max":850,"o":"m 656 69 l 850 317 l 850 -32 l 794 -32 l 794 0 l 136 0 l 136 69 l 232 69 l 232 511 l 153 476 l 42 615 l 232 653 l 232 1006 l 136 1006 l 136 1075 l 560 1075 l 451 696 l 653 736 l 611 681 l 424 597 l 272 69 l 656 69 z "},"M":{"ha":1414,"x_min":42,"x_max":1372,"o":"m 1372 69 l 1372 0 l 1126 0 l 1126 69 l 1238 69 l 969 1006 l 871 1006 l 721 69 l 826 69 l 826 0 l 581 0 l 581 69 l 681 69 l 563 1006 l 468 1006 l 200 69 l 324 69 l 324 0 l 76 0 l 76 69 l 160 69 l 160 1006 l 42 1006 l 42 1075 l 1278 1075 l 1278 69 l 1372 69 z "},"N":{"ha":1013,"x_min":42,"x_max":971,"o":"m 289 1006 l 194 1006 l 556 0 l 63 0 l 63 69 l 156 69 l 156 1006 l 42 1006 l 42 1075 l 289 1075 l 289 1006 m 853 69 l 971 69 l 971 0 l 718 0 l 718 69 l 814 69 l 429 1075 l 942 1075 l 942 1006 l 853 1006 l 853 69 z "},"Ǌ":{"ha":1574,"x_min":42,"x_max":1532,"o":"m 1532 1075 l 1532 1006 l 1443 1006 l 1443 0 l 1079 0 l 1079 217 l 1246 19 l 1406 217 l 1119 1076 l 1532 1075 m 853 69 l 971 69 l 971 0 l 718 0 l 718 69 l 814 69 l 428 1076 l 942 1075 l 942 1006 l 853 1006 l 853 69 m 288 1006 l 194 1006 l 556 0 l 63 0 l 63 69 l 154 69 l 154 1006 l 42 1006 l 42 1075 l 288 1075 l 288 1006 z "},"Ń":{"ha":1013,"x_min":42,"x_max":971,"o":"m 440 1299 l 711 1299 l 426 1100 l 440 1299 m 289 1006 l 194 1006 l 556 0 l 63 0 l 63 69 l 156 69 l 156 1006 l 42 1006 l 42 1075 l 289 1075 l 289 1006 m 853 69 l 971 69 l 971 0 l 718 0 l 718 69 l 814 69 l 429 1075 l 942 1075 l 942 1006 l 853 1006 l 853 69 z "},"Ň":{"ha":1013,"x_min":42,"x_max":971,"o":"m 483 1117 l 229 1321 l 483 1260 l 736 1321 l 483 1117 m 288 1006 l 194 1006 l 556 0 l 63 0 l 63 69 l 154 69 l 154 1006 l 42 1006 l 42 1075 l 288 1075 l 288 1006 m 853 69 l 971 69 l 971 0 l 718 0 l 718 69 l 813 69 l 428 1075 l 940 1075 l 940 1006 l 853 1006 l 853 69 z "},"Ņ":{"ha":1013,"x_min":42,"x_max":971,"o":"m 288 1006 l 194 1006 l 556 0 l 63 0 l 63 69 l 154 69 l 154 1006 l 42 1006 l 42 1075 l 288 1075 l 288 1006 m 853 69 l 971 69 l 971 0 l 718 0 l 718 69 l 813 69 l 428 1075 l 940 1075 l 940 1006 l 853 1006 l 853 69 m 478 -33 l 633 -81 l 482 -322 l 478 -322 l 478 -33 z "},"Ŋ":{"ha":983,"x_min":42,"x_max":942,"o":"m 289 1006 l 194 1006 l 556 0 l 63 0 l 63 69 l 156 69 l 156 1006 l 42 1006 l 42 1075 l 289 1075 l 289 1006 m 429 1075 l 942 1075 l 942 1006 l 853 1006 l 860 -251 l 449 -90 l 825 -90 l 429 1075 z "},"ǋ":{"ha":1382,"x_min":42,"x_max":1340,"o":"m 853 69 l 971 69 l 971 0 l 718 0 l 718 69 l 813 69 l 428 1076 l 940 1075 l 940 1006 l 853 1006 l 853 69 m 288 1006 l 194 1006 l 556 0 l 63 0 l 63 69 l 154 69 l 154 1006 l 42 1006 l 42 1075 l 288 1075 l 288 1006 m 1236 999 l 1236 810 l 1019 810 l 1019 999 l 1236 999 m 1340 676 l 1340 607 l 1244 607 l 1244 -103 l 1033 -103 l 1210 115 l 989 676 l 1340 676 z "},"Ñ":{"ha":1013,"x_min":42,"x_max":971,"o":"m 775 1317 l 479 1107 l 475 1175 l 239 1107 l 539 1322 l 544 1257 l 775 1317 m 288 1006 l 193 1006 l 554 0 l 63 0 l 63 69 l 154 69 l 154 1006 l 42 1006 l 42 1075 l 288 1075 l 288 1006 m 851 69 l 971 69 l 971 0 l 717 0 l 717 69 l 813 69 l 428 1075 l 940 1075 l 940 1006 l 851 1006 l 851 69 z "},"O":{"ha":1176,"x_min":42,"x_max":1135,"o":"m 1135 568 l 835 0 l 340 0 l 42 568 l 339 1075 l 836 1075 l 1135 568 m 350 69 l 826 69 l 826 1006 l 350 1006 l 350 69 z "},"Ó":{"ha":1176,"x_min":42,"x_max":1135,"o":"m 515 1299 l 786 1299 l 501 1100 l 515 1299 m 1135 568 l 836 0 l 342 0 l 42 568 l 340 1075 l 838 1075 l 1135 568 m 350 69 l 826 69 l 826 1006 l 350 1006 l 350 69 z "},"Ŏ":{"ha":1176,"x_min":42,"x_max":1135,"o":"m 733 1365 l 839 1365 l 692 1140 l 435 1140 l 289 1365 l 394 1365 l 482 1225 l 646 1225 l 733 1365 m 1135 568 l 836 0 l 342 0 l 42 568 l 340 1075 l 838 1075 l 1135 568 m 350 69 l 826 69 l 826 1006 l 350 1006 l 350 69 z "},"Ô":{"ha":1176,"x_min":42,"x_max":1135,"o":"m 589 1321 l 842 1117 l 589 1178 l 335 1117 l 589 1321 m 1135 568 l 836 0 l 340 0 l 42 568 l 340 1075 l 836 1075 l 1135 568 m 350 69 l 826 69 l 826 1006 l 350 1006 l 350 69 z "},"Ố":{"ha":1176,"x_min":42,"x_max":1135,"o":"m 478 1496 l 747 1496 l 464 1299 l 478 1496 m 579 1321 l 832 1117 l 579 1178 l 326 1117 l 579 1321 m 1135 567 l 836 0 l 342 0 l 42 567 l 340 1075 l 836 1075 l 1135 567 m 350 69 l 826 69 l 826 1004 l 350 1004 l 350 69 z "},"Ộ":{"ha":1178,"x_min":42,"x_max":1136,"o":"m 586 1322 l 839 1118 l 586 1179 l 333 1118 l 586 1322 m 1136 568 l 836 0 l 342 0 l 42 568 l 340 1075 l 838 1075 l 1136 568 m 351 69 l 826 69 l 826 1006 l 351 1006 l 351 69 m 501 -53 l 676 -53 l 676 -226 l 501 -226 l 501 -53 z "},"Ồ":{"ha":1176,"x_min":42,"x_max":1135,"o":"m 692 1496 l 706 1299 l 421 1496 l 692 1496 m 590 1321 l 843 1117 l 590 1178 l 338 1117 l 590 1321 m 1135 567 l 835 0 l 340 0 l 42 567 l 340 1075 l 836 1075 l 1135 567 m 350 69 l 826 69 l 826 1004 l 350 1004 l 350 69 z "},"Ổ":{"ha":1176,"x_min":42,"x_max":1135,"o":"m 751 1332 l 881 1332 l 881 1393 l 649 1393 l 811 1510 l 947 1424 l 947 1308 l 815 1254 l 815 1207 l 751 1207 l 751 1332 m 594 1322 l 847 1118 l 594 1179 l 342 1118 l 594 1322 m 1135 568 l 835 0 l 340 0 l 42 568 l 340 1075 l 836 1075 l 1135 568 m 350 69 l 826 69 l 826 1006 l 350 1006 l 350 69 z "},"Ỗ":{"ha":1176,"x_min":42,"x_max":1135,"o":"m 928 1511 l 633 1301 l 628 1369 l 392 1301 l 693 1515 l 697 1451 l 928 1511 m 588 1321 l 842 1117 l 588 1179 l 335 1117 l 588 1321 m 1135 568 l 836 0 l 342 0 l 42 568 l 340 1075 l 836 1075 l 1135 568 m 350 69 l 826 69 l 826 1006 l 350 1006 l 350 69 z "},"Ȍ":{"ha":1176,"x_min":42,"x_max":1135,"o":"m 829 1300 l 843 1101 l 558 1300 l 829 1300 m 515 1300 l 529 1101 l 244 1300 l 515 1300 m 1135 568 l 835 0 l 340 0 l 42 568 l 339 1075 l 836 1075 l 1135 568 m 350 69 l 826 69 l 826 1006 l 350 1006 l 350 69 z "},"Ö":{"ha":1176,"x_min":42,"x_max":1135,"o":"m 354 1319 l 528 1319 l 528 1146 l 354 1146 l 354 1319 m 649 1319 l 822 1319 l 822 1146 l 649 1146 l 649 1319 m 1135 568 l 835 0 l 340 0 l 42 568 l 339 1075 l 836 1075 l 1135 568 m 350 69 l 826 69 l 826 1006 l 350 1006 l 350 69 z "},"Ȫ":{"ha":1176,"x_min":42,"x_max":1135,"o":"m 283 1529 l 893 1529 l 853 1474 l 394 1390 l 283 1529 m 371 1321 l 544 1321 l 544 1147 l 371 1147 l 371 1321 m 665 1321 l 839 1321 l 839 1147 l 665 1147 l 665 1321 m 1135 567 l 836 0 l 342 0 l 42 567 l 340 1075 l 836 1075 l 1135 567 m 350 69 l 826 69 l 826 1006 l 350 1006 l 350 69 z "},"Ȱ":{"ha":1178,"x_min":42,"x_max":1136,"o":"m 314 1529 l 925 1529 l 883 1474 l 425 1390 l 314 1529 m 539 1321 l 713 1321 l 713 1147 l 539 1147 l 539 1321 m 1136 568 l 836 0 l 342 0 l 42 568 l 340 1075 l 838 1075 l 1136 568 m 351 69 l 826 69 l 826 1006 l 351 1006 l 351 69 z "},"Ọ":{"ha":1176,"x_min":42,"x_max":1135,"o":"m 1135 568 l 835 0 l 340 0 l 42 568 l 340 1075 l 836 1075 l 1135 568 m 350 69 l 826 69 l 826 1006 l 350 1006 l 350 69 m 501 -53 l 675 -53 l 675 -228 l 501 -228 l 501 -53 z "},"Ò":{"ha":1176,"x_min":42,"x_max":1135,"o":"m 664 1299 l 678 1100 l 393 1299 l 664 1299 m 1135 568 l 835 0 l 340 0 l 42 568 l 339 1075 l 836 1075 l 1135 568 m 350 69 l 826 69 l 826 1006 l 350 1006 l 350 69 z "},"Ỏ":{"ha":1176,"x_min":42,"x_max":1135,"o":"m 558 1243 l 688 1243 l 688 1304 l 456 1304 l 618 1421 l 754 1335 l 754 1219 l 624 1165 l 624 1106 l 558 1106 l 558 1243 m 1135 568 l 836 0 l 342 0 l 42 568 l 340 1075 l 838 1075 l 1135 568 m 350 69 l 826 69 l 826 1006 l 350 1006 l 350 69 z "},"Ơ":{"ha":1176,"x_min":42,"x_max":1135,"o":"m 968 851 l 1135 568 l 835 0 l 340 0 l 42 568 l 339 1075 l 836 1075 l 911 949 l 1006 949 l 1118 1125 l 1118 851 l 968 851 m 826 69 l 826 1006 l 350 1006 l 350 69 l 826 69 z "},"Ớ":{"ha":1178,"x_min":42,"x_max":1136,"o":"m 482 1300 l 751 1300 l 468 1101 l 482 1300 m 969 850 l 1136 568 l 836 0 l 342 0 l 42 568 l 340 1075 l 838 1075 l 913 947 l 1006 947 l 1119 1125 l 1119 850 l 969 850 m 826 69 l 826 1006 l 351 1006 l 351 69 l 826 69 z "},"Ợ":{"ha":1176,"x_min":42,"x_max":1135,"o":"m 968 850 l 1135 567 l 835 0 l 340 0 l 42 567 l 340 1075 l 836 1075 l 911 947 l 1006 947 l 1118 1124 l 1118 850 l 968 850 m 826 69 l 826 1004 l 350 1004 l 350 69 l 826 69 m 499 -228 l 499 -54 l 672 -54 l 672 -228 l 499 -228 z "},"Ờ":{"ha":1176,"x_min":42,"x_max":1135,"o":"m 663 1300 l 676 1101 l 393 1300 l 663 1300 m 969 850 l 1135 568 l 836 0 l 342 0 l 42 568 l 340 1075 l 838 1075 l 913 947 l 1006 947 l 1119 1125 l 1119 850 l 969 850 m 826 69 l 826 1006 l 350 1006 l 350 69 l 826 69 z "},"Ở":{"ha":1176,"x_min":42,"x_max":1135,"o":"m 646 1243 l 646 1304 l 414 1304 l 576 1419 l 713 1335 l 713 1219 l 582 1165 l 582 1106 l 517 1106 l 517 1243 l 646 1243 m 968 851 l 1135 568 l 836 0 l 342 0 l 42 568 l 340 1075 l 836 1075 l 911 949 l 1006 949 l 1118 1125 l 1118 851 l 968 851 m 826 69 l 826 1006 l 350 1006 l 350 69 l 826 69 z "},"Ỡ":{"ha":1176,"x_min":42,"x_max":1135,"o":"m 581 1108 l 575 1178 l 339 1110 l 639 1324 l 644 1258 l 875 1318 l 581 1108 m 968 851 l 1135 568 l 836 0 l 342 0 l 42 568 l 340 1075 l 836 1075 l 911 949 l 1006 949 l 1118 1125 l 1118 851 l 968 851 m 826 69 l 826 1006 l 350 1006 l 350 69 l 826 69 z "},"Ő":{"ha":1176,"x_min":42,"x_max":1135,"o":"m 371 1299 l 642 1299 l 357 1100 l 371 1299 m 685 1299 l 956 1299 l 671 1100 l 685 1299 m 1135 568 l 835 0 l 340 0 l 42 568 l 339 1075 l 836 1075 l 1135 568 m 350 69 l 826 69 l 826 1006 l 350 1006 l 350 69 z "},"Ȏ":{"ha":1176,"x_min":42,"x_max":1135,"o":"m 760 1140 l 672 1279 l 508 1279 l 421 1140 l 315 1140 l 463 1365 l 719 1365 l 865 1140 l 760 1140 m 1135 568 l 836 0 l 342 0 l 42 568 l 340 1075 l 836 1075 l 1135 568 m 350 69 l 826 69 l 826 1006 l 350 1006 l 350 69 z "},"Ō":{"ha":1178,"x_min":42,"x_max":1136,"o":"m 279 1296 l 889 1296 l 849 1242 l 390 1158 l 279 1296 m 1136 568 l 836 0 l 342 0 l 42 568 l 340 1075 l 838 1075 l 1136 568 m 351 69 l 826 69 l 826 1006 l 351 1006 l 351 69 z "},"Ǫ":{"ha":1176,"x_min":42,"x_max":1135,"o":"m 835 0 l 642 0 l 603 -151 l 786 -151 l 488 -312 l 556 0 l 340 0 l 42 568 l 339 1075 l 836 1075 l 1135 568 l 835 0 m 350 1006 l 350 69 l 826 69 l 826 1006 l 350 1006 z "},"Ø":{"ha":1217,"x_min":42,"x_max":1175,"o":"m 1175 1107 l 964 860 l 1135 568 l 836 0 l 342 0 l 299 82 l 104 -144 l 67 -144 l 274 129 l 42 568 l 340 1075 l 838 1075 l 904 961 l 1015 1107 l 1175 1107 m 350 1006 l 350 231 l 826 858 l 826 1006 l 350 1006 m 826 69 l 826 699 l 350 143 l 350 69 l 826 69 z "},"Ǿ":{"ha":1218,"x_min":42,"x_max":1176,"o":"m 532 1300 l 803 1300 l 518 1101 l 532 1300 m 1176 1107 l 964 860 l 1135 568 l 836 0 l 342 0 l 299 82 l 104 -144 l 67 -144 l 274 129 l 42 568 l 340 1075 l 838 1075 l 904 961 l 1015 1107 l 1176 1107 m 350 1006 l 350 231 l 826 858 l 826 1006 l 350 1006 m 826 69 l 826 699 l 350 143 l 350 69 l 826 69 z "},"Õ":{"ha":1176,"x_min":42,"x_max":1135,"o":"m 915 1318 l 621 1107 l 615 1176 l 379 1108 l 681 1322 l 686 1258 l 915 1318 m 1135 568 l 835 0 l 340 0 l 42 568 l 339 1075 l 836 1075 l 1135 568 m 350 69 l 826 69 l 826 1006 l 350 1006 l 350 69 z "},"Ȭ":{"ha":1176,"x_min":42,"x_max":1135,"o":"m 276 1529 l 886 1529 l 846 1474 l 388 1390 l 276 1529 m 860 1318 l 565 1108 l 561 1176 l 325 1108 l 625 1324 l 631 1258 l 860 1318 m 1135 567 l 835 0 l 340 0 l 42 567 l 339 1075 l 836 1075 l 1135 567 m 350 69 l 826 69 l 826 1006 l 350 1006 l 350 69 z "},"Œ":{"ha":1513,"x_min":42,"x_max":1471,"o":"m 1000 740 l 1082 600 l 1319 600 l 1319 669 l 1375 669 l 1375 461 l 1319 461 l 1319 531 l 1082 531 l 839 69 l 1276 69 l 1471 317 l 1471 -33 l 1417 -33 l 1417 0 l 342 0 l 42 568 l 340 1075 l 1417 1075 l 1417 1111 l 1471 1111 l 1471 758 l 1276 1006 l 1067 1006 l 1000 740 m 364 69 l 793 69 l 793 1006 l 364 1006 l 364 69 z "},"P":{"ha":1100,"x_min":42,"x_max":1058,"o":"m 42 0 l 42 69 l 150 69 l 150 1006 l 65 1006 l 65 1075 l 765 1075 l 1058 792 l 775 483 l 308 483 l 190 69 l 288 69 l 288 0 l 42 0 m 329 553 l 750 553 l 750 1006 l 458 1006 l 329 553 z "},"Þ":{"ha":1100,"x_min":42,"x_max":1058,"o":"m 42 0 l 42 69 l 150 69 l 150 1006 l 64 1006 l 64 1075 l 478 1075 l 433 919 l 758 919 l 1058 604 l 750 251 l 242 251 l 190 69 l 288 69 l 288 0 l 42 0 m 263 321 l 750 321 l 750 850 l 414 850 l 263 321 z "},"Q":{"ha":1176,"x_min":42,"x_max":1135,"o":"m 340 0 l 42 568 l 339 1075 l 836 1075 l 1135 568 l 835 0 l 340 0 m 350 69 l 446 69 l 446 275 l 668 69 l 826 69 l 826 1006 l 350 1006 l 350 69 z "},"R":{"ha":1083,"x_min":42,"x_max":1042,"o":"m 950 69 l 1042 69 l 1042 0 l 794 0 l 794 69 l 921 69 l 714 483 l 313 483 l 194 69 l 288 69 l 288 0 l 42 0 l 42 69 l 154 69 l 154 1006 l 78 1006 l 78 1075 l 740 1075 l 1033 808 l 775 546 l 950 546 l 950 69 m 463 1006 l 332 553 l 725 553 l 725 1006 l 463 1006 z "},"Ŕ":{"ha":1083,"x_min":42,"x_max":1042,"o":"m 429 1299 l 700 1299 l 415 1100 l 429 1299 m 951 69 l 1042 69 l 1042 0 l 796 0 l 796 69 l 922 69 l 714 482 l 314 482 l 194 69 l 289 69 l 289 0 l 42 0 l 42 69 l 154 69 l 154 1006 l 79 1006 l 79 1075 l 742 1075 l 1033 808 l 776 546 l 951 546 l 951 69 m 463 1006 l 333 551 l 725 551 l 725 1006 l 463 1006 z "},"Ř":{"ha":1083,"x_min":42,"x_max":1042,"o":"m 553 1117 l 300 1321 l 553 1260 l 806 1321 l 553 1117 m 950 69 l 1042 69 l 1042 0 l 794 0 l 794 69 l 921 69 l 714 482 l 313 482 l 194 69 l 288 69 l 288 0 l 42 0 l 42 69 l 154 69 l 154 1006 l 78 1006 l 78 1075 l 740 1075 l 1033 808 l 775 546 l 950 546 l 950 69 m 463 1006 l 332 551 l 725 551 l 725 1006 l 463 1006 z "},"Ŗ":{"ha":1083,"x_min":42,"x_max":1042,"o":"m 950 69 l 1042 69 l 1042 0 l 796 0 l 796 69 l 922 69 l 714 482 l 313 482 l 194 69 l 289 69 l 289 0 l 42 0 l 42 69 l 154 69 l 154 1006 l 78 1006 l 78 1075 l 742 1075 l 1033 808 l 776 546 l 950 546 l 950 69 m 463 1006 l 333 551 l 725 551 l 725 1006 l 463 1006 m 460 -33 l 615 -81 l 465 -322 l 460 -322 l 460 -33 z "},"Ȑ":{"ha":1083,"x_min":42,"x_max":1042,"o":"m 732 1300 l 746 1101 l 461 1300 l 732 1300 m 418 1300 l 432 1101 l 147 1300 l 418 1300 m 950 69 l 1042 69 l 1042 0 l 794 0 l 794 69 l 921 69 l 713 483 l 313 483 l 194 69 l 288 69 l 288 0 l 42 0 l 42 69 l 154 69 l 154 1006 l 78 1006 l 78 1075 l 740 1075 l 1033 808 l 775 547 l 950 547 l 950 69 m 463 1006 l 332 553 l 725 553 l 725 1006 l 463 1006 z "},"Ȓ":{"ha":1082,"x_min":42,"x_max":1040,"o":"m 693 1140 l 606 1281 l 442 1281 l 354 1140 l 249 1140 l 396 1365 l 651 1365 l 799 1140 l 693 1140 m 950 69 l 1040 69 l 1040 0 l 794 0 l 794 69 l 921 69 l 713 483 l 313 483 l 193 69 l 288 69 l 288 0 l 42 0 l 42 69 l 153 69 l 153 1006 l 78 1006 l 78 1075 l 740 1075 l 1032 808 l 775 547 l 950 547 l 950 69 m 463 1006 l 332 553 l 724 553 l 724 1006 l 463 1006 z "},"S":{"ha":1063,"x_min":42,"x_max":1021,"o":"m 1021 325 l 728 0 l 183 0 l 183 -31 l 128 -31 l 128 318 l 322 69 l 711 69 l 711 531 l 339 531 l 42 825 l 322 1075 l 806 1075 l 806 1111 l 861 1111 l 861 758 l 667 1006 l 350 1006 l 350 600 l 725 600 l 1021 325 z "},"Ś":{"ha":1061,"x_min":42,"x_max":1019,"o":"m 390 1299 l 660 1299 l 376 1100 l 390 1299 m 1019 324 l 728 0 l 183 0 l 183 -31 l 128 -31 l 128 317 l 321 69 l 711 69 l 711 531 l 339 531 l 42 825 l 322 1075 l 806 1075 l 806 1111 l 861 1111 l 861 758 l 667 1006 l 350 1006 l 350 600 l 725 600 l 1019 324 z "},"Š":{"ha":1061,"x_min":42,"x_max":1019,"o":"m 551 1117 l 297 1321 l 551 1260 l 804 1321 l 551 1117 m 1019 324 l 726 0 l 182 0 l 182 -31 l 126 -31 l 126 317 l 321 69 l 711 69 l 711 531 l 338 531 l 42 825 l 321 1075 l 804 1075 l 804 1111 l 860 1111 l 860 758 l 665 1006 l 350 1006 l 350 600 l 725 600 l 1019 324 z "},"Ş":{"ha":1061,"x_min":42,"x_max":1019,"o":"m 726 4 l 533 4 l 533 -24 l 704 -107 l 704 -208 l 558 -308 l 406 -192 l 638 -192 l 638 -132 l 469 -132 l 469 4 l 182 4 l 182 -26 l 126 -26 l 126 321 l 321 74 l 711 74 l 711 535 l 338 535 l 42 829 l 321 1079 l 804 1079 l 804 1115 l 860 1115 l 860 763 l 665 1010 l 350 1010 l 350 604 l 725 604 l 1019 328 l 726 4 z "},"Ŝ":{"ha":1061,"x_min":42,"x_max":1019,"o":"m 507 1321 l 761 1117 l 507 1179 l 254 1117 l 507 1321 m 1019 324 l 726 0 l 182 0 l 182 -31 l 126 -31 l 126 317 l 321 69 l 711 69 l 711 531 l 338 531 l 42 825 l 322 1075 l 804 1075 l 804 1111 l 860 1111 l 860 758 l 667 1006 l 350 1006 l 350 600 l 725 600 l 1019 324 z "},"Ș":{"ha":1061,"x_min":42,"x_max":1019,"o":"m 1019 325 l 726 0 l 182 0 l 182 -29 l 126 -29 l 126 318 l 321 69 l 711 69 l 711 531 l 338 531 l 42 825 l 321 1075 l 804 1076 l 804 1113 l 860 1113 l 860 758 l 665 1006 l 350 1006 l 350 600 l 725 600 l 1019 325 m 465 -32 l 621 -81 l 471 -321 l 465 -321 l 465 -32 z "},"ẞ":{"ha":1104,"x_min":42,"x_max":1063,"o":"m 1063 379 l 761 0 l 226 0 l 226 221 l 350 68 l 731 68 l 731 581 l 469 581 l 469 1004 l 350 1004 l 42 -72 l 42 846 l 224 1075 l 738 1075 l 500 651 l 760 651 l 1063 379 z "},"Ə":{"ha":1042,"x_min":42,"x_max":1000,"o":"m 149 768 l 149 1075 l 742 1075 l 1000 538 l 733 0 l 42 0 l 315 676 l 713 676 l 713 1006 l 308 1006 l 149 768 m 344 69 l 713 69 l 713 607 l 344 607 l 344 69 z "},"T":{"ha":921,"x_min":42,"x_max":879,"o":"m 824 1111 l 879 1111 l 879 758 l 686 1006 l 619 1006 l 463 69 l 565 69 l 565 0 l 313 0 l 313 69 l 422 69 l 311 1006 l 236 1006 l 42 758 l 42 1111 l 99 1111 l 99 1075 l 824 1075 l 824 1111 z "},"Ŧ":{"ha":921,"x_min":42,"x_max":879,"o":"m 686 1006 l 619 1006 l 551 606 l 763 606 l 721 551 l 538 518 l 461 69 l 564 69 l 564 0 l 311 0 l 311 69 l 421 69 l 372 488 l 263 468 l 151 606 l 358 606 l 311 1006 l 236 1006 l 42 758 l 42 1111 l 97 1111 l 97 1075 l 824 1075 l 824 1111 l 879 1111 l 879 758 l 686 1006 z "},"Ť":{"ha":921,"x_min":42,"x_max":879,"o":"m 460 1117 l 207 1321 l 460 1260 l 714 1321 l 460 1117 m 824 1111 l 879 1111 l 879 758 l 685 1006 l 618 1006 l 461 69 l 564 69 l 564 0 l 311 0 l 311 69 l 421 69 l 310 1006 l 236 1006 l 42 758 l 42 1111 l 97 1111 l 97 1075 l 824 1075 l 824 1111 z "},"Ţ":{"ha":921,"x_min":42,"x_max":879,"o":"m 824 1111 l 879 1111 l 879 758 l 686 1006 l 619 1006 l 463 69 l 565 69 l 565 0 l 472 0 l 472 -28 l 643 -111 l 643 -212 l 497 -312 l 344 -196 l 576 -196 l 576 -136 l 408 -136 l 408 0 l 313 0 l 313 69 l 422 69 l 311 1006 l 236 1006 l 42 758 l 42 1111 l 97 1111 l 97 1075 l 824 1075 l 824 1111 z "},"Ț":{"ha":921,"x_min":42,"x_max":879,"o":"m 824 1113 l 879 1113 l 879 758 l 685 1006 l 618 1006 l 461 69 l 564 69 l 564 0 l 311 0 l 311 69 l 421 69 l 310 1006 l 235 1006 l 42 758 l 42 1113 l 97 1113 l 97 1076 l 824 1076 l 824 1113 m 365 -32 l 522 -81 l 371 -321 l 365 -321 l 365 -32 z "},"U":{"ha":1014,"x_min":42,"x_max":972,"o":"m 972 1075 l 972 1006 l 890 1006 l 890 0 l 140 0 l 140 1006 l 42 1006 l 42 1075 l 469 1075 l 181 69 l 850 69 l 561 1075 l 972 1075 z "},"Ú":{"ha":1014,"x_min":42,"x_max":972,"o":"m 450 1299 l 735 1299 l 450 1100 l 450 1299 m 972 1075 l 972 1006 l 890 1006 l 890 0 l 142 0 l 142 1006 l 42 1006 l 42 1075 l 469 1076 l 182 69 l 850 69 l 561 1076 l 972 1075 z "},"Ŭ":{"ha":1014,"x_min":42,"x_max":972,"o":"m 676 1365 l 782 1365 l 635 1140 l 378 1140 l 231 1365 l 338 1365 l 425 1225 l 589 1225 l 676 1365 m 972 1075 l 972 1006 l 889 1006 l 889 0 l 140 0 l 140 1006 l 42 1006 l 42 1075 l 469 1075 l 181 69 l 850 69 l 561 1075 l 972 1075 z "},"Û":{"ha":1014,"x_min":42,"x_max":972,"o":"m 507 1321 l 761 1117 l 507 1178 l 254 1117 l 507 1321 m 972 1075 l 972 1006 l 890 1006 l 890 0 l 142 0 l 142 1006 l 42 1006 l 42 1075 l 469 1076 l 182 69 l 850 69 l 563 1076 l 972 1075 z "},"Ȕ":{"ha":1014,"x_min":42,"x_max":972,"o":"m 722 1300 l 736 1101 l 451 1300 l 722 1300 m 408 1300 l 422 1101 l 138 1300 l 408 1300 m 972 1075 l 972 1006 l 890 1006 l 890 0 l 140 0 l 140 1006 l 42 1006 l 42 1075 l 469 1076 l 181 69 l 850 69 l 561 1076 l 972 1075 z "},"Ü":{"ha":1014,"x_min":42,"x_max":972,"o":"m 274 1319 l 447 1319 l 447 1146 l 274 1146 l 274 1319 m 567 1319 l 742 1319 l 742 1146 l 567 1146 l 567 1319 m 972 1075 l 972 1006 l 890 1006 l 890 0 l 140 0 l 140 1006 l 42 1006 l 42 1075 l 469 1076 l 181 69 l 850 69 l 561 1076 l 972 1075 z "},"Ụ":{"ha":1014,"x_min":42,"x_max":972,"o":"m 972 1075 l 972 1004 l 890 1004 l 890 0 l 140 0 l 140 1004 l 42 1004 l 42 1075 l 469 1075 l 181 69 l 850 69 l 561 1075 l 972 1075 m 419 -54 l 593 -54 l 593 -228 l 419 -228 l 419 -54 z "},"Ù":{"ha":1014,"x_min":42,"x_max":972,"o":"m 607 1299 l 607 1100 l 322 1299 l 607 1299 m 972 1075 l 972 1006 l 889 1006 l 889 0 l 140 0 l 140 1006 l 42 1006 l 42 1075 l 469 1076 l 181 69 l 849 69 l 561 1076 l 972 1075 z "},"Ủ":{"ha":1014,"x_min":42,"x_max":972,"o":"m 479 1243 l 608 1243 l 608 1304 l 375 1304 l 538 1419 l 674 1335 l 674 1218 l 543 1165 l 543 1106 l 479 1106 l 479 1243 m 972 1075 l 972 1006 l 890 1006 l 890 0 l 140 0 l 140 1006 l 42 1006 l 42 1075 l 469 1075 l 181 69 l 850 69 l 561 1075 l 972 1075 z "},"Ư":{"ha":1139,"x_min":42,"x_max":1097,"o":"m 1097 1125 l 1097 851 l 889 851 l 889 0 l 140 0 l 140 1006 l 42 1006 l 42 1075 l 468 1076 l 181 69 l 849 69 l 561 1076 l 889 1075 l 889 949 l 985 949 l 1097 1125 z "},"Ứ":{"ha":1140,"x_min":42,"x_max":1099,"o":"m 415 1300 l 686 1300 l 401 1101 l 415 1300 m 1099 1125 l 1099 851 l 889 851 l 889 0 l 140 0 l 140 1006 l 42 1006 l 42 1075 l 468 1076 l 181 69 l 849 69 l 561 1076 l 889 1075 l 889 949 l 985 949 l 1099 1125 z "},"Ự":{"ha":1140,"x_min":42,"x_max":1099,"o":"m 1099 1124 l 1099 850 l 890 850 l 890 0 l 140 0 l 140 1004 l 42 1004 l 42 1075 l 469 1075 l 181 69 l 850 69 l 561 1075 l 890 1075 l 890 947 l 985 947 l 1099 1124 m 414 -228 l 414 -54 l 589 -54 l 589 -228 l 414 -228 z "},"Ừ":{"ha":1140,"x_min":42,"x_max":1099,"o":"m 601 1300 l 615 1101 l 332 1300 l 601 1300 m 1099 1125 l 1099 851 l 890 851 l 890 0 l 140 0 l 140 1006 l 42 1006 l 42 1075 l 469 1076 l 181 69 l 850 69 l 561 1076 l 890 1075 l 890 949 l 985 949 l 1099 1125 z "},"Ử":{"ha":1140,"x_min":42,"x_max":1099,"o":"m 603 1243 l 603 1304 l 371 1304 l 533 1419 l 669 1335 l 669 1218 l 538 1165 l 538 1106 l 474 1106 l 474 1243 l 603 1243 m 1099 1125 l 1099 850 l 890 850 l 890 0 l 142 0 l 142 1006 l 42 1006 l 42 1075 l 469 1075 l 181 69 l 850 69 l 561 1075 l 890 1075 l 890 947 l 986 947 l 1099 1125 z "},"Ữ":{"ha":1140,"x_min":42,"x_max":1099,"o":"m 835 1318 l 540 1108 l 535 1178 l 299 1110 l 600 1324 l 606 1258 l 835 1318 m 985 949 l 1099 1125 l 1099 851 l 890 851 l 890 0 l 140 0 l 140 1006 l 42 1006 l 42 1075 l 469 1076 l 181 69 l 850 69 l 561 1076 l 890 1075 l 890 949 l 985 949 z "},"Ű":{"ha":1014,"x_min":42,"x_max":972,"o":"m 301 1299 l 571 1299 l 288 1100 l 301 1299 m 615 1299 l 886 1299 l 601 1100 l 615 1299 m 972 1075 l 972 1006 l 890 1006 l 890 0 l 142 0 l 142 1006 l 42 1006 l 42 1075 l 469 1075 l 182 69 l 850 69 l 563 1075 l 972 1075 z "},"Ȗ":{"ha":1014,"x_min":42,"x_max":972,"o":"m 675 1140 l 589 1281 l 425 1281 l 338 1140 l 231 1140 l 378 1365 l 635 1365 l 782 1140 l 675 1140 m 972 1075 l 972 1006 l 889 1006 l 889 0 l 140 0 l 140 1006 l 42 1006 l 42 1075 l 468 1076 l 181 69 l 849 69 l 561 1076 l 972 1075 z "},"Ū":{"ha":1014,"x_min":42,"x_max":972,"o":"m 197 1296 l 807 1296 l 765 1242 l 308 1158 l 197 1296 m 972 1075 l 972 1006 l 890 1006 l 890 0 l 140 0 l 140 1006 l 42 1006 l 42 1075 l 469 1075 l 181 69 l 850 69 l 561 1075 l 972 1075 z "},"Ų":{"ha":1014,"x_min":42,"x_max":972,"o":"m 561 1075 l 972 1075 l 972 1006 l 890 1006 l 890 0 l 553 0 l 515 -151 l 697 -151 l 399 -312 l 468 0 l 140 0 l 140 1006 l 42 1006 l 42 1075 l 469 1075 l 181 69 l 850 69 l 561 1075 z "},"Ů":{"ha":1013,"x_min":42,"x_max":971,"o":"m 344 1365 l 668 1365 l 668 1131 l 344 1131 l 344 1365 m 599 1200 l 599 1296 l 414 1296 l 414 1200 l 599 1200 m 971 1075 l 971 1006 l 889 1006 l 889 0 l 140 0 l 140 1006 l 42 1006 l 42 1075 l 468 1075 l 181 69 l 849 69 l 561 1075 l 971 1075 z "},"Ũ":{"ha":1014,"x_min":42,"x_max":972,"o":"m 810 1318 l 515 1108 l 510 1176 l 274 1108 l 575 1324 l 581 1258 l 810 1318 m 972 1075 l 972 1006 l 890 1006 l 890 0 l 140 0 l 140 1006 l 42 1006 l 42 1075 l 469 1075 l 181 69 l 850 69 l 561 1075 l 972 1075 z "},"V":{"ha":951,"x_min":42,"x_max":910,"o":"m 910 1075 l 601 0 l 350 0 l 42 1075 l 438 1075 l 438 1006 l 371 1006 l 371 69 l 581 69 l 581 1006 l 496 1006 l 496 1075 l 910 1075 z "},"W":{"ha":1531,"x_min":42,"x_max":1489,"o":"m 1489 1075 l 1181 0 l 349 0 l 42 1075 l 508 1075 l 508 1006 l 369 1006 l 369 69 l 726 69 l 600 1075 l 929 1075 l 767 69 l 1160 69 l 1160 1006 l 1021 1006 l 1021 1075 l 1489 1075 z "},"Ẃ":{"ha":1531,"x_min":42,"x_max":1489,"o":"m 688 1300 l 958 1300 l 674 1101 l 688 1300 m 1489 1076 l 1181 0 l 350 0 l 42 1076 l 510 1075 l 510 1006 l 371 1006 l 371 69 l 728 69 l 601 1076 l 931 1076 l 768 69 l 1161 69 l 1161 1006 l 1022 1006 l 1022 1075 l 1489 1076 z "},"Ŵ":{"ha":1531,"x_min":42,"x_max":1489,"o":"m 765 1321 l 1018 1117 l 765 1179 l 513 1117 l 765 1321 m 1489 1075 l 1181 0 l 350 0 l 42 1075 l 510 1075 l 510 1006 l 371 1006 l 371 69 l 728 69 l 601 1075 l 929 1075 l 768 69 l 1161 69 l 1161 1006 l 1022 1006 l 1022 1075 l 1489 1075 z "},"Ẅ":{"ha":1532,"x_min":42,"x_max":1490,"o":"m 532 1321 l 706 1321 l 706 1147 l 532 1147 l 532 1321 m 826 1321 l 1000 1321 l 1000 1147 l 826 1147 l 826 1321 m 1490 1075 l 1182 0 l 350 0 l 42 1075 l 510 1075 l 510 1006 l 371 1006 l 371 69 l 728 69 l 601 1075 l 931 1075 l 768 69 l 1161 69 l 1161 1006 l 1022 1006 l 1022 1075 l 1490 1075 z "},"Ẁ":{"ha":1531,"x_min":42,"x_max":1489,"o":"m 850 1300 l 864 1101 l 579 1300 l 850 1300 m 1489 1076 l 1181 0 l 349 0 l 42 1076 l 508 1075 l 508 1006 l 369 1006 l 369 69 l 726 69 l 600 1076 l 929 1076 l 767 69 l 1160 69 l 1160 1006 l 1021 1006 l 1021 1075 l 1489 1076 z "},"X":{"ha":939,"x_min":42,"x_max":897,"o":"m 897 0 l 508 0 l 508 522 l 190 69 l 288 69 l 288 0 l 42 0 l 42 69 l 156 69 l 400 615 l 54 1075 l 428 1075 l 428 679 l 575 1006 l 526 1006 l 526 1075 l 894 1075 l 525 547 l 897 0 z "},"Y":{"ha":960,"x_min":42,"x_max":918,"o":"m 625 563 l 485 69 l 593 69 l 593 0 l 339 0 l 339 69 l 436 69 l 336 553 l 42 1075 l 433 1075 l 433 1006 l 339 1006 l 339 564 l 619 564 l 619 1006 l 519 1006 l 519 1075 l 918 1075 l 625 563 z "},"Ý":{"ha":960,"x_min":42,"x_max":918,"o":"m 411 1299 l 696 1299 l 411 1100 l 411 1299 m 625 563 l 485 69 l 593 69 l 593 0 l 339 0 l 339 69 l 436 69 l 336 553 l 42 1076 l 433 1075 l 433 1006 l 339 1006 l 339 564 l 619 564 l 619 1006 l 519 1006 l 519 1075 l 918 1076 l 625 563 z "},"Ŷ":{"ha":960,"x_min":42,"x_max":918,"o":"m 481 1321 l 733 1117 l 481 1179 l 226 1117 l 481 1321 m 624 563 l 485 69 l 592 69 l 592 0 l 339 0 l 339 69 l 436 69 l 336 553 l 42 1075 l 433 1075 l 433 1006 l 339 1006 l 339 563 l 619 563 l 619 1006 l 519 1006 l 519 1075 l 918 1075 l 624 563 z "},"Ÿ":{"ha":960,"x_min":42,"x_max":918,"o":"m 246 1321 l 421 1321 l 421 1147 l 246 1147 l 246 1321 m 540 1321 l 714 1321 l 714 1147 l 540 1147 l 540 1321 m 625 563 l 485 69 l 593 69 l 593 0 l 340 0 l 340 69 l 436 69 l 336 553 l 42 1075 l 435 1075 l 435 1006 l 340 1006 l 340 563 l 619 563 l 619 1006 l 519 1006 l 519 1075 l 918 1075 l 625 563 z "},"Ỵ":{"ha":960,"x_min":42,"x_max":918,"o":"m 625 561 l 485 69 l 592 69 l 592 0 l 339 0 l 339 69 l 436 69 l 336 551 l 42 1075 l 433 1075 l 433 1004 l 339 1004 l 339 563 l 619 563 l 619 1004 l 519 1004 l 519 1075 l 918 1075 l 625 561 m 393 -54 l 567 -54 l 567 -228 l 393 -228 l 393 -54 z "},"Ỳ":{"ha":960,"x_min":42,"x_max":918,"o":"m 572 1300 l 586 1101 l 301 1300 l 572 1300 m 625 563 l 485 69 l 592 69 l 592 0 l 339 0 l 339 69 l 436 69 l 336 553 l 42 1076 l 433 1075 l 433 1006 l 339 1006 l 339 564 l 619 564 l 619 1006 l 519 1006 l 519 1075 l 918 1076 l 625 563 z "},"Ỷ":{"ha":960,"x_min":42,"x_max":918,"o":"m 446 1243 l 575 1243 l 575 1304 l 343 1304 l 506 1419 l 642 1335 l 642 1218 l 510 1165 l 510 1106 l 446 1106 l 446 1243 m 624 563 l 485 69 l 592 69 l 592 0 l 339 0 l 339 69 l 436 69 l 336 553 l 42 1075 l 433 1075 l 433 1006 l 339 1006 l 339 564 l 619 564 l 619 1006 l 519 1006 l 519 1075 l 918 1075 l 624 563 z "},"Ȳ":{"ha":960,"x_min":42,"x_max":918,"o":"m 150 1297 l 760 1297 l 718 1242 l 261 1158 l 150 1297 m 624 563 l 483 69 l 592 69 l 592 0 l 339 0 l 339 69 l 435 69 l 335 553 l 42 1075 l 433 1075 l 433 1006 l 339 1006 l 339 564 l 618 564 l 618 1006 l 519 1006 l 519 1075 l 918 1075 l 624 563 z "},"Ỹ":{"ha":960,"x_min":42,"x_max":918,"o":"m 792 1318 l 496 1108 l 492 1178 l 256 1110 l 556 1324 l 561 1258 l 792 1318 m 624 563 l 483 69 l 592 69 l 592 0 l 339 0 l 339 69 l 435 69 l 335 553 l 42 1076 l 433 1075 l 433 1006 l 339 1006 l 339 564 l 618 564 l 618 1006 l 519 1006 l 519 1075 l 918 1076 l 624 563 z "},"Z":{"ha":826,"x_min":42,"x_max":785,"o":"m 436 69 l 522 69 l 717 318 l 717 -31 l 661 -31 l 661 0 l 46 0 l 436 606 l 436 1006 l 236 1006 l 42 758 l 42 1111 l 97 1111 l 97 1075 l 785 1075 l 436 599 l 436 69 z "},"Ź":{"ha":825,"x_min":42,"x_max":783,"o":"m 317 1299 l 588 1299 l 303 1100 l 317 1299 m 435 69 l 522 69 l 717 317 l 717 -31 l 661 -31 l 661 0 l 46 0 l 435 606 l 435 1006 l 235 1006 l 42 758 l 42 1111 l 97 1111 l 97 1075 l 783 1075 l 435 599 l 435 69 z "},"Ž":{"ha":826,"x_min":42,"x_max":785,"o":"m 399 1117 l 146 1321 l 399 1260 l 651 1321 l 399 1117 m 435 69 l 522 69 l 717 317 l 717 -31 l 661 -31 l 661 0 l 46 0 l 435 606 l 435 1006 l 235 1006 l 42 758 l 42 1111 l 97 1111 l 97 1075 l 785 1075 l 435 599 l 435 69 z "},"Ż":{"ha":825,"x_min":42,"x_max":783,"o":"m 290 1321 l 464 1321 l 464 1147 l 290 1147 l 290 1321 m 435 69 l 522 69 l 717 317 l 717 -31 l 661 -31 l 661 0 l 46 0 l 435 606 l 435 1006 l 235 1006 l 42 758 l 42 1111 l 97 1111 l 97 1075 l 783 1075 l 435 599 l 435 69 z "},"Ａ":{"ha":1389,"x_min":172,"x_max":1218,"o":"m 1218 69 l 1218 0 l 965 0 l 965 69 l 1081 69 l 883 458 l 476 458 l 315 69 l 425 69 l 425 0 l 172 0 l 172 69 l 285 69 l 475 1006 l 368 1006 l 368 1075 l 881 1075 l 1118 69 l 1218 69 m 506 528 l 847 528 l 660 897 l 506 528 z "},"Ｂ":{"ha":1389,"x_min":219,"x_max":1206,"o":"m 1206 317 l 915 0 l 219 0 l 219 69 l 301 69 l 301 1006 l 219 1006 l 219 1075 l 874 1075 l 1101 825 l 903 600 l 1206 317 m 610 1006 l 493 600 l 832 600 l 832 1006 l 610 1006 m 474 531 l 342 69 l 889 69 l 889 531 l 474 531 z "},"Ｃ":{"ha":1389,"x_min":201,"x_max":1117,"o":"m 922 1006 l 526 1006 l 526 69 l 1117 69 l 1117 0 l 508 0 l 201 568 l 508 1075 l 1060 1075 l 1060 1111 l 1115 1111 l 1117 758 l 922 1006 z "},"Ｄ":{"ha":1389,"x_min":207,"x_max":1256,"o":"m 1256 568 l 947 0 l 207 0 l 207 69 l 275 69 l 275 1006 l 207 1006 l 207 1075 l 947 1075 l 1256 568 m 315 69 l 929 69 l 929 1006 l 583 1006 l 315 69 z "},"Ｅ":{"ha":1389,"x_min":303,"x_max":1081,"o":"m 686 1006 l 571 600 l 972 600 l 972 669 l 1028 669 l 1028 461 l 972 461 l 972 531 l 550 531 l 418 69 l 886 69 l 1079 318 l 1081 -33 l 1025 -33 l 1025 0 l 303 0 l 303 69 l 378 69 l 378 1006 l 321 1006 l 321 1075 l 1025 1075 l 1025 1111 l 1081 1111 l 1079 758 l 886 1006 l 686 1006 z "},"Ｆ":{"ha":1389,"x_min":335,"x_max":1122,"o":"m 744 1006 l 628 600 l 974 600 l 974 669 l 1029 669 l 1029 461 l 974 461 l 974 531 l 608 531 l 476 69 l 581 69 l 581 0 l 335 0 l 335 69 l 436 69 l 436 1006 l 364 1006 l 364 1075 l 1067 1075 l 1067 1111 l 1122 1111 l 1122 758 l 929 1006 l 744 1006 z "},"Ｇ":{"ha":1389,"x_min":179,"x_max":1208,"o":"m 1208 571 l 929 0 l 488 0 l 179 568 l 488 1075 l 1057 1075 l 1057 1113 l 1113 1113 l 1113 758 l 919 1006 l 508 1006 l 508 69 l 910 69 l 910 571 l 1208 571 z "},"Ｈ":{"ha":1389,"x_min":208,"x_max":1182,"o":"m 1182 69 l 1182 0 l 929 0 l 929 69 l 1022 69 l 888 539 l 488 539 l 353 69 l 461 69 l 461 0 l 208 0 l 208 69 l 313 69 l 313 1006 l 239 1006 l 239 1075 l 642 1075 l 508 608 l 868 608 l 733 1075 l 1131 1075 l 1131 1006 l 1063 1006 l 1063 69 l 1182 69 z "},"Ｉ":{"ha":1389,"x_min":493,"x_max":894,"o":"m 894 1075 l 613 225 l 856 0 l 571 0 l 571 1006 l 493 1006 l 493 1075 l 894 1075 z "},"Ｊ":{"ha":1389,"x_min":468,"x_max":919,"o":"m 919 1075 l 919 1006 l 831 1006 l 831 0 l 468 0 l 468 215 l 635 19 l 793 215 l 508 1075 l 919 1075 z "},"Ｋ":{"ha":1389,"x_min":229,"x_max":1158,"o":"m 1065 69 l 1158 69 l 1158 0 l 906 0 l 906 69 l 1038 69 l 804 539 l 508 539 l 374 69 l 482 69 l 482 0 l 229 0 l 229 69 l 333 69 l 333 1006 l 260 1006 l 260 1075 l 663 1075 l 528 608 l 806 608 l 806 1006 l 747 1006 l 747 1075 l 1135 1075 l 826 606 l 1065 606 l 1065 69 z "},"Ｌ":{"ha":1389,"x_min":354,"x_max":1067,"o":"m 872 69 l 1067 318 l 1067 -32 l 1011 -32 l 1011 0 l 354 0 l 354 69 l 449 69 l 449 1006 l 354 1006 l 354 1075 l 778 1075 l 489 69 l 872 69 z "},"Ｍ":{"ha":1389,"x_min":32,"x_max":1357,"o":"m 1357 69 l 1357 0 l 1111 0 l 1111 69 l 1222 69 l 954 1006 l 858 1006 l 708 69 l 814 69 l 814 0 l 568 0 l 568 69 l 668 69 l 550 1006 l 458 1006 l 190 69 l 314 69 l 314 0 l 67 0 l 67 69 l 150 69 l 150 1006 l 32 1006 l 32 1075 l 1263 1075 l 1263 69 l 1357 69 z "},"Ｎ":{"ha":1389,"x_min":231,"x_max":1160,"o":"m 478 1006 l 383 1006 l 744 0 l 251 0 l 251 69 l 344 69 l 344 1006 l 231 1006 l 231 1075 l 478 1075 l 478 1006 m 1042 69 l 1160 69 l 1160 0 l 907 0 l 907 69 l 1003 69 l 618 1075 l 1131 1075 l 1131 1006 l 1042 1006 l 1042 69 z "},"Ｏ":{"ha":1389,"x_min":147,"x_max":1240,"o":"m 1240 568 l 940 0 l 446 0 l 147 568 l 444 1075 l 942 1075 l 1240 568 m 456 69 l 932 69 l 932 1006 l 456 1006 l 456 69 z "},"Ｐ":{"ha":1389,"x_min":215,"x_max":1232,"o":"m 1232 792 l 949 483 l 482 483 l 364 69 l 461 69 l 461 0 l 215 0 l 215 69 l 324 69 l 324 1006 l 239 1006 l 239 1075 l 939 1075 l 1232 792 m 503 553 l 924 553 l 924 1006 l 632 1006 l 503 553 z "},"Ｑ":{"ha":1389,"x_min":147,"x_max":1240,"o":"m 1240 568 l 940 0 l 446 0 l 147 568 l 444 1075 l 942 1075 l 1240 568 m 774 69 l 932 69 l 932 1006 l 456 1006 l 456 69 l 551 69 l 551 275 l 774 69 z "},"Ｒ":{"ha":1389,"x_min":200,"x_max":1200,"o":"m 1108 69 l 1200 69 l 1200 0 l 953 0 l 953 69 l 1079 69 l 872 483 l 471 483 l 353 69 l 446 69 l 446 0 l 200 0 l 200 69 l 313 69 l 313 1006 l 236 1006 l 236 1075 l 899 1075 l 1192 808 l 933 546 l 1108 546 l 1108 69 m 621 1006 l 490 553 l 883 553 l 883 1006 l 621 1006 z "},"Ｓ":{"ha":1389,"x_min":206,"x_max":1185,"o":"m 1185 325 l 892 0 l 347 0 l 347 -31 l 292 -31 l 292 318 l 486 69 l 875 69 l 875 531 l 503 531 l 206 825 l 486 1075 l 969 1075 l 969 1111 l 1025 1111 l 1025 758 l 831 1006 l 514 1006 l 514 600 l 889 600 l 1185 325 z "},"Ｔ":{"ha":1389,"x_min":276,"x_max":1114,"o":"m 1058 1111 l 1114 1111 l 1114 758 l 921 1006 l 854 1006 l 697 69 l 800 69 l 800 0 l 547 0 l 547 69 l 657 69 l 546 1006 l 471 1006 l 276 758 l 276 1111 l 333 1111 l 333 1075 l 1058 1075 l 1058 1111 z "},"Ｕ":{"ha":1389,"x_min":229,"x_max":1160,"o":"m 1160 1075 l 1160 1006 l 1078 1006 l 1078 0 l 328 0 l 328 1006 l 229 1006 l 229 1075 l 657 1075 l 368 69 l 1038 69 l 749 1075 l 1160 1075 z "},"Ｖ":{"ha":1389,"x_min":260,"x_max":1128,"o":"m 1128 1075 l 819 0 l 568 0 l 260 1075 l 656 1075 l 656 1006 l 589 1006 l 589 69 l 799 69 l 799 1006 l 714 1006 l 714 1075 l 1128 1075 z "},"Ｗ":{"ha":1389,"x_min":40,"x_max":1349,"o":"m 1349 1075 l 1138 0 l 250 0 l 40 1075 l 438 1075 l 438 1006 l 326 1006 l 326 69 l 656 69 l 529 1075 l 858 1075 l 696 69 l 1061 69 l 1061 1006 l 950 1006 l 950 1075 l 1349 1075 z "},"Ｘ":{"ha":1389,"x_min":267,"x_max":1122,"o":"m 1122 0 l 733 0 l 733 522 l 415 69 l 513 69 l 513 0 l 267 0 l 267 69 l 381 69 l 625 615 l 279 1075 l 653 1075 l 653 679 l 800 1006 l 751 1006 l 751 1075 l 1119 1075 l 750 547 l 1122 0 z "},"Ｙ":{"ha":1389,"x_min":256,"x_max":1132,"o":"m 839 563 l 699 69 l 807 69 l 807 0 l 553 0 l 553 69 l 650 69 l 550 553 l 256 1075 l 647 1075 l 647 1006 l 553 1006 l 553 564 l 833 564 l 833 1006 l 733 1006 l 733 1075 l 1132 1075 l 839 563 z "},"Ｚ":{"ha":1389,"x_min":324,"x_max":1067,"o":"m 718 69 l 804 69 l 999 318 l 999 -31 l 943 -31 l 943 0 l 328 0 l 718 606 l 718 1006 l 518 1006 l 324 758 l 324 1111 l 379 1111 l 379 1075 l 1067 1075 l 718 599 l 718 69 z "},"a":{"ha":922,"x_min":56,"x_max":867,"o":"m 867 -1 l 265 0 l 56 253 l 282 471 l 282 69 l 564 69 l 564 606 l 276 606 l 68 419 l 68 675 l 588 675 l 867 -1 z "},"á":{"ha":921,"x_min":56,"x_max":865,"o":"m 253 978 l 522 978 l 239 779 l 253 978 m 865 0 l 264 0 l 56 253 l 281 472 l 281 69 l 563 69 l 563 606 l 275 606 l 68 421 l 68 675 l 588 675 l 865 0 z "},"ă":{"ha":921,"x_min":56,"x_max":865,"o":"m 594 1044 l 700 1044 l 553 819 l 297 819 l 150 1044 l 256 1044 l 343 906 l 507 906 l 594 1044 m 865 0 l 264 0 l 56 253 l 281 472 l 281 69 l 563 69 l 563 607 l 275 607 l 68 421 l 68 676 l 588 676 l 865 0 z "},"ắ":{"ha":921,"x_min":56,"x_max":865,"o":"m 340 1176 l 610 1176 l 326 978 l 340 1176 m 569 1044 l 675 1044 l 528 819 l 271 819 l 124 1044 l 231 1044 l 318 906 l 482 906 l 569 1044 m 865 0 l 264 0 l 56 253 l 281 472 l 281 69 l 563 69 l 563 607 l 275 607 l 68 421 l 68 676 l 588 676 l 865 0 z "},"ặ":{"ha":921,"x_min":56,"x_max":865,"o":"m 568 1044 l 675 1044 l 528 818 l 271 818 l 124 1044 l 231 1044 l 318 904 l 482 904 l 568 1044 m 865 -1 l 264 0 l 56 253 l 281 471 l 281 69 l 563 69 l 563 606 l 275 606 l 68 419 l 68 675 l 588 675 l 865 -1 m 333 -54 l 507 -54 l 507 -228 l 333 -228 l 333 -54 z "},"ằ":{"ha":921,"x_min":56,"x_max":865,"o":"m 446 1176 l 460 978 l 176 1176 l 446 1176 m 571 1044 l 678 1044 l 531 818 l 274 818 l 126 1044 l 232 1044 l 319 904 l 483 904 l 571 1044 m 865 -1 l 264 0 l 56 253 l 281 471 l 281 69 l 563 69 l 563 606 l 275 606 l 68 419 l 68 675 l 588 675 l 865 -1 z "},"ẳ":{"ha":921,"x_min":56,"x_max":865,"o":"m 306 1056 l 435 1056 l 435 1117 l 203 1117 l 365 1233 l 501 1149 l 501 1032 l 371 979 l 371 931 l 306 931 l 306 1056 m 543 1044 l 650 1044 l 503 818 l 246 818 l 99 1044 l 204 1044 l 292 904 l 456 904 l 543 1044 m 865 -1 l 264 0 l 56 253 l 281 471 l 281 69 l 563 69 l 563 606 l 275 606 l 68 419 l 68 675 l 588 675 l 865 -1 z "},"ẵ":{"ha":921,"x_min":56,"x_max":865,"o":"m 490 818 l 233 818 l 86 1044 l 193 1044 l 203 1028 l 438 1194 l 442 1131 l 672 1190 l 378 979 l 372 1049 l 218 1004 l 281 904 l 444 904 l 532 1044 l 638 1044 l 490 818 m 588 675 l 865 -1 l 264 0 l 56 253 l 281 471 l 281 69 l 563 69 l 563 606 l 275 606 l 68 419 l 68 675 l 588 675 z "},"â":{"ha":921,"x_min":56,"x_max":865,"o":"m 376 1000 l 631 796 l 376 858 l 124 796 l 376 1000 m 865 0 l 265 0 l 56 253 l 282 472 l 282 69 l 564 69 l 564 606 l 276 606 l 68 421 l 68 675 l 588 675 l 865 0 z "},"ấ":{"ha":921,"x_min":56,"x_max":865,"o":"m 275 1176 l 546 1176 l 261 978 l 275 1176 m 376 1001 l 629 797 l 376 858 l 124 797 l 376 1001 m 865 0 l 264 0 l 56 253 l 281 472 l 281 69 l 563 69 l 563 607 l 275 607 l 68 421 l 68 676 l 588 676 l 865 0 z "},"ậ":{"ha":921,"x_min":56,"x_max":865,"o":"m 403 1001 l 656 797 l 403 858 l 149 797 l 403 1001 m 865 0 l 265 0 l 56 253 l 282 472 l 282 69 l 564 69 l 564 607 l 276 607 l 68 421 l 68 676 l 588 676 l 865 0 m 332 -54 l 506 -54 l 506 -228 l 332 -228 l 332 -54 z "},"ầ":{"ha":921,"x_min":56,"x_max":865,"o":"m 472 1176 l 486 978 l 201 1176 l 472 1176 m 369 1001 l 622 797 l 369 858 l 117 797 l 369 1001 m 865 0 l 264 0 l 56 253 l 281 472 l 281 69 l 563 69 l 563 607 l 275 607 l 68 421 l 68 676 l 588 676 l 865 0 z "},"ẩ":{"ha":921,"x_min":56,"x_max":865,"o":"m 496 1011 l 625 1011 l 625 1072 l 393 1072 l 556 1189 l 692 1104 l 692 988 l 560 933 l 560 886 l 496 886 l 496 1011 m 339 1001 l 593 797 l 339 858 l 86 797 l 339 1001 m 865 0 l 264 0 l 56 253 l 281 472 l 281 69 l 563 69 l 563 607 l 275 607 l 68 421 l 68 676 l 588 676 l 865 0 z "},"ẫ":{"ha":922,"x_min":56,"x_max":867,"o":"m 679 1190 l 385 981 l 381 1050 l 144 982 l 444 1196 l 450 1131 l 679 1190 m 340 1001 l 593 797 l 340 858 l 88 797 l 340 1001 m 867 0 l 265 0 l 56 253 l 282 472 l 282 69 l 564 69 l 564 607 l 276 607 l 68 421 l 68 676 l 588 676 l 867 0 z "},"ȁ":{"ha":971,"x_min":56,"x_max":915,"o":"m 640 979 l 654 781 l 371 979 l 640 979 m 326 979 l 340 781 l 56 979 l 326 979 m 915 0 l 314 0 l 106 253 l 331 472 l 331 69 l 613 69 l 613 607 l 325 607 l 118 421 l 118 676 l 638 676 l 915 0 z "},"ä":{"ha":921,"x_min":56,"x_max":865,"o":"m 115 1000 l 289 1000 l 289 826 l 115 826 l 115 1000 m 410 1000 l 583 1000 l 583 826 l 410 826 l 410 1000 m 865 0 l 264 0 l 56 253 l 281 472 l 281 69 l 563 69 l 563 606 l 275 606 l 68 421 l 68 675 l 588 675 l 865 0 z "},"ạ":{"ha":921,"x_min":56,"x_max":865,"o":"m 865 0 l 265 0 l 56 253 l 282 472 l 282 69 l 564 69 l 564 607 l 276 607 l 68 421 l 68 676 l 588 676 l 865 0 m 333 -54 l 508 -54 l 508 -228 l 333 -228 l 333 -54 z "},"à":{"ha":921,"x_min":56,"x_max":865,"o":"m 465 978 l 479 779 l 194 978 l 465 978 m 865 0 l 265 0 l 56 253 l 282 472 l 282 69 l 564 69 l 564 606 l 276 606 l 68 421 l 68 675 l 588 675 l 865 0 z "},"ả":{"ha":921,"x_min":56,"x_max":865,"o":"m 336 849 l 465 849 l 465 910 l 233 910 l 396 1026 l 532 940 l 532 825 l 400 771 l 400 711 l 336 711 l 336 849 m 865 0 l 264 0 l 56 253 l 281 472 l 281 69 l 563 69 l 563 607 l 275 607 l 68 421 l 68 676 l 588 676 l 865 0 z "},"ȃ":{"ha":922,"x_min":56,"x_max":867,"o":"m 547 819 l 461 960 l 297 960 l 210 819 l 103 819 l 250 1044 l 507 1044 l 654 819 l 547 819 m 867 0 l 265 0 l 56 253 l 282 472 l 282 69 l 564 69 l 564 607 l 276 607 l 69 421 l 69 676 l 588 676 l 867 0 z "},"ā":{"ha":924,"x_min":56,"x_max":868,"o":"m 56 976 l 667 976 l 625 921 l 168 838 l 56 976 m 868 0 l 268 0 l 58 253 l 285 472 l 285 69 l 567 69 l 567 607 l 279 607 l 71 421 l 71 676 l 590 676 l 868 0 z "},"ą":{"ha":1065,"x_min":56,"x_max":1010,"o":"m 1010 -150 l 711 -312 l 781 0 l 265 0 l 56 253 l 282 472 l 282 69 l 564 69 l 564 607 l 276 607 l 68 421 l 68 676 l 588 676 l 865 0 l 826 -150 l 1010 -150 z "},"å":{"ha":921,"x_min":56,"x_max":865,"o":"m 206 1044 l 529 1044 l 529 810 l 206 810 l 206 1044 m 460 879 l 460 975 l 275 975 l 275 879 l 460 879 m 865 0 l 264 0 l 56 253 l 281 472 l 281 69 l 563 69 l 563 606 l 275 606 l 68 421 l 68 675 l 588 675 l 865 0 z "},"ǻ":{"ha":921,"x_min":56,"x_max":865,"o":"m 294 1265 l 565 1265 l 281 1067 l 294 1265 m 206 1044 l 528 1044 l 528 810 l 206 810 l 206 1044 m 458 879 l 458 975 l 275 975 l 275 879 l 458 879 m 865 0 l 264 0 l 56 253 l 281 472 l 281 69 l 563 69 l 563 607 l 275 607 l 68 421 l 68 676 l 588 676 l 865 0 z "},"ã":{"ha":921,"x_min":56,"x_max":865,"o":"m 671 997 l 376 788 l 371 856 l 135 788 l 436 1003 l 440 938 l 671 997 m 865 0 l 265 0 l 56 253 l 282 472 l 282 69 l 564 69 l 564 606 l 276 606 l 68 421 l 68 675 l 588 675 l 865 0 z "},"æ":{"ha":1300,"x_min":56,"x_max":1244,"o":"m 1128 256 l 1128 0 l 265 0 l 56 253 l 282 472 l 282 69 l 518 69 l 518 606 l 276 606 l 69 421 l 69 675 l 543 675 l 610 494 l 672 675 l 1244 676 l 958 315 l 699 315 l 699 276 l 790 69 l 983 69 l 1128 256 m 950 606 l 699 606 l 699 385 l 950 385 l 950 606 z "},"ǽ":{"ha":1299,"x_min":56,"x_max":1243,"o":"m 525 979 l 796 979 l 511 781 l 525 979 m 1128 256 l 1128 0 l 264 0 l 56 253 l 281 472 l 281 69 l 518 69 l 518 607 l 275 607 l 68 421 l 68 676 l 542 676 l 610 494 l 672 675 l 1243 676 l 958 315 l 697 315 l 697 276 l 789 69 l 982 69 l 1128 256 m 949 607 l 697 607 l 697 385 l 949 385 l 949 607 z "},"b":{"ha":883,"x_min":56,"x_max":828,"o":"m 828 350 l 571 0 l 153 0 l 153 1004 l 56 1004 l 56 1074 l 481 1074 l 367 675 l 563 675 l 828 350 m 193 69 l 557 69 l 557 606 l 346 606 l 193 69 z "},"c":{"ha":786,"x_min":56,"x_max":731,"o":"m 585 606 l 326 606 l 326 69 l 728 69 l 728 0 l 311 0 l 56 350 l 319 675 l 731 675 l 731 419 l 585 606 z "},"ć":{"ha":786,"x_min":56,"x_max":731,"o":"m 386 979 l 656 979 l 372 781 l 386 979 m 585 607 l 326 607 l 326 69 l 728 69 l 728 0 l 311 0 l 56 351 l 319 676 l 731 676 l 731 421 l 585 607 z "},"č":{"ha":786,"x_min":56,"x_max":731,"o":"m 478 797 l 225 1001 l 478 939 l 731 1001 l 478 797 m 585 607 l 326 607 l 326 69 l 728 69 l 728 0 l 311 0 l 56 351 l 319 676 l 731 676 l 731 421 l 585 607 z "},"ç":{"ha":786,"x_min":56,"x_max":731,"o":"m 586 606 l 326 606 l 326 69 l 728 69 l 728 0 l 518 0 l 518 -28 l 689 -111 l 689 -212 l 543 -312 l 390 -196 l 622 -196 l 622 -136 l 454 -136 l 454 0 l 311 0 l 56 350 l 321 675 l 731 675 l 731 421 l 586 606 z "},"ĉ":{"ha":786,"x_min":56,"x_max":731,"o":"m 435 1001 l 688 797 l 435 858 l 182 797 l 435 1001 m 586 607 l 326 607 l 326 69 l 728 69 l 728 0 l 311 0 l 56 351 l 321 676 l 731 676 l 731 421 l 586 607 z "},"ċ":{"ha":786,"x_min":56,"x_max":731,"o":"m 382 1000 l 557 1000 l 557 826 l 382 826 l 382 1000 m 585 607 l 326 607 l 326 69 l 728 69 l 728 0 l 311 0 l 56 351 l 319 676 l 731 676 l 731 421 l 585 607 z "},"d":{"ha":892,"x_min":56,"x_max":836,"o":"m 836 1004 l 738 1004 l 738 69 l 836 69 l 836 0 l 311 0 l 56 350 l 319 675 l 524 675 l 408 1074 l 836 1074 l 836 1004 m 326 69 l 697 69 l 543 606 l 326 606 l 326 69 z "},"ð":{"ha":944,"x_min":56,"x_max":889,"o":"m 464 915 l 889 350 l 686 0 l 375 0 l 118 350 l 376 675 l 410 675 l 315 804 l 217 731 l 56 804 l 247 900 l 122 1074 l 344 1074 l 413 982 l 601 1076 l 589 1008 l 464 915 m 671 69 l 671 310 l 450 606 l 389 606 l 389 69 l 671 69 z "},"ď":{"ha":1047,"x_min":56,"x_max":992,"o":"m 836 1006 l 738 1006 l 738 69 l 836 69 l 836 0 l 311 0 l 56 351 l 319 676 l 524 676 l 408 1075 l 836 1075 l 836 1006 m 836 947 l 992 947 l 840 658 l 836 658 l 836 947 m 326 69 l 697 69 l 543 607 l 326 607 l 326 69 z "},"đ":{"ha":933,"x_min":56,"x_max":878,"o":"m 838 871 l 738 853 l 738 69 l 836 69 l 836 0 l 311 0 l 56 350 l 321 675 l 524 675 l 486 807 l 379 788 l 268 926 l 451 926 l 410 1074 l 836 1074 l 836 1004 l 738 1004 l 738 926 l 878 926 l 838 871 m 326 69 l 697 69 l 543 606 l 326 606 l 326 69 z "},"ǆ":{"ha":1496,"x_min":56,"x_max":1440,"o":"m 835 1004 l 738 1004 l 738 69 l 835 69 l 835 0 l 311 0 l 56 350 l 319 675 l 522 675 l 408 1074 l 835 1074 l 835 1004 m 1158 796 l 904 1000 l 1158 939 l 1411 1000 l 1158 796 m 1151 69 l 1271 69 l 1400 194 l 1400 -1 l 874 -1 l 1151 357 l 1151 606 l 1032 606 l 903 479 l 903 675 l 1440 675 l 1151 349 l 1151 69 m 326 69 l 697 69 l 543 606 l 326 606 l 326 69 z "},"e":{"ha":897,"x_min":56,"x_max":842,"o":"m 757 254 l 757 -1 l 311 0 l 56 350 l 319 675 l 842 675 l 575 347 l 326 347 l 326 69 l 611 69 l 757 254 m 567 606 l 326 606 l 326 417 l 567 417 l 567 606 z "},"é":{"ha":897,"x_min":56,"x_max":842,"o":"m 392 978 l 661 978 l 378 779 l 392 978 m 757 256 l 757 0 l 311 0 l 56 350 l 321 675 l 842 675 l 576 347 l 326 347 l 326 69 l 611 69 l 757 256 m 567 606 l 326 606 l 326 417 l 567 417 l 567 606 z "},"ĕ":{"ha":899,"x_min":56,"x_max":843,"o":"m 693 1044 l 799 1044 l 651 818 l 396 818 l 249 1044 l 354 1044 l 442 904 l 606 904 l 693 1044 m 757 254 l 757 -1 l 313 0 l 56 350 l 321 675 l 843 675 l 576 347 l 326 347 l 326 69 l 611 69 l 757 254 m 567 606 l 326 606 l 326 417 l 567 417 l 567 606 z "},"ě":{"ha":897,"x_min":56,"x_max":842,"o":"m 501 796 l 249 1000 l 501 939 l 756 1000 l 501 796 m 756 254 l 756 -1 l 311 0 l 56 350 l 319 675 l 842 675 l 575 347 l 326 347 l 326 69 l 611 69 l 756 254 m 565 606 l 326 606 l 326 417 l 565 417 l 565 606 z "},"ê":{"ha":897,"x_min":56,"x_max":842,"o":"m 449 1000 l 701 796 l 449 858 l 196 796 l 449 1000 m 757 256 l 757 0 l 311 0 l 56 350 l 321 675 l 842 675 l 576 347 l 326 347 l 326 69 l 611 69 l 757 256 m 567 606 l 326 606 l 326 417 l 567 417 l 567 606 z "},"ế":{"ha":897,"x_min":56,"x_max":842,"o":"m 357 1176 l 628 1176 l 343 978 l 357 1176 m 458 1000 l 711 796 l 458 858 l 206 796 l 458 1000 m 757 254 l 757 -1 l 311 0 l 56 350 l 321 675 l 842 675 l 576 347 l 326 347 l 326 69 l 611 69 l 757 254 m 567 606 l 326 606 l 326 417 l 567 417 l 567 606 z "},"ệ":{"ha":899,"x_min":56,"x_max":843,"o":"m 469 1000 l 722 797 l 469 858 l 217 797 l 469 1000 m 757 256 l 757 0 l 313 0 l 56 350 l 321 675 l 843 675 l 576 347 l 326 347 l 326 69 l 611 69 l 757 256 m 567 606 l 326 606 l 326 417 l 567 417 l 567 606 m 383 -54 l 557 -54 l 557 -228 l 383 -228 l 383 -54 z "},"ề":{"ha":897,"x_min":56,"x_max":842,"o":"m 579 1176 l 593 978 l 310 1176 l 579 1176 m 478 1000 l 731 797 l 478 858 l 225 797 l 478 1000 m 756 256 l 756 0 l 311 0 l 56 350 l 319 675 l 842 675 l 575 347 l 326 347 l 326 69 l 611 69 l 756 256 m 565 606 l 326 606 l 326 417 l 565 417 l 565 606 z "},"ể":{"ha":897,"x_min":56,"x_max":842,"o":"m 608 1011 l 738 1011 l 738 1072 l 506 1072 l 668 1188 l 804 1103 l 804 986 l 674 933 l 674 886 l 608 886 l 608 1011 m 453 1000 l 706 797 l 453 858 l 199 797 l 453 1000 m 757 256 l 757 0 l 311 0 l 56 350 l 319 675 l 842 675 l 575 347 l 326 347 l 326 69 l 611 69 l 757 256 m 567 606 l 326 606 l 326 417 l 567 417 l 567 606 z "},"ễ":{"ha":897,"x_min":56,"x_max":842,"o":"m 794 1190 l 500 981 l 494 1049 l 258 981 l 560 1196 l 565 1131 l 794 1190 m 454 1000 l 708 797 l 454 858 l 201 797 l 454 1000 m 757 256 l 757 0 l 311 0 l 56 350 l 319 675 l 842 675 l 575 347 l 326 347 l 326 69 l 611 69 l 757 256 m 567 606 l 326 606 l 326 417 l 567 417 l 567 606 z "},"ȅ":{"ha":899,"x_min":56,"x_max":843,"o":"m 419 979 l 433 781 l 149 979 l 419 979 m 733 979 l 747 781 l 464 979 l 733 979 m 757 256 l 757 0 l 311 0 l 56 351 l 321 676 l 843 676 l 576 349 l 326 349 l 326 69 l 611 69 l 757 256 m 567 607 l 326 607 l 326 418 l 567 418 l 567 607 z "},"ë":{"ha":899,"x_min":56,"x_max":843,"o":"m 215 1000 l 389 1000 l 389 826 l 215 826 l 215 1000 m 510 1000 l 683 1000 l 683 826 l 510 826 l 510 1000 m 757 256 l 757 0 l 313 0 l 56 350 l 321 675 l 843 675 l 576 347 l 326 347 l 326 69 l 611 69 l 757 256 m 567 606 l 326 606 l 326 417 l 567 417 l 567 606 z "},"ė":{"ha":899,"x_min":56,"x_max":843,"o":"m 411 1000 l 585 1000 l 585 826 l 411 826 l 411 1000 m 757 254 l 757 -1 l 311 0 l 56 350 l 321 675 l 843 675 l 576 347 l 326 347 l 326 69 l 611 69 l 757 254 m 567 606 l 326 606 l 326 417 l 567 417 l 567 606 z "},"ẹ":{"ha":897,"x_min":56,"x_max":842,"o":"m 757 254 l 757 -1 l 311 0 l 56 350 l 321 675 l 842 675 l 576 347 l 326 347 l 326 69 l 611 69 l 757 254 m 567 606 l 326 606 l 326 417 l 567 417 l 567 606 m 372 -54 l 546 -54 l 546 -228 l 372 -228 l 372 -54 z "},"è":{"ha":899,"x_min":56,"x_max":843,"o":"m 575 978 l 589 779 l 304 978 l 575 978 m 757 256 l 757 0 l 311 0 l 56 350 l 321 675 l 843 675 l 576 347 l 326 347 l 326 69 l 611 69 l 757 256 m 567 606 l 326 606 l 326 417 l 567 417 l 567 606 z "},"ẻ":{"ha":897,"x_min":56,"x_max":842,"o":"m 399 847 l 528 847 l 528 908 l 296 908 l 458 1025 l 594 940 l 594 824 l 464 771 l 464 710 l 399 710 l 399 847 m 757 254 l 757 -1 l 311 0 l 56 350 l 321 675 l 842 675 l 576 347 l 326 347 l 326 69 l 611 69 l 757 254 m 567 606 l 326 606 l 326 417 l 567 417 l 567 606 z "},"ȇ":{"ha":897,"x_min":56,"x_max":842,"o":"m 618 819 l 531 960 l 367 960 l 279 819 l 174 819 l 321 1044 l 576 1044 l 724 819 l 618 819 m 756 256 l 756 0 l 311 0 l 56 351 l 319 676 l 842 676 l 575 349 l 326 349 l 326 69 l 611 69 l 756 256 m 567 607 l 326 607 l 326 418 l 567 418 l 567 607 z "},"ē":{"ha":899,"x_min":56,"x_max":843,"o":"m 190 975 l 800 975 l 760 921 l 301 838 l 190 975 m 757 254 l 757 -1 l 313 0 l 56 350 l 321 675 l 843 675 l 576 347 l 326 347 l 326 69 l 611 69 l 757 254 m 567 606 l 326 606 l 326 417 l 567 417 l 567 606 z "},"ę":{"ha":899,"x_min":56,"x_max":843,"o":"m 557 0 l 518 -150 l 701 -150 l 403 -311 l 471 1 l 313 1 l 56 351 l 321 676 l 843 676 l 576 349 l 326 349 l 326 71 l 611 71 l 757 256 l 757 0 l 557 0 m 326 607 l 326 418 l 567 418 l 567 607 l 326 607 z "},"ẽ":{"ha":899,"x_min":56,"x_max":843,"o":"m 704 997 l 410 788 l 404 856 l 168 788 l 469 1003 l 475 938 l 704 997 m 757 254 l 757 -1 l 313 0 l 56 350 l 321 675 l 843 675 l 576 347 l 326 347 l 326 69 l 611 69 l 757 254 m 567 606 l 326 606 l 326 417 l 567 417 l 567 606 z "},"ə":{"ha":897,"x_min":56,"x_max":842,"o":"m 63 368 l 63 675 l 586 675 l 842 325 l 578 0 l 56 -1 l 303 410 l 571 410 l 571 606 l 224 606 l 63 368 m 332 69 l 571 69 l 571 340 l 332 340 l 332 69 z "},"f":{"ha":706,"x_min":56,"x_max":650,"o":"m 432 1025 l 432 675 l 551 675 l 551 713 l 607 713 l 607 574 l 551 574 l 551 606 l 432 606 l 432 69 l 540 69 l 540 0 l 293 0 l 293 69 l 394 69 l 251 606 l 113 606 l 113 574 l 56 574 l 56 713 l 113 713 l 113 675 l 232 675 l 126 1074 l 650 1074 l 650 833 l 432 1025 z "},"g":{"ha":919,"x_min":56,"x_max":864,"o":"m 864 419 l 718 606 l 621 606 l 819 350 l 601 69 l 721 69 l 801 179 l 801 -111 l 590 -111 l 671 0 l 311 0 l 56 350 l 319 675 l 864 675 l 864 419 m 560 69 l 560 606 l 326 606 l 326 69 l 560 69 z "},"ğ":{"ha":919,"x_min":56,"x_max":864,"o":"m 685 1044 l 792 1044 l 644 818 l 388 818 l 240 1044 l 346 1044 l 433 904 l 597 904 l 685 1044 m 864 419 l 718 606 l 621 606 l 819 350 l 601 69 l 721 69 l 801 179 l 801 -111 l 589 -111 l 671 0 l 311 0 l 56 350 l 319 675 l 864 675 l 864 419 m 560 69 l 560 606 l 326 606 l 326 69 l 560 69 z "},"ǧ":{"ha":919,"x_min":56,"x_max":864,"o":"m 493 796 l 240 1000 l 493 938 l 747 1000 l 493 796 m 864 419 l 718 606 l 621 606 l 819 350 l 601 69 l 721 69 l 801 178 l 801 -111 l 590 -111 l 671 0 l 313 0 l 56 350 l 319 675 l 864 675 l 864 419 m 560 69 l 560 606 l 326 606 l 326 69 l 560 69 z "},"ĝ":{"ha":919,"x_min":56,"x_max":864,"o":"m 496 1000 l 750 796 l 496 858 l 243 796 l 496 1000 m 864 419 l 718 606 l 621 606 l 819 350 l 601 69 l 721 69 l 801 179 l 801 -111 l 590 -111 l 671 0 l 313 0 l 56 350 l 319 675 l 864 675 l 864 419 m 560 69 l 560 606 l 326 606 l 326 69 l 560 69 z "},"ģ":{"ha":921,"x_min":56,"x_max":865,"o":"m 460 796 l 460 1086 l 465 1086 l 615 844 l 460 796 m 865 421 l 719 606 l 621 606 l 821 351 l 601 69 l 722 69 l 801 179 l 801 -111 l 590 -111 l 671 0 l 313 0 l 56 351 l 321 675 l 865 675 l 865 421 m 561 69 l 561 606 l 326 606 l 326 69 l 561 69 z "},"ġ":{"ha":919,"x_min":56,"x_max":864,"o":"m 410 1000 l 583 1000 l 583 826 l 410 826 l 410 1000 m 864 421 l 718 606 l 619 606 l 819 351 l 601 69 l 721 69 l 800 179 l 800 -111 l 589 -111 l 669 0 l 311 0 l 56 351 l 319 675 l 864 675 l 864 421 m 560 69 l 560 606 l 326 606 l 326 69 l 560 69 z "},"h":{"ha":792,"x_min":56,"x_max":736,"o":"m 736 69 l 736 0 l 490 0 l 490 69 l 625 69 l 433 606 l 321 606 l 190 69 l 301 69 l 301 0 l 56 0 l 56 69 l 156 69 l 156 1004 l 56 1004 l 56 1074 l 435 1074 l 338 675 l 665 675 l 665 69 l 736 69 z "},"ħ":{"ha":885,"x_min":56,"x_max":829,"o":"m 758 69 l 829 69 l 829 0 l 583 0 l 583 69 l 717 69 l 526 606 l 414 606 l 283 69 l 394 69 l 394 0 l 149 0 l 149 69 l 249 69 l 249 772 l 167 758 l 56 896 l 249 896 l 249 1006 l 149 1006 l 149 1075 l 528 1075 l 485 896 l 665 896 l 624 840 l 464 811 l 431 675 l 758 675 l 758 69 z "},"ĥ":{"ha":793,"x_min":56,"x_max":738,"o":"m 361 1321 l 614 1117 l 361 1179 l 108 1117 l 361 1321 m 738 69 l 738 0 l 490 0 l 490 69 l 625 69 l 435 606 l 321 606 l 190 69 l 303 69 l 303 0 l 56 0 l 56 69 l 156 69 l 156 1006 l 56 1006 l 56 1075 l 435 1075 l 338 675 l 665 675 l 665 69 l 738 69 z "},"i":{"ha":471,"x_min":56,"x_max":415,"o":"m 156 997 l 371 997 l 371 808 l 156 808 l 156 997 m 56 69 l 160 69 l 160 606 l 72 606 l 72 675 l 415 675 l 208 69 l 301 69 l 301 0 l 56 0 l 56 69 z "},"ı":{"ha":471,"x_min":56,"x_max":415,"o":"m 56 69 l 160 69 l 160 606 l 72 606 l 72 675 l 415 675 l 208 69 l 301 69 l 301 0 l 56 0 l 56 69 z "},"í":{"ha":496,"x_min":56,"x_max":440,"o":"m 169 978 l 440 978 l 156 779 l 169 978 m 56 69 l 160 69 l 160 606 l 72 606 l 72 675 l 415 675 l 208 69 l 301 69 l 301 0 l 56 0 l 56 69 z "},"ĭ":{"ha":663,"x_min":56,"x_max":607,"o":"m 500 1044 l 607 1044 l 460 819 l 203 819 l 56 1044 l 161 1044 l 249 904 l 413 904 l 500 1044 m 150 69 l 254 69 l 254 606 l 168 606 l 168 675 l 511 675 l 303 69 l 397 69 l 397 0 l 150 0 l 150 69 z "},"î":{"ha":617,"x_min":56,"x_max":561,"o":"m 308 1000 l 561 796 l 308 858 l 56 796 l 308 1000 m 128 69 l 232 69 l 232 606 l 146 606 l 146 675 l 489 675 l 281 69 l 375 69 l 375 0 l 128 0 l 128 69 z "},"ȉ":{"ha":710,"x_min":56,"x_max":654,"o":"m 640 978 l 654 779 l 371 978 l 640 978 m 326 978 l 340 779 l 56 978 l 326 978 m 257 69 l 361 69 l 361 606 l 275 606 l 275 675 l 618 675 l 410 69 l 504 69 l 504 0 l 257 0 l 257 69 z "},"ï":{"ha":579,"x_min":56,"x_max":524,"o":"m 56 1000 l 229 1000 l 229 826 l 56 826 l 56 1000 m 350 1000 l 524 1000 l 524 826 l 350 826 l 350 1000 m 97 69 l 201 69 l 201 606 l 115 606 l 115 675 l 458 675 l 250 69 l 344 69 l 344 0 l 97 0 l 97 69 z "},"ị":{"ha":471,"x_min":56,"x_max":415,"o":"m 154 997 l 371 997 l 371 808 l 154 808 l 154 997 m 56 69 l 160 69 l 160 606 l 72 606 l 72 675 l 415 675 l 208 69 l 301 69 l 301 0 l 56 0 l 56 69 m 117 -54 l 290 -54 l 290 -229 l 117 -229 l 117 -54 z "},"ì":{"ha":485,"x_min":56,"x_max":429,"o":"m 326 978 l 340 779 l 56 978 l 326 978 m 69 69 l 174 69 l 174 606 l 86 606 l 86 675 l 429 675 l 222 69 l 315 69 l 315 0 l 69 0 l 69 69 z "},"ỉ":{"ha":472,"x_min":56,"x_max":417,"o":"m 210 849 l 339 849 l 339 910 l 107 910 l 269 1025 l 406 940 l 406 825 l 274 771 l 274 711 l 210 711 l 210 849 m 56 71 l 160 71 l 160 607 l 74 607 l 74 676 l 417 676 l 208 71 l 303 71 l 303 0 l 56 0 l 56 71 z "},"ȋ":{"ha":663,"x_min":56,"x_max":607,"o":"m 501 818 l 414 958 l 250 958 l 163 818 l 56 818 l 203 1043 l 460 1043 l 607 818 l 501 818 m 175 69 l 279 69 l 279 606 l 192 606 l 192 675 l 535 675 l 328 69 l 421 69 l 421 0 l 175 0 l 175 69 z "},"ī":{"ha":721,"x_min":56,"x_max":665,"o":"m 56 976 l 665 976 l 625 921 l 167 838 l 56 976 m 181 69 l 285 69 l 285 606 l 199 606 l 199 675 l 542 675 l 333 69 l 428 69 l 428 0 l 181 0 l 181 69 z "},"į":{"ha":489,"x_min":56,"x_max":433,"o":"m 388 997 l 388 810 l 172 810 l 172 997 l 388 997 m 210 0 l 171 -151 l 354 -151 l 56 -312 l 124 0 l 72 0 l 72 69 l 176 69 l 176 606 l 90 606 l 90 675 l 433 675 l 225 69 l 319 69 l 319 0 l 210 0 z "},"ĩ":{"ha":646,"x_min":56,"x_max":590,"o":"m 590 997 l 296 788 l 292 856 l 56 788 l 356 1003 l 361 938 l 590 997 m 115 69 l 219 69 l 219 606 l 133 606 l 133 675 l 476 675 l 268 69 l 363 69 l 363 0 l 115 0 l 115 69 z "},"j":{"ha":463,"x_min":56,"x_max":407,"o":"m 303 997 l 303 808 l 88 808 l 88 997 l 303 997 m 407 675 l 407 606 l 311 606 l 311 -104 l 100 -104 l 276 114 l 56 675 l 407 675 z "},"ȷ":{"ha":463,"x_min":56,"x_max":407,"o":"m 407 676 l 407 607 l 311 607 l 311 -104 l 100 -104 l 276 115 l 56 676 l 407 676 z "},"ĵ":{"ha":617,"x_min":56,"x_max":561,"o":"m 308 1001 l 561 797 l 308 858 l 56 797 l 308 1001 m 492 676 l 492 607 l 396 607 l 396 -104 l 185 -104 l 361 115 l 140 676 l 492 676 z "},"k":{"ha":840,"x_min":56,"x_max":785,"o":"m 674 69 l 785 69 l 785 0 l 538 0 l 538 69 l 632 69 l 421 285 l 243 285 l 190 69 l 303 69 l 303 0 l 56 0 l 56 69 l 157 69 l 157 1004 l 56 1004 l 56 1074 l 436 1074 l 260 354 l 486 354 l 486 606 l 438 606 l 438 675 l 764 675 l 528 354 l 674 354 l 674 69 z "},"ķ":{"ha":839,"x_min":56,"x_max":783,"o":"m 674 69 l 783 69 l 783 0 l 538 0 l 538 69 l 631 69 l 421 285 l 243 285 l 190 69 l 301 69 l 301 0 l 56 0 l 56 69 l 156 69 l 156 1006 l 56 1006 l 56 1075 l 435 1075 l 260 354 l 486 354 l 486 607 l 438 607 l 438 675 l 763 675 l 526 354 l 674 354 l 674 69 m 356 -33 l 511 -81 l 360 -322 l 356 -322 l 356 -33 z "},"ĸ":{"ha":840,"x_min":56,"x_max":785,"o":"m 674 69 l 785 69 l 785 0 l 538 0 l 538 69 l 632 69 l 421 285 l 263 285 l 190 69 l 303 69 l 303 0 l 56 0 l 56 69 l 157 69 l 157 607 l 56 607 l 56 676 l 375 676 l 282 354 l 486 354 l 486 607 l 438 607 l 438 676 l 764 676 l 528 354 l 674 354 l 674 69 z "},"l":{"ha":482,"x_min":56,"x_max":426,"o":"m 56 1004 l 56 1074 l 426 1074 l 197 69 l 329 69 l 329 0 l 56 0 l 56 69 l 165 69 l 165 1004 l 56 1004 z "},"ĺ":{"ha":482,"x_min":56,"x_max":426,"o":"m 150 1296 l 421 1300 l 140 1097 l 150 1296 m 56 1004 l 56 1074 l 426 1074 l 197 69 l 329 69 l 329 0 l 56 0 l 56 69 l 165 69 l 165 1004 l 56 1004 z "},"ľ":{"ha":663,"x_min":56,"x_max":607,"o":"m 56 1004 l 56 1074 l 426 1074 l 199 69 l 329 69 l 329 0 l 56 0 l 56 69 l 167 69 l 167 1004 l 56 1004 m 451 951 l 607 904 l 457 663 l 451 663 l 451 951 z "},"ļ":{"ha":481,"x_min":56,"x_max":425,"o":"m 56 1004 l 56 1074 l 425 1074 l 197 69 l 329 69 l 329 0 l 56 0 l 56 69 l 165 69 l 165 1004 l 56 1004 m 157 -35 l 313 -82 l 161 -324 l 157 -324 l 157 -35 z "},"ŀ":{"ha":614,"x_min":56,"x_max":558,"o":"m 56 1006 l 56 1075 l 425 1075 l 197 69 l 329 69 l 329 0 l 56 0 l 56 69 l 165 69 l 165 1006 l 56 1006 m 383 688 l 558 688 l 558 514 l 383 514 l 383 688 z "},"ǉ":{"ha":950,"x_min":56,"x_max":894,"o":"m 56 1004 l 56 1074 l 426 1074 l 197 69 l 329 69 l 329 0 l 56 0 l 56 69 l 165 69 l 165 1004 l 56 1004 m 790 997 l 790 808 l 574 808 l 574 997 l 790 997 m 894 675 l 894 606 l 799 606 l 799 -104 l 588 -104 l 764 114 l 543 675 l 894 675 z "},"ł":{"ha":722,"x_min":56,"x_max":667,"o":"m 625 681 l 425 592 l 307 69 l 438 69 l 438 0 l 164 0 l 164 69 l 274 69 l 274 524 l 168 476 l 56 615 l 274 658 l 274 1006 l 164 1006 l 164 1075 l 535 1075 l 447 692 l 667 736 l 625 681 z "},"m":{"ha":1047,"x_min":56,"x_max":992,"o":"m 992 69 l 992 0 l 744 0 l 744 69 l 863 69 l 679 606 l 639 606 l 538 69 l 638 69 l 638 0 l 390 0 l 390 69 l 489 69 l 407 606 l 372 606 l 188 69 l 303 69 l 303 0 l 56 0 l 56 69 l 139 69 l 139 606 l 85 606 l 85 675 l 911 675 l 911 69 l 992 69 z "},"n":{"ha":821,"x_min":56,"x_max":765,"o":"m 765 69 l 765 0 l 519 0 l 519 69 l 608 69 l 425 606 l 371 606 l 188 69 l 303 69 l 303 0 l 56 0 l 56 69 l 139 69 l 139 606 l 69 606 l 69 675 l 657 675 l 657 69 l 765 69 z "},"ń":{"ha":821,"x_min":56,"x_max":765,"o":"m 306 979 l 576 979 l 292 781 l 306 979 m 765 69 l 765 0 l 519 0 l 519 69 l 608 69 l 425 607 l 371 607 l 188 69 l 303 69 l 303 0 l 56 0 l 56 69 l 139 69 l 139 607 l 69 607 l 69 676 l 657 675 l 657 69 l 765 69 z "},"ŉ":{"ha":821,"x_min":56,"x_max":765,"o":"m 56 1064 l 211 1015 l 61 775 l 56 775 l 56 1064 m 765 69 l 765 0 l 518 0 l 518 69 l 608 69 l 425 607 l 371 607 l 188 69 l 301 69 l 301 0 l 56 0 l 56 69 l 139 69 l 139 607 l 69 607 l 69 676 l 657 675 l 657 69 l 765 69 z "},"ň":{"ha":821,"x_min":56,"x_max":765,"o":"m 382 797 l 129 1001 l 382 939 l 636 1001 l 382 797 m 765 69 l 765 0 l 519 0 l 519 69 l 608 69 l 425 607 l 371 607 l 188 69 l 303 69 l 303 0 l 56 0 l 56 69 l 139 69 l 139 607 l 69 607 l 69 676 l 657 675 l 657 69 l 765 69 z "},"ņ":{"ha":821,"x_min":56,"x_max":765,"o":"m 765 69 l 765 0 l 518 0 l 518 69 l 608 69 l 424 606 l 371 606 l 186 69 l 301 69 l 301 0 l 56 0 l 56 69 l 139 69 l 139 606 l 69 606 l 69 676 l 657 675 l 657 69 l 765 69 m 346 -33 l 501 -81 l 350 -322 l 346 -322 l 346 -33 z "},"ŋ":{"ha":713,"x_min":56,"x_max":657,"o":"m 69 675 l 657 675 l 657 -203 l 279 -42 l 621 -42 l 425 606 l 371 606 l 186 69 l 301 69 l 301 0 l 56 0 l 56 69 l 139 69 l 139 606 l 69 606 l 69 675 z "},"ǌ":{"ha":1172,"x_min":56,"x_max":1117,"o":"m 1013 997 l 1013 808 l 796 808 l 796 997 l 1013 997 m 765 69 l 765 0 l 518 0 l 518 69 l 608 69 l 424 606 l 371 606 l 186 69 l 301 69 l 301 0 l 56 0 l 56 69 l 139 69 l 139 606 l 69 606 l 69 675 l 657 675 l 657 69 l 765 69 m 1117 675 l 1117 606 l 1021 606 l 1021 -104 l 810 -104 l 986 114 l 765 675 l 1117 675 z "},"ñ":{"ha":822,"x_min":56,"x_max":767,"o":"m 679 996 l 385 786 l 379 854 l 143 788 l 444 1001 l 450 936 l 679 996 m 767 69 l 767 0 l 519 0 l 519 69 l 610 69 l 425 606 l 372 606 l 188 69 l 303 69 l 303 0 l 56 0 l 56 69 l 139 69 l 139 606 l 69 606 l 69 675 l 658 675 l 658 69 l 767 69 z "},"o":{"ha":935,"x_min":56,"x_max":879,"o":"m 879 350 l 624 0 l 313 0 l 56 350 l 321 675 l 615 675 l 879 350 m 326 69 l 608 69 l 608 606 l 326 606 l 326 69 z "},"ó":{"ha":935,"x_min":56,"x_max":879,"o":"m 339 978 l 610 978 l 325 779 l 339 978 m 879 350 l 622 0 l 311 0 l 56 350 l 319 675 l 614 675 l 879 350 m 326 69 l 608 69 l 608 606 l 326 606 l 326 69 z "},"ŏ":{"ha":936,"x_min":56,"x_max":881,"o":"m 624 1044 l 731 1044 l 583 819 l 326 819 l 179 1044 l 285 1044 l 372 904 l 536 904 l 624 1044 m 881 351 l 624 0 l 313 0 l 56 351 l 321 676 l 615 676 l 881 351 m 328 69 l 610 69 l 610 607 l 328 607 l 328 69 z "},"ô":{"ha":935,"x_min":56,"x_max":879,"o":"m 468 999 l 721 796 l 468 857 l 215 796 l 468 999 m 879 350 l 624 0 l 313 0 l 56 350 l 321 675 l 615 675 l 879 350 m 326 69 l 608 69 l 608 606 l 326 606 l 326 69 z "},"ố":{"ha":935,"x_min":56,"x_max":879,"o":"m 379 1176 l 650 1176 l 365 978 l 379 1176 m 482 1001 l 735 797 l 482 858 l 229 797 l 482 1001 m 879 351 l 622 0 l 311 0 l 56 351 l 319 676 l 614 676 l 879 351 m 326 69 l 608 69 l 608 607 l 326 607 l 326 69 z "},"ộ":{"ha":935,"x_min":56,"x_max":879,"o":"m 468 1000 l 721 796 l 468 857 l 215 796 l 468 1000 m 879 350 l 624 0 l 313 0 l 56 350 l 321 675 l 615 675 l 879 350 m 326 69 l 608 69 l 608 606 l 326 606 l 326 69 m 381 -56 l 554 -56 l 554 -229 l 381 -229 l 381 -56 z "},"ồ":{"ha":935,"x_min":56,"x_max":879,"o":"m 568 1176 l 582 978 l 297 1176 l 568 1176 m 465 1001 l 719 797 l 465 858 l 213 797 l 465 1001 m 879 351 l 624 0 l 313 0 l 56 351 l 321 676 l 615 676 l 879 351 m 326 69 l 608 69 l 608 607 l 326 607 l 326 69 z "},"ổ":{"ha":935,"x_min":56,"x_max":879,"o":"m 613 1011 l 742 1011 l 742 1072 l 510 1072 l 672 1189 l 808 1103 l 808 988 l 676 933 l 676 886 l 613 886 l 613 1011 m 456 1001 l 710 797 l 456 858 l 203 797 l 456 1001 m 879 351 l 624 0 l 313 0 l 56 351 l 319 676 l 615 676 l 879 351 m 326 69 l 608 69 l 608 607 l 326 607 l 326 69 z "},"ỗ":{"ha":935,"x_min":56,"x_max":879,"o":"m 807 1190 l 511 981 l 507 1049 l 271 981 l 571 1196 l 576 1131 l 807 1190 m 467 1001 l 719 797 l 467 858 l 214 797 l 467 1001 m 879 351 l 624 0 l 313 0 l 56 351 l 319 676 l 615 676 l 879 351 m 326 69 l 608 69 l 608 607 l 326 607 l 326 69 z "},"ȍ":{"ha":935,"x_min":56,"x_max":879,"o":"m 640 978 l 654 779 l 369 978 l 640 978 m 326 978 l 340 779 l 56 978 l 326 978 m 879 350 l 624 0 l 313 0 l 56 350 l 319 675 l 615 675 l 879 350 m 326 69 l 608 69 l 608 606 l 326 606 l 326 69 z "},"ö":{"ha":935,"x_min":56,"x_max":879,"o":"m 233 999 l 407 999 l 407 825 l 233 825 l 233 999 m 528 999 l 701 999 l 701 825 l 528 825 l 528 999 m 879 350 l 622 0 l 311 0 l 56 350 l 319 675 l 614 675 l 879 350 m 326 69 l 608 69 l 608 606 l 326 606 l 326 69 z "},"ȫ":{"ha":935,"x_min":56,"x_max":879,"o":"m 150 1208 l 760 1208 l 719 1153 l 261 1069 l 150 1208 m 239 1000 l 413 1000 l 413 826 l 239 826 l 239 1000 m 533 1000 l 707 1000 l 707 826 l 533 826 l 533 1000 m 879 351 l 624 0 l 313 0 l 56 351 l 321 675 l 615 675 l 879 351 m 326 69 l 608 69 l 608 606 l 326 606 l 326 69 z "},"ȱ":{"ha":935,"x_min":56,"x_max":879,"o":"m 183 1207 l 793 1207 l 753 1153 l 294 1069 l 183 1207 m 392 999 l 565 999 l 565 825 l 392 825 l 392 999 m 879 350 l 624 0 l 313 0 l 56 350 l 319 675 l 615 675 l 879 350 m 326 69 l 608 69 l 608 606 l 326 606 l 326 69 z "},"ọ":{"ha":935,"x_min":56,"x_max":879,"o":"m 879 350 l 624 0 l 313 0 l 56 350 l 319 675 l 615 675 l 879 350 m 326 69 l 608 69 l 608 606 l 326 606 l 326 69 m 381 -54 l 554 -54 l 554 -229 l 381 -229 l 381 -54 z "},"ò":{"ha":935,"x_min":56,"x_max":879,"o":"m 596 978 l 610 779 l 325 978 l 596 978 m 879 350 l 624 0 l 313 0 l 56 350 l 319 675 l 615 675 l 879 350 m 326 69 l 608 69 l 608 606 l 326 606 l 326 69 z "},"ỏ":{"ha":935,"x_min":56,"x_max":879,"o":"m 438 849 l 567 849 l 567 910 l 335 910 l 497 1025 l 633 940 l 633 825 l 503 771 l 503 711 l 438 711 l 438 849 m 879 351 l 624 0 l 313 0 l 56 351 l 319 676 l 615 676 l 879 351 m 326 71 l 608 71 l 608 607 l 326 607 l 326 71 z "},"ơ":{"ha":956,"x_min":56,"x_max":900,"o":"m 900 757 l 900 482 l 771 482 l 879 350 l 622 0 l 311 0 l 56 350 l 319 675 l 614 675 l 692 579 l 788 579 l 900 757 m 608 69 l 608 606 l 326 606 l 326 69 l 608 69 z "},"ớ":{"ha":957,"x_min":56,"x_max":901,"o":"m 326 979 l 596 979 l 313 781 l 326 979 m 901 757 l 901 482 l 774 482 l 879 351 l 624 0 l 313 0 l 56 351 l 321 676 l 615 676 l 694 579 l 788 579 l 901 757 m 608 69 l 608 607 l 326 607 l 326 69 l 608 69 z "},"ợ":{"ha":957,"x_min":56,"x_max":901,"o":"m 901 757 l 901 482 l 772 482 l 879 350 l 624 0 l 313 0 l 56 350 l 321 675 l 615 675 l 693 579 l 789 579 l 901 757 m 608 69 l 608 606 l 326 606 l 326 69 l 608 69 m 379 -228 l 379 -54 l 553 -54 l 553 -228 l 379 -228 z "},"ờ":{"ha":957,"x_min":56,"x_max":901,"o":"m 533 979 l 547 781 l 263 979 l 533 979 m 901 757 l 901 482 l 772 482 l 879 351 l 622 0 l 311 0 l 56 351 l 319 676 l 614 676 l 693 579 l 788 579 l 901 757 m 608 69 l 608 607 l 326 607 l 326 69 l 608 69 z "},"ở":{"ha":957,"x_min":56,"x_max":901,"o":"m 547 849 l 547 910 l 314 910 l 476 1025 l 613 940 l 613 824 l 482 771 l 482 711 l 418 711 l 418 849 l 547 849 m 901 757 l 901 482 l 774 482 l 879 351 l 624 0 l 313 0 l 56 351 l 321 676 l 615 676 l 694 579 l 789 579 l 901 757 m 608 69 l 608 607 l 326 607 l 326 69 l 608 69 z "},"ỡ":{"ha":957,"x_min":56,"x_max":901,"o":"m 482 788 l 476 857 l 240 789 l 542 1003 l 546 938 l 776 997 l 482 788 m 901 757 l 901 482 l 774 482 l 879 351 l 624 0 l 313 0 l 56 351 l 319 676 l 615 676 l 694 579 l 788 579 l 901 757 m 608 69 l 608 607 l 326 607 l 326 69 l 608 69 z "},"ő":{"ha":935,"x_min":56,"x_max":879,"o":"m 229 979 l 499 979 l 215 781 l 229 979 m 543 979 l 813 979 l 529 781 l 543 979 m 879 351 l 622 0 l 311 0 l 56 351 l 319 676 l 614 676 l 879 351 m 326 69 l 608 69 l 608 607 l 326 607 l 326 69 z "},"ȏ":{"ha":935,"x_min":56,"x_max":879,"o":"m 629 818 l 543 958 l 379 958 l 292 818 l 185 818 l 332 1043 l 589 1043 l 736 818 l 629 818 m 879 350 l 624 0 l 313 0 l 56 350 l 321 675 l 615 675 l 879 350 m 326 69 l 608 69 l 608 606 l 326 606 l 326 69 z "},"ō":{"ha":935,"x_min":56,"x_max":879,"o":"m 124 976 l 733 976 l 693 921 l 235 838 l 124 976 m 879 351 l 622 0 l 311 0 l 56 351 l 319 676 l 614 676 l 879 351 m 326 69 l 608 69 l 608 607 l 326 607 l 326 69 z "},"ǫ":{"ha":935,"x_min":56,"x_max":879,"o":"m 496 0 l 456 -153 l 639 -153 l 340 -314 l 410 0 l 313 0 l 56 350 l 319 675 l 615 675 l 879 350 l 624 0 l 496 0 m 326 606 l 326 69 l 608 69 l 608 606 l 326 606 z "},"ø":{"ha":935,"x_min":56,"x_max":879,"o":"m 707 561 l 879 350 l 624 0 l 313 0 l 272 54 l 129 -112 l 89 -112 l 244 92 l 56 350 l 319 675 l 615 675 l 651 629 l 701 696 l 822 696 l 707 561 m 326 606 l 326 200 l 608 572 l 608 606 l 326 606 m 326 69 l 608 69 l 608 446 l 326 117 l 326 69 z "},"ǿ":{"ha":935,"x_min":56,"x_max":879,"o":"m 407 979 l 678 979 l 393 781 l 407 979 m 707 563 l 879 351 l 624 0 l 313 0 l 272 54 l 129 -111 l 89 -111 l 244 93 l 56 351 l 319 676 l 615 676 l 651 631 l 701 697 l 822 697 l 707 563 m 326 607 l 326 201 l 608 574 l 608 607 l 326 607 m 326 69 l 608 69 l 608 447 l 326 118 l 326 69 z "},"õ":{"ha":935,"x_min":56,"x_max":879,"o":"m 735 996 l 440 786 l 435 854 l 200 788 l 500 1001 l 506 936 l 735 996 m 879 350 l 624 0 l 313 0 l 56 350 l 319 675 l 615 675 l 879 350 m 326 69 l 608 69 l 608 606 l 326 606 l 326 69 z "},"ȭ":{"ha":935,"x_min":56,"x_max":879,"o":"m 151 1208 l 761 1208 l 719 1153 l 263 1069 l 151 1208 m 764 997 l 469 788 l 464 856 l 228 788 l 529 1003 l 535 938 l 764 997 m 879 351 l 624 0 l 313 0 l 56 351 l 319 675 l 615 675 l 879 351 m 326 69 l 608 69 l 608 606 l 326 606 l 326 69 z "},"œ":{"ha":1217,"x_min":56,"x_max":1161,"o":"m 632 69 l 972 69 l 1128 306 l 1128 0 l 297 0 l 56 351 l 306 676 l 1161 676 l 944 317 l 792 317 l 632 69 m 938 607 l 629 607 l 788 388 l 938 388 l 938 607 m 326 69 l 574 69 l 574 607 l 326 607 l 326 69 z "},"p":{"ha":851,"x_min":56,"x_max":796,"o":"m 796 350 l 539 0 l 185 0 l 168 -50 l 303 -50 l 303 -119 l 56 -119 l 56 -50 l 139 -50 l 139 606 l 56 606 l 56 675 l 549 675 l 796 350 m 206 69 l 525 69 l 525 606 l 374 606 l 206 69 z "},"þ":{"ha":863,"x_min":56,"x_max":807,"o":"m 807 339 l 567 0 l 194 0 l 176 -62 l 258 -62 l 258 -132 l 56 -132 l 56 -62 l 153 -62 l 153 1006 l 56 1006 l 56 1075 l 414 1075 l 329 678 l 567 678 l 807 339 m 210 69 l 536 69 l 536 608 l 315 608 l 210 69 z "},"q":{"ha":886,"x_min":56,"x_max":831,"o":"m 831 350 l 626 69 l 772 -111 l 560 -111 l 560 0 l 313 0 l 56 350 l 319 675 l 567 675 l 831 350 m 326 69 l 560 69 l 560 606 l 326 606 l 326 69 z "},"r":{"ha":626,"x_min":56,"x_max":571,"o":"m 571 457 l 388 651 l 176 69 l 303 69 l 303 0 l 56 0 l 56 69 l 139 69 l 139 607 l 69 607 l 69 676 l 571 675 l 571 457 z "},"ŕ":{"ha":626,"x_min":56,"x_max":571,"o":"m 210 979 l 481 979 l 196 781 l 210 979 m 571 456 l 386 651 l 176 69 l 303 69 l 303 0 l 56 0 l 56 69 l 139 69 l 139 607 l 69 607 l 69 676 l 571 675 l 571 456 z "},"ř":{"ha":671,"x_min":56,"x_max":615,"o":"m 308 797 l 56 1001 l 308 939 l 563 1001 l 308 797 m 615 456 l 431 651 l 219 69 l 346 69 l 346 0 l 100 0 l 100 69 l 183 69 l 183 607 l 114 607 l 114 676 l 615 675 l 615 456 z "},"ŗ":{"ha":626,"x_min":56,"x_max":571,"o":"m 571 456 l 386 651 l 175 69 l 301 69 l 301 0 l 56 0 l 56 69 l 139 69 l 139 606 l 69 606 l 69 676 l 571 675 l 571 456 m 293 -33 l 449 -81 l 297 -322 l 293 -322 l 293 -33 z "},"ȑ":{"ha":738,"x_min":56,"x_max":682,"o":"m 639 979 l 653 781 l 369 979 l 639 979 m 325 979 l 339 781 l 56 979 l 325 979 m 682 457 l 499 651 l 288 69 l 414 69 l 414 0 l 168 0 l 168 69 l 251 69 l 251 607 l 182 607 l 182 676 l 682 675 l 682 457 z "},"ȓ":{"ha":663,"x_min":56,"x_max":607,"o":"m 500 819 l 413 960 l 249 960 l 163 819 l 56 819 l 203 1046 l 460 1046 l 607 819 l 500 819 m 585 457 l 400 651 l 190 69 l 317 69 l 317 0 l 69 0 l 69 69 l 153 69 l 153 607 l 83 607 l 83 676 l 585 675 l 585 457 z "},"s":{"ha":792,"x_min":56,"x_max":736,"o":"m 736 196 l 528 0 l 110 -1 l 110 194 l 239 69 l 506 69 l 506 296 l 264 296 l 56 490 l 276 675 l 606 675 l 606 479 l 478 606 l 285 606 l 285 365 l 535 365 l 736 196 z "},"ś":{"ha":792,"x_min":56,"x_max":736,"o":"m 307 979 l 578 979 l 293 781 l 307 979 m 736 196 l 528 0 l 110 0 l 110 196 l 239 69 l 506 69 l 506 297 l 264 297 l 56 492 l 276 676 l 607 676 l 607 481 l 478 607 l 285 607 l 285 367 l 535 367 l 736 196 z "},"š":{"ha":792,"x_min":56,"x_max":736,"o":"m 376 797 l 124 1001 l 376 939 l 629 1001 l 376 797 m 736 196 l 528 0 l 110 0 l 110 196 l 239 69 l 507 69 l 507 297 l 264 297 l 56 492 l 276 676 l 607 676 l 607 481 l 478 607 l 286 607 l 286 367 l 535 367 l 736 196 z "},"ş":{"ha":790,"x_min":56,"x_max":735,"o":"m 408 22 l 408 -6 l 579 -89 l 579 -190 l 433 -290 l 281 -174 l 513 -174 l 513 -114 l 344 -114 l 344 22 l 110 22 l 110 218 l 238 92 l 506 92 l 506 319 l 264 319 l 56 514 l 275 697 l 606 697 l 606 503 l 476 628 l 285 628 l 285 389 l 533 389 l 735 218 l 526 22 l 408 22 z "},"ŝ":{"ha":792,"x_min":56,"x_max":736,"o":"m 342 1001 l 594 797 l 342 858 l 89 797 l 342 1001 m 736 196 l 528 0 l 110 0 l 110 196 l 238 69 l 506 69 l 506 297 l 264 297 l 56 492 l 276 676 l 606 676 l 606 481 l 476 607 l 285 607 l 285 367 l 535 367 l 736 196 z "},"ș":{"ha":792,"x_min":56,"x_max":736,"o":"m 736 196 l 528 0 l 110 -1 l 110 194 l 239 69 l 507 69 l 507 296 l 264 296 l 56 490 l 276 675 l 607 675 l 607 479 l 478 606 l 285 606 l 285 365 l 535 365 l 736 196 m 294 -33 l 450 -82 l 299 -322 l 294 -322 l 294 -33 z "},"ß":{"ha":1118,"x_min":56,"x_max":1063,"o":"m 1063 418 l 761 -1 l 350 -1 l 350 68 l 754 68 l 754 582 l 469 582 l 469 1014 l 439 1014 l 178 -1 l 56 -1 l 56 68 l 158 68 l 158 1072 l 738 1072 l 501 651 l 760 651 l 1063 418 z "},"ſ":{"ha":699,"x_min":56,"x_max":643,"o":"m 643 758 l 454 990 l 268 69 l 368 69 l 368 0 l 122 0 l 122 69 l 229 69 l 229 607 l 111 607 l 111 574 l 56 574 l 56 713 l 111 713 l 111 676 l 229 676 l 229 1075 l 643 1075 l 643 758 z "},"t":{"ha":663,"x_min":56,"x_max":607,"o":"m 551 713 l 607 713 l 607 572 l 551 572 l 551 606 l 431 606 l 282 106 l 492 106 l 229 -65 l 229 606 l 111 606 l 111 572 l 56 572 l 56 713 l 111 713 l 111 675 l 229 675 l 229 925 l 429 675 l 551 675 l 551 713 z "},"ŧ":{"ha":721,"x_min":56,"x_max":665,"o":"m 624 386 l 389 343 l 319 106 l 529 106 l 267 -65 l 267 321 l 167 303 l 56 442 l 267 442 l 267 607 l 149 607 l 149 574 l 93 574 l 93 713 l 149 713 l 149 676 l 267 676 l 267 926 l 465 676 l 588 676 l 588 713 l 643 713 l 643 574 l 588 574 l 588 607 l 468 607 l 418 442 l 665 442 l 624 386 z "},"ť":{"ha":700,"x_min":56,"x_max":644,"o":"m 489 1036 l 644 989 l 494 747 l 489 747 l 489 1036 m 550 713 l 606 713 l 606 574 l 550 574 l 550 607 l 431 607 l 282 106 l 492 106 l 229 -65 l 229 607 l 111 607 l 111 574 l 56 574 l 56 713 l 111 713 l 111 676 l 229 676 l 229 926 l 428 676 l 550 676 l 550 713 z "},"ţ":{"ha":661,"x_min":56,"x_max":606,"o":"m 550 713 l 606 713 l 606 574 l 550 574 l 550 606 l 429 606 l 281 106 l 492 106 l 371 26 l 371 -28 l 540 -111 l 540 -212 l 394 -312 l 242 -196 l 474 -196 l 474 -136 l 306 -136 l 306 -15 l 229 -65 l 229 606 l 111 606 l 111 574 l 56 574 l 56 713 l 111 713 l 111 675 l 229 675 l 229 926 l 428 675 l 550 675 l 550 713 z "},"ț":{"ha":663,"x_min":56,"x_max":607,"o":"m 551 714 l 607 714 l 607 574 l 551 574 l 551 607 l 431 607 l 282 107 l 492 107 l 268 -39 l 403 -81 l 251 -321 l 247 -321 l 247 -53 l 229 -64 l 229 607 l 111 607 l 111 574 l 56 574 l 56 714 l 111 714 l 111 676 l 229 676 l 229 926 l 429 676 l 551 676 l 551 714 z "},"u":{"ha":804,"x_min":56,"x_max":749,"o":"m 749 607 l 671 607 l 671 69 l 739 69 l 739 0 l 125 0 l 125 607 l 56 607 l 56 676 l 369 675 l 171 69 l 626 69 l 433 675 l 749 676 l 749 607 z "},"ú":{"ha":804,"x_min":56,"x_max":749,"o":"m 289 979 l 560 979 l 275 781 l 289 979 m 749 607 l 671 607 l 671 69 l 738 69 l 738 0 l 125 0 l 125 607 l 56 607 l 56 676 l 369 675 l 171 69 l 626 69 l 433 675 l 749 676 l 749 607 z "},"ŭ":{"ha":804,"x_min":56,"x_max":749,"o":"m 571 1044 l 678 1044 l 531 819 l 274 819 l 126 1044 l 233 1044 l 321 904 l 485 904 l 571 1044 m 749 607 l 672 607 l 672 69 l 739 69 l 739 0 l 125 0 l 125 607 l 56 607 l 56 676 l 369 675 l 171 69 l 626 69 l 435 675 l 749 676 l 749 607 z "},"û":{"ha":804,"x_min":56,"x_max":749,"o":"m 403 1000 l 656 797 l 403 858 l 150 797 l 403 1000 m 749 607 l 672 607 l 672 69 l 739 69 l 739 0 l 125 0 l 125 607 l 56 607 l 56 676 l 371 675 l 171 69 l 628 69 l 435 675 l 749 676 l 749 607 z "},"ȕ":{"ha":804,"x_min":56,"x_max":749,"o":"m 642 979 l 656 781 l 372 979 l 642 979 m 328 979 l 342 781 l 57 979 l 328 979 m 749 607 l 672 607 l 672 69 l 739 69 l 739 0 l 125 0 l 125 607 l 56 607 l 56 676 l 369 675 l 171 69 l 626 69 l 435 675 l 749 676 l 749 607 z "},"ü":{"ha":804,"x_min":56,"x_max":749,"o":"m 168 1000 l 342 1000 l 342 826 l 168 826 l 168 1000 m 463 1000 l 636 1000 l 636 826 l 463 826 l 463 1000 m 749 607 l 672 607 l 672 69 l 739 69 l 739 0 l 125 0 l 125 607 l 56 607 l 56 676 l 369 675 l 171 69 l 628 69 l 435 675 l 749 676 l 749 607 z "},"ụ":{"ha":804,"x_min":56,"x_max":749,"o":"m 749 606 l 672 606 l 672 69 l 739 69 l 739 0 l 125 0 l 125 606 l 56 606 l 56 675 l 369 675 l 171 69 l 628 69 l 435 675 l 749 675 l 749 606 m 315 -54 l 489 -54 l 489 -228 l 315 -228 l 315 -54 z "},"ù":{"ha":804,"x_min":56,"x_max":749,"o":"m 478 979 l 492 781 l 208 979 l 478 979 m 749 607 l 672 607 l 672 69 l 739 69 l 739 0 l 125 0 l 125 607 l 56 607 l 56 676 l 369 675 l 171 69 l 628 69 l 435 675 l 749 676 l 749 607 z "},"ủ":{"ha":806,"x_min":56,"x_max":750,"o":"m 361 849 l 490 849 l 490 910 l 258 910 l 421 1025 l 557 940 l 557 824 l 426 771 l 426 711 l 361 711 l 361 849 m 750 607 l 672 607 l 672 69 l 739 69 l 739 0 l 125 0 l 125 607 l 56 607 l 56 676 l 371 675 l 172 69 l 628 69 l 435 675 l 750 676 l 750 607 z "},"ư":{"ha":910,"x_min":56,"x_max":854,"o":"m 854 511 l 671 511 l 671 69 l 738 69 l 738 0 l 125 0 l 125 607 l 56 607 l 56 676 l 369 675 l 171 69 l 626 69 l 433 675 l 672 676 l 671 608 l 742 608 l 854 785 l 854 511 z "},"ứ":{"ha":910,"x_min":56,"x_max":854,"o":"m 294 979 l 565 979 l 281 781 l 294 979 m 854 510 l 671 510 l 671 69 l 739 69 l 739 0 l 125 0 l 125 607 l 56 607 l 56 676 l 369 675 l 171 69 l 626 69 l 435 675 l 672 676 l 671 607 l 742 607 l 854 785 l 854 510 z "},"ự":{"ha":911,"x_min":56,"x_max":856,"o":"m 856 513 l 672 513 l 672 72 l 739 72 l 739 3 l 125 3 l 125 608 l 56 608 l 56 679 l 369 678 l 171 72 l 628 72 l 435 678 l 674 679 l 672 610 l 742 610 l 856 788 l 856 513 m 314 -225 l 314 -51 l 488 -51 l 488 -225 l 314 -225 z "},"ừ":{"ha":911,"x_min":56,"x_max":856,"o":"m 425 979 l 439 781 l 156 979 l 425 979 m 856 510 l 672 510 l 672 69 l 739 69 l 739 0 l 125 0 l 125 607 l 56 607 l 56 676 l 369 675 l 171 69 l 628 69 l 435 675 l 674 676 l 672 607 l 742 607 l 856 785 l 856 510 z "},"ử":{"ha":911,"x_min":56,"x_max":856,"o":"m 496 849 l 496 910 l 263 910 l 425 1025 l 561 940 l 561 824 l 431 771 l 431 711 l 367 711 l 367 849 l 496 849 m 856 510 l 672 510 l 672 69 l 739 69 l 739 0 l 125 0 l 125 607 l 56 607 l 56 676 l 369 675 l 171 69 l 626 69 l 435 675 l 674 676 l 672 607 l 742 607 l 856 785 l 856 510 z "},"ữ":{"ha":911,"x_min":56,"x_max":856,"o":"m 386 788 l 381 857 l 144 789 l 446 1003 l 451 938 l 681 997 l 386 788 m 856 510 l 672 510 l 672 69 l 739 69 l 739 0 l 125 0 l 125 607 l 56 607 l 56 676 l 369 675 l 171 69 l 628 69 l 435 675 l 674 676 l 672 607 l 742 607 l 856 785 l 856 510 z "},"ű":{"ha":833,"x_min":56,"x_max":778,"o":"m 193 979 l 464 979 l 179 781 l 193 979 m 508 979 l 778 979 l 494 781 l 508 979 m 749 607 l 671 607 l 671 69 l 738 69 l 738 0 l 125 0 l 125 607 l 56 607 l 56 676 l 369 675 l 171 69 l 626 69 l 433 675 l 749 676 l 749 607 z "},"ȗ":{"ha":806,"x_min":56,"x_max":750,"o":"m 551 819 l 464 960 l 300 960 l 213 819 l 107 819 l 253 1046 l 510 1046 l 657 819 l 551 819 m 750 607 l 672 607 l 672 69 l 739 69 l 739 0 l 125 0 l 125 607 l 56 607 l 56 676 l 371 675 l 172 69 l 628 69 l 435 675 l 750 676 l 750 607 z "},"ū":{"ha":806,"x_min":56,"x_max":750,"o":"m 85 976 l 694 976 l 654 921 l 196 838 l 85 976 m 750 607 l 672 607 l 672 69 l 739 69 l 739 0 l 125 0 l 125 607 l 56 607 l 56 676 l 371 675 l 172 69 l 628 69 l 435 675 l 750 676 l 750 607 z "},"ų":{"ha":938,"x_min":56,"x_max":882,"o":"m 882 -151 l 583 -312 l 653 0 l 125 0 l 125 606 l 56 606 l 56 675 l 371 675 l 171 69 l 628 69 l 435 675 l 749 675 l 749 606 l 672 606 l 672 69 l 739 69 l 739 0 l 700 -151 l 882 -151 z "},"ů":{"ha":804,"x_min":56,"x_max":749,"o":"m 240 1044 l 564 1044 l 564 810 l 240 810 l 240 1044 m 494 879 l 494 975 l 310 975 l 310 879 l 494 879 m 749 607 l 672 607 l 672 69 l 739 69 l 739 0 l 125 0 l 125 607 l 56 607 l 56 676 l 369 675 l 171 69 l 626 69 l 435 675 l 749 676 l 749 607 z "},"ũ":{"ha":804,"x_min":56,"x_max":749,"o":"m 692 997 l 397 788 l 392 857 l 156 789 l 457 1003 l 461 938 l 692 997 m 749 607 l 671 607 l 671 69 l 738 69 l 738 0 l 125 0 l 125 607 l 56 607 l 56 676 l 369 675 l 171 69 l 626 69 l 433 675 l 749 676 l 749 607 z "},"v":{"ha":692,"x_min":56,"x_max":636,"o":"m 636 675 l 433 0 l 274 0 l 56 675 l 296 675 l 296 69 l 411 69 l 411 607 l 354 607 l 354 676 l 636 675 z "},"w":{"ha":1076,"x_min":56,"x_max":1021,"o":"m 1021 675 l 804 0 l 275 0 l 56 675 l 357 676 l 357 607 l 292 607 l 292 69 l 519 69 l 410 675 l 665 675 l 556 69 l 785 69 l 785 607 l 721 607 l 721 676 l 1021 675 z "},"ẃ":{"ha":1076,"x_min":56,"x_max":1021,"o":"m 368 979 l 639 979 l 354 781 l 368 979 m 1021 675 l 804 0 l 275 0 l 56 675 l 357 676 l 357 607 l 292 607 l 292 69 l 519 69 l 410 675 l 665 675 l 556 69 l 785 69 l 785 607 l 721 607 l 721 676 l 1021 675 z "},"ŵ":{"ha":1075,"x_min":56,"x_max":1019,"o":"m 538 1001 l 790 797 l 538 858 l 285 797 l 538 1001 m 1019 675 l 804 0 l 275 0 l 56 675 l 356 676 l 356 607 l 290 607 l 290 69 l 518 69 l 408 675 l 665 675 l 556 69 l 785 69 l 785 607 l 721 607 l 721 676 l 1019 675 z "},"ẅ":{"ha":1075,"x_min":56,"x_max":1019,"o":"m 307 1001 l 481 1001 l 481 828 l 307 828 l 307 1001 m 601 1001 l 775 1001 l 775 828 l 601 828 l 601 1001 m 1019 675 l 804 0 l 275 0 l 56 675 l 356 676 l 356 607 l 290 607 l 290 69 l 518 69 l 408 675 l 665 675 l 556 69 l 785 69 l 785 607 l 721 607 l 721 676 l 1019 675 z "},"ẁ":{"ha":1075,"x_min":56,"x_max":1019,"o":"m 624 979 l 638 781 l 353 979 l 624 979 m 1019 675 l 804 0 l 275 0 l 56 675 l 356 676 l 356 607 l 290 607 l 290 69 l 518 69 l 408 675 l 665 675 l 556 69 l 785 69 l 785 607 l 721 607 l 721 676 l 1019 675 z "},"x":{"ha":688,"x_min":56,"x_max":632,"o":"m 442 356 l 442 607 l 388 607 l 388 676 l 632 675 l 442 356 m 343 675 l 343 358 l 622 0 l 343 0 l 343 356 l 56 675 l 343 675 m 246 321 l 246 69 l 294 69 l 294 0 l 56 0 l 246 321 z "},"y":{"ha":749,"x_min":56,"x_max":693,"o":"m 693 675 l 443 138 l 443 -104 l 232 -104 l 442 156 l 442 607 l 390 607 l 390 676 l 693 675 m 307 675 l 307 153 l 56 675 l 307 675 z "},"ý":{"ha":747,"x_min":56,"x_max":692,"o":"m 279 981 l 549 981 l 265 782 l 279 981 m 692 676 l 443 138 l 443 -103 l 232 -103 l 442 157 l 442 608 l 390 608 l 390 678 l 692 676 m 307 676 l 307 154 l 56 676 l 307 676 z "},"ŷ":{"ha":749,"x_min":56,"x_max":693,"o":"m 394 1001 l 647 797 l 394 858 l 142 797 l 394 1001 m 693 675 l 444 136 l 444 -104 l 232 -104 l 442 156 l 442 607 l 390 607 l 390 676 l 693 675 m 307 675 l 307 151 l 56 675 l 307 675 z "},"ÿ":{"ha":749,"x_min":56,"x_max":693,"o":"m 163 1001 l 336 1001 l 336 828 l 163 828 l 163 1001 m 457 1001 l 631 1001 l 631 828 l 457 828 l 457 1001 m 693 676 l 444 138 l 444 -103 l 233 -103 l 443 157 l 443 608 l 392 608 l 392 678 l 693 676 m 308 676 l 308 154 l 56 676 l 308 676 z "},"ỵ":{"ha":749,"x_min":56,"x_max":693,"o":"m 308 678 l 308 154 l 56 678 l 308 678 m 693 678 l 444 139 l 444 -103 l 233 -103 l 442 157 l 442 608 l 392 608 l 392 678 l 693 678 m 489 -51 l 663 -51 l 663 -225 l 489 -225 l 489 -51 z "},"ỳ":{"ha":749,"x_min":56,"x_max":693,"o":"m 397 982 l 411 783 l 126 982 l 397 982 m 693 678 l 444 139 l 444 -101 l 233 -101 l 442 158 l 442 610 l 390 610 l 390 679 l 693 678 m 307 678 l 307 154 l 56 678 l 307 678 z "},"ỷ":{"ha":749,"x_min":56,"x_max":693,"o":"m 314 851 l 443 851 l 443 913 l 211 913 l 374 1028 l 510 943 l 510 826 l 378 774 l 378 714 l 314 714 l 314 851 m 693 678 l 444 139 l 444 -101 l 232 -101 l 442 158 l 442 610 l 390 610 l 390 679 l 693 678 m 307 678 l 307 154 l 56 678 l 307 678 z "},"ȳ":{"ha":757,"x_min":56,"x_max":701,"o":"m 56 976 l 665 976 l 624 921 l 167 838 l 56 976 m 701 675 l 453 136 l 453 -104 l 242 -104 l 450 156 l 450 607 l 400 607 l 400 676 l 701 675 m 317 675 l 317 153 l 64 675 l 317 675 z "},"ỹ":{"ha":747,"x_min":56,"x_max":692,"o":"m 635 1000 l 340 790 l 335 860 l 99 792 l 400 1006 l 406 940 l 635 1000 m 692 678 l 443 139 l 443 -101 l 232 -101 l 442 158 l 442 610 l 390 610 l 390 679 l 692 678 m 307 678 l 307 154 l 56 678 l 307 678 z "},"z":{"ha":678,"x_min":56,"x_max":622,"o":"m 333 71 l 453 71 l 582 196 l 582 0 l 56 0 l 333 358 l 333 607 l 214 607 l 85 481 l 85 676 l 622 676 l 333 350 l 333 71 z "},"ź":{"ha":678,"x_min":56,"x_max":622,"o":"m 258 979 l 529 979 l 244 781 l 258 979 m 335 69 l 454 69 l 582 196 l 582 0 l 56 0 l 335 357 l 335 607 l 215 607 l 86 481 l 86 676 l 622 676 l 335 350 l 335 69 z "},"ž":{"ha":679,"x_min":56,"x_max":624,"o":"m 308 797 l 56 1001 l 308 939 l 561 1001 l 308 797 m 336 69 l 456 69 l 583 196 l 583 0 l 58 0 l 336 357 l 336 607 l 217 607 l 88 481 l 88 676 l 624 676 l 336 350 l 336 69 z "},"ż":{"ha":678,"x_min":56,"x_max":622,"o":"m 261 1000 l 435 1000 l 435 826 l 261 826 l 261 1000 m 335 69 l 454 69 l 582 196 l 582 0 l 56 0 l 335 357 l 335 607 l 214 607 l 85 481 l 85 676 l 622 676 l 335 350 l 335 69 z "},"ａ":{"ha":1389,"x_min":297,"x_max":1108,"o":"m 1108 -1 l 507 0 l 297 253 l 524 471 l 524 69 l 806 69 l 806 606 l 518 606 l 310 419 l 310 675 l 829 675 l 1108 -1 z "},"ｂ":{"ha":1389,"x_min":303,"x_max":1075,"o":"m 1075 350 l 818 0 l 400 0 l 400 1004 l 303 1004 l 303 1074 l 728 1074 l 614 675 l 810 675 l 1075 350 m 440 69 l 804 69 l 804 606 l 593 606 l 440 69 z "},"ｃ":{"ha":1389,"x_min":311,"x_max":986,"o":"m 840 606 l 582 606 l 582 69 l 983 69 l 983 0 l 567 0 l 311 350 l 575 675 l 986 675 l 986 419 l 840 606 z "},"ｄ":{"ha":1389,"x_min":285,"x_max":1065,"o":"m 1065 1004 l 967 1004 l 967 69 l 1065 69 l 1065 0 l 540 0 l 285 350 l 549 675 l 753 675 l 638 1074 l 1065 1074 l 1065 1004 m 556 69 l 926 69 l 772 606 l 556 606 l 556 69 z "},"ｅ":{"ha":1389,"x_min":301,"x_max":1088,"o":"m 1003 254 l 1003 -1 l 557 0 l 301 350 l 565 675 l 1088 675 l 821 347 l 572 347 l 572 69 l 857 69 l 1003 254 m 813 606 l 572 606 l 572 417 l 813 417 l 813 606 z "},"ｆ":{"ha":1389,"x_min":383,"x_max":978,"o":"m 760 1025 l 760 675 l 879 675 l 879 713 l 935 713 l 935 574 l 879 574 l 879 606 l 760 606 l 760 69 l 868 69 l 868 0 l 621 0 l 621 69 l 722 69 l 579 606 l 440 606 l 440 574 l 383 574 l 383 713 l 440 713 l 440 675 l 560 675 l 454 1074 l 978 1074 l 978 833 l 760 1025 z "},"ｇ":{"ha":1389,"x_min":246,"x_max":1054,"o":"m 1054 419 l 908 606 l 811 606 l 1010 350 l 792 69 l 911 69 l 992 179 l 992 -111 l 781 -111 l 861 0 l 501 0 l 246 350 l 510 675 l 1054 675 l 1054 419 m 750 69 l 750 606 l 517 606 l 517 69 l 750 69 z "},"ｈ":{"ha":1389,"x_min":333,"x_max":1014,"o":"m 1014 69 l 1014 0 l 768 0 l 768 69 l 903 69 l 711 606 l 599 606 l 468 69 l 579 69 l 579 0 l 333 0 l 333 69 l 433 69 l 433 1004 l 333 1004 l 333 1074 l 713 1074 l 615 675 l 943 675 l 943 69 l 1014 69 z "},"ｉ":{"ha":1389,"x_min":500,"x_max":860,"o":"m 600 997 l 815 997 l 815 808 l 600 808 l 600 997 m 500 69 l 604 69 l 604 606 l 517 606 l 517 675 l 860 675 l 653 69 l 746 69 l 746 0 l 500 0 l 500 69 z "},"ｊ":{"ha":1389,"x_min":507,"x_max":858,"o":"m 754 997 l 754 808 l 539 808 l 539 997 l 754 997 m 858 675 l 858 606 l 763 606 l 763 -104 l 551 -104 l 728 114 l 507 675 l 858 675 z "},"ｋ":{"ha":1389,"x_min":329,"x_max":1058,"o":"m 947 69 l 1058 69 l 1058 0 l 811 0 l 811 69 l 906 69 l 694 285 l 517 285 l 464 69 l 576 69 l 576 0 l 329 0 l 329 69 l 431 69 l 431 1004 l 329 1004 l 329 1074 l 710 1074 l 533 354 l 760 354 l 760 606 l 711 606 l 711 675 l 1038 675 l 801 354 l 947 354 l 947 69 z "},"ｌ":{"ha":1389,"x_min":510,"x_max":881,"o":"m 510 1004 l 510 1074 l 881 1074 l 651 69 l 783 69 l 783 0 l 510 0 l 510 69 l 619 69 l 619 1004 l 510 1004 z "},"ｍ":{"ha":1389,"x_min":226,"x_max":1163,"o":"m 1163 69 l 1163 0 l 915 0 l 915 69 l 1033 69 l 850 606 l 810 606 l 708 69 l 808 69 l 808 0 l 561 0 l 561 69 l 660 69 l 578 606 l 543 606 l 358 69 l 474 69 l 474 0 l 226 0 l 226 69 l 310 69 l 310 606 l 256 606 l 256 675 l 1082 675 l 1082 69 l 1163 69 z "},"ｎ":{"ha":1389,"x_min":340,"x_max":1050,"o":"m 1050 69 l 1050 0 l 804 0 l 804 69 l 893 69 l 710 606 l 656 606 l 472 69 l 588 69 l 588 0 l 340 0 l 340 69 l 424 69 l 424 606 l 354 606 l 354 675 l 942 675 l 942 69 l 1050 69 z "},"ｏ":{"ha":1389,"x_min":282,"x_max":1106,"o":"m 1106 350 l 850 0 l 539 0 l 282 350 l 547 675 l 842 675 l 1106 350 m 553 69 l 835 69 l 835 606 l 553 606 l 553 69 z "},"ｐ":{"ha":1389,"x_min":360,"x_max":1100,"o":"m 1100 350 l 843 0 l 489 0 l 472 -50 l 607 -50 l 607 -119 l 360 -119 l 360 -50 l 443 -50 l 443 606 l 360 606 l 360 675 l 853 675 l 1100 350 m 510 69 l 829 69 l 829 606 l 678 606 l 510 69 z "},"ｑ":{"ha":1389,"x_min":307,"x_max":1082,"o":"m 1082 350 l 878 69 l 1024 -111 l 811 -111 l 811 0 l 564 0 l 307 350 l 571 675 l 818 675 l 1082 350 m 578 69 l 811 69 l 811 606 l 578 606 l 578 69 z "},"ｒ":{"ha":1389,"x_min":454,"x_max":969,"o":"m 969 457 l 786 651 l 575 69 l 701 69 l 701 0 l 454 0 l 454 69 l 538 69 l 538 607 l 468 607 l 468 676 l 969 675 l 969 457 z "},"ｓ":{"ha":1389,"x_min":354,"x_max":1035,"o":"m 1035 196 l 826 0 l 408 -1 l 408 194 l 538 69 l 804 69 l 804 296 l 563 296 l 354 490 l 575 675 l 904 675 l 904 479 l 776 606 l 583 606 l 583 365 l 833 365 l 1035 196 z "},"ｔ":{"ha":1389,"x_min":419,"x_max":971,"o":"m 915 713 l 971 713 l 971 572 l 915 572 l 915 606 l 794 606 l 646 106 l 856 106 l 593 -65 l 593 606 l 475 606 l 475 572 l 419 572 l 419 713 l 475 713 l 475 675 l 593 675 l 593 925 l 793 675 l 915 675 l 915 713 z "},"ｕ":{"ha":1389,"x_min":344,"x_max":1038,"o":"m 1038 607 l 960 607 l 960 69 l 1028 69 l 1028 0 l 414 0 l 414 607 l 344 607 l 344 676 l 658 675 l 460 69 l 915 69 l 722 675 l 1038 676 l 1038 607 z "},"ｖ":{"ha":1389,"x_min":404,"x_max":985,"o":"m 985 675 l 782 0 l 622 0 l 404 675 l 644 675 l 644 69 l 760 69 l 760 607 l 703 607 l 703 676 l 985 675 z "},"ｗ":{"ha":1389,"x_min":213,"x_max":1178,"o":"m 1178 675 l 961 0 l 432 0 l 213 675 l 514 676 l 514 607 l 449 607 l 449 69 l 676 69 l 567 675 l 822 675 l 713 69 l 942 69 l 942 607 l 878 607 l 878 676 l 1178 675 z "},"ｘ":{"ha":1389,"x_min":407,"x_max":983,"o":"m 793 356 l 793 607 l 739 607 l 739 676 l 983 675 l 793 356 m 694 675 l 694 358 l 974 0 l 694 0 l 694 356 l 407 675 l 694 675 m 597 321 l 597 69 l 646 69 l 646 0 l 407 0 l 597 321 z "},"ｙ":{"ha":1389,"x_min":363,"x_max":1000,"o":"m 1000 675 l 750 138 l 750 -104 l 539 -104 l 749 156 l 749 607 l 697 607 l 697 676 l 1000 675 m 614 675 l 614 153 l 363 675 l 614 675 z "},"ｚ":{"ha":1389,"x_min":411,"x_max":978,"o":"m 689 71 l 808 71 l 938 196 l 938 0 l 411 0 l 689 358 l 689 607 l 569 607 l 440 481 l 440 676 l 978 676 l 689 350 l 689 71 z "},"ﬁ":{"ha":946,"x_min":56,"x_max":890,"o":"m 890 675 l 683 69 l 776 69 l 776 0 l 568 0 l 568 69 l 635 69 l 635 606 l 429 606 l 429 69 l 518 69 l 518 0 l 292 0 l 292 69 l 393 69 l 250 606 l 111 606 l 111 574 l 56 574 l 56 713 l 111 713 l 111 675 l 232 675 l 125 1074 l 428 1176 l 861 1074 l 861 808 l 649 808 l 649 938 l 429 1056 l 429 675 l 890 675 z "},"ﬂ":{"ha":982,"x_min":56,"x_max":926,"o":"m 926 1074 l 697 69 l 806 69 l 806 0 l 604 0 l 604 69 l 665 69 l 665 606 l 421 606 l 421 69 l 507 69 l 507 0 l 267 0 l 267 69 l 367 69 l 250 606 l 111 606 l 111 574 l 56 574 l 56 713 l 111 713 l 111 675 l 232 675 l 153 1074 l 419 1176 l 926 1074 m 421 675 l 665 675 l 665 840 l 421 1065 l 421 675 z "},"ª":{"ha":711,"x_min":56,"x_max":656,"o":"m 656 501 l 232 501 l 56 696 l 249 890 l 249 571 l 425 571 l 425 1003 l 243 1003 l 68 817 l 68 1072 l 476 1072 l 656 501 z "},"º":{"ha":782,"x_min":56,"x_max":726,"o":"m 726 806 l 547 503 l 236 503 l 56 806 l 243 1072 l 539 1072 l 726 806 m 264 572 l 518 572 l 518 1003 l 264 1003 l 264 572 z "},"〆":{"ha":1389,"x_min":224,"x_max":1233,"o":"m 957 257 l 965 233 l 718 456 l 224 -39 l 425 854 l 647 606 l 1006 1092 l 1233 969 l 751 488 l 957 257 m 347 200 l 608 554 l 471 678 l 347 200 z "},"々":{"ha":1389,"x_min":179,"x_max":1210,"o":"m 1210 1078 l 871 294 l 1046 197 l 851 -25 l 479 511 l 661 411 l 896 1008 l 633 1008 l 390 542 l 288 344 l 179 554 l 308 547 l 363 1078 l 1210 1078 z "},"仝":{"ha":1389,"x_min":46,"x_max":1372,"o":"m 1169 717 l 1372 826 l 1310 506 l 679 1001 l 322 710 l 238 710 l 46 461 l 46 779 l 275 779 l 511 1133 l 471 1165 l 833 1165 l 1169 717 m 1161 21 l 1161 60 l 1217 60 l 1217 -89 l 1161 -89 l 1161 -49 l 268 -49 l 268 -89 l 213 -89 l 213 60 l 268 60 l 268 21 l 600 21 l 600 451 l 347 451 l 347 413 l 292 413 l 292 560 l 347 560 l 347 521 l 1082 521 l 1082 560 l 1138 560 l 1138 413 l 1082 413 l 1082 451 l 801 451 l 801 21 l 1161 21 z "},"あ":{"ha":1389,"x_min":88,"x_max":1332,"o":"m 1332 539 l 1000 -110 l 1000 450 l 440 -81 l 90 190 l 418 190 l 418 464 l 276 464 l 90 190 l 90 533 l 418 533 l 418 871 l 143 871 l 143 839 l 88 839 l 88 971 l 143 971 l 143 940 l 418 940 l 418 1136 l 779 1136 l 719 940 l 1032 940 l 1032 979 l 1088 979 l 1088 831 l 1032 831 l 1032 871 l 699 871 l 597 533 l 817 533 l 913 686 l 1249 686 l 1094 539 l 1332 539 m 493 190 l 599 190 l 772 464 l 576 464 l 493 190 z "},"ぁ":{"ha":1389,"x_min":174,"x_max":1239,"o":"m 1239 443 l 957 -108 l 957 367 l 481 -85 l 183 146 l 463 146 l 463 374 l 338 374 l 183 146 l 183 443 l 463 443 l 463 718 l 235 718 l 235 683 l 174 683 l 174 822 l 235 822 l 235 788 l 463 788 l 463 950 l 769 950 l 721 788 l 978 788 l 978 822 l 1036 822 l 1036 683 l 978 683 l 978 718 l 699 718 l 615 443 l 804 443 l 882 567 l 1168 567 l 1038 443 l 1239 443 m 526 153 l 615 153 l 760 381 l 594 381 l 526 153 z "},"い":{"ha":1389,"x_min":88,"x_max":1303,"o":"m 1303 299 l 1038 190 l 979 1032 l 983 1032 l 1303 299 m 396 267 l 699 408 l 392 -76 l 88 954 l 396 954 l 396 267 z "},"ぃ":{"ha":1389,"x_min":179,"x_max":1213,"o":"m 936 868 l 1213 235 l 986 143 l 936 868 m 442 208 q 504 235 465 218 q 585 270 543 251 q 660 304 628 289 q 699 328 692 319 l 438 -83 l 179 792 l 442 792 l 442 208 z "},"う":{"ha":1389,"x_min":196,"x_max":1233,"o":"m 876 1115 l 876 817 l 335 1115 l 876 1115 m 251 786 l 1233 789 l 1233 126 l 515 -108 l 1096 375 l 894 717 l 251 717 l 251 678 l 196 678 l 196 825 l 251 825 l 251 786 z "},"ぅ":{"ha":1389,"x_min":268,"x_max":1156,"o":"m 851 936 l 851 682 l 393 936 l 851 936 m 1156 661 l 1156 78 l 546 -122 l 1039 289 l 871 592 l 326 592 l 326 557 l 268 557 l 268 696 l 326 696 l 326 661 l 1156 661 z "},"え":{"ha":1389,"x_min":186,"x_max":1332,"o":"m 876 1113 l 876 813 l 335 1113 l 876 1113 m 689 350 l 911 -81 l 511 183 l 204 -110 l 200 -110 l 678 686 l 242 686 l 242 646 l 186 646 l 186 794 l 242 794 l 242 757 l 1121 757 l 689 350 m 911 207 l 1332 207 l 911 -81 l 911 207 z "},"ぇ":{"ha":1389,"x_min":267,"x_max":1246,"o":"m 858 942 l 858 688 l 399 942 l 858 942 m 700 278 l 889 -89 l 549 136 l 285 -114 l 686 557 l 325 557 l 325 522 l 267 522 l 267 661 l 325 661 l 325 626 l 1069 626 l 700 278 m 889 156 l 1246 156 l 889 -89 l 889 156 z "},"お":{"ha":1389,"x_min":136,"x_max":1332,"o":"m 1332 374 l 974 -108 l 974 304 l 542 304 l 451 -108 l 136 179 l 415 179 l 415 304 l 136 304 l 136 374 l 415 374 l 415 753 l 242 753 l 242 714 l 186 714 l 186 861 l 242 861 l 242 822 l 415 822 l 415 1128 l 732 1128 l 661 822 l 806 822 l 806 861 l 861 861 l 861 714 l 806 714 l 806 753 l 646 753 l 558 374 l 974 374 l 974 897 l 1288 897 l 983 374 l 1332 374 z "},"ぉ":{"ha":1389,"x_min":226,"x_max":1243,"o":"m 1243 303 l 938 -114 l 938 233 l 569 233 l 494 -114 l 226 132 l 463 132 l 463 233 l 226 233 l 226 303 l 463 303 l 463 614 l 322 614 l 322 579 l 264 579 l 264 718 l 322 718 l 322 683 l 463 683 l 463 938 l 733 938 l 674 683 l 789 683 l 789 718 l 847 718 l 847 579 l 789 579 l 789 614 l 658 614 l 586 303 l 938 303 l 938 742 l 1204 742 l 950 303 l 1243 303 z "},"か":{"ha":1389,"x_min":88,"x_max":1303,"o":"m 550 794 l 983 793 l 983 -110 l 579 200 l 864 200 l 663 725 l 533 725 l 333 -93 l 329 -93 l 329 725 l 143 725 l 143 685 l 88 685 l 88 833 l 143 833 l 143 794 l 329 794 l 329 1136 l 633 1136 l 550 794 m 956 1036 l 1303 1036 l 1303 254 l 956 1036 z "},"が":{"ha":1389,"x_min":88,"x_max":1332,"o":"m 1175 896 l 1175 1146 l 1028 896 l 1028 1165 l 1332 1165 l 1175 896 m 635 1136 l 550 794 l 983 793 l 983 -110 l 579 200 l 864 200 l 663 725 l 533 725 l 333 -93 l 329 -93 l 329 725 l 143 725 l 143 685 l 88 685 l 88 833 l 143 833 l 143 794 l 329 794 l 329 1136 l 635 1136 m 1304 254 l 969 883 l 1304 883 l 1304 254 z "},"き":{"ha":1389,"x_min":174,"x_max":1294,"o":"m 1294 828 l 1239 828 l 1239 867 l 894 867 l 894 703 l 1239 703 l 1239 743 l 1294 743 l 1294 594 l 1239 594 l 1239 633 l 894 633 l 894 167 l 588 347 l 588 -114 l 207 354 l 828 354 l 731 633 l 229 633 l 229 594 l 174 594 l 174 743 l 229 743 l 229 703 l 706 703 l 649 867 l 229 867 l 229 828 l 174 828 l 174 975 l 229 975 l 229 936 l 624 936 l 553 1136 l 894 1136 l 894 936 l 1239 936 l 1239 975 l 1294 975 l 1294 828 z "},"ぎ":{"ha":1389,"x_min":174,"x_max":1332,"o":"m 1332 1165 l 1199 936 l 1294 936 l 1294 828 l 1239 828 l 1239 867 l 894 867 l 894 703 l 1239 703 l 1239 743 l 1294 743 l 1294 594 l 1239 594 l 1239 633 l 894 633 l 894 167 l 588 347 l 588 -114 l 207 354 l 828 354 l 731 633 l 229 633 l 229 594 l 174 594 l 174 743 l 229 743 l 229 703 l 706 703 l 649 867 l 229 867 l 229 828 l 174 828 l 174 975 l 229 975 l 229 936 l 624 936 l 554 1136 l 894 1136 l 894 936 l 1028 936 l 1028 1165 l 1332 1165 m 1175 1146 l 1051 936 l 1175 936 l 1175 1146 z "},"く":{"ha":1389,"x_min":385,"x_max":1024,"o":"m 1024 1136 l 575 529 l 865 -96 l 860 -99 l 385 529 l 663 1136 l 1024 1136 z "},"ぐ":{"ha":1389,"x_min":386,"x_max":1332,"o":"m 1332 1165 l 1175 897 l 1175 1146 l 1028 897 l 1028 1165 l 1332 1165 m 663 1136 l 1025 1136 l 575 529 l 865 -96 l 860 -99 l 386 529 l 663 1136 z "},"け":{"ha":1389,"x_min":129,"x_max":1286,"o":"m 1231 824 l 1286 824 l 1286 676 l 1231 676 l 1231 715 l 1092 715 l 871 -110 l 868 -110 l 868 715 l 654 715 l 654 676 l 599 676 l 599 824 l 654 824 l 654 785 l 868 785 l 868 1136 l 1206 1136 l 1110 785 l 1231 785 l 1231 824 m 418 322 l 732 322 l 418 3 l 418 1 l 417 0 l 417 7 l 129 1013 l 418 1013 l 418 322 z "},"げ":{"ha":1389,"x_min":129,"x_max":1346,"o":"m 1188 919 l 1188 1168 l 1040 919 l 1040 1188 l 1346 1188 l 1188 919 m 1231 785 l 1231 824 l 1286 824 l 1286 676 l 1231 676 l 1231 715 l 1092 715 l 871 -110 l 868 -110 l 868 715 l 654 715 l 654 676 l 599 676 l 599 824 l 654 824 l 654 785 l 868 785 l 868 1136 l 1006 1136 l 1006 897 l 1147 897 l 1111 785 l 1231 785 m 418 1013 l 418 322 l 732 322 l 418 3 l 418 1 l 417 0 l 417 7 l 129 1013 l 418 1013 z "},"こ":{"ha":1389,"x_min":206,"x_max":1254,"o":"m 929 975 l 261 975 l 261 936 l 206 936 l 206 1083 l 261 1083 l 261 1046 l 1254 1046 l 929 729 l 929 975 m 268 -78 l 268 272 l 1240 272 l 268 -78 z "},"ご":{"ha":1389,"x_min":206,"x_max":1332,"o":"m 1332 1165 l 1175 896 l 1175 1146 l 1028 896 l 1028 1165 l 1332 1165 m 792 975 l 261 975 l 261 936 l 206 936 l 206 1083 l 261 1083 l 261 1046 l 1007 1046 l 792 668 l 792 975 m 268 -78 l 268 272 l 1240 272 l 268 -78 z "},"さ":{"ha":1389,"x_min":108,"x_max":1222,"o":"m 1167 913 l 1222 913 l 1222 765 l 1167 765 l 1167 804 l 922 804 l 922 232 l 631 403 l 631 -110 l 244 419 l 849 419 l 696 804 l 164 804 l 164 765 l 108 765 l 108 913 l 164 913 l 164 874 l 669 874 l 565 1136 l 922 1136 l 922 874 l 1167 874 l 1167 913 z "},"ざ":{"ha":1389,"x_min":110,"x_max":1332,"o":"m 1174 896 l 1174 1146 l 1026 896 l 1026 1165 l 1332 1165 l 1174 896 m 924 1136 l 924 874 l 1222 874 l 1222 765 l 1167 765 l 1167 804 l 924 804 l 924 232 l 632 403 l 632 -110 l 244 419 l 849 419 l 697 804 l 165 804 l 165 765 l 110 765 l 110 913 l 165 913 l 165 874 l 669 874 l 565 1136 l 924 1136 z "},"し":{"ha":1389,"x_min":536,"x_max":1038,"o":"m 618 231 l 1038 231 l 536 -108 l 536 1138 l 892 1138 l 618 231 z "},"じ":{"ha":1389,"x_min":536,"x_max":1332,"o":"m 1332 1165 l 1174 896 l 1174 1146 l 1026 896 l 1026 1165 l 1332 1165 m 892 1138 l 619 231 l 1039 231 l 536 -108 l 536 1138 l 892 1138 z "},"す":{"ha":1389,"x_min":86,"x_max":1303,"o":"m 1247 982 l 1303 982 l 1303 833 l 1247 833 l 1247 872 l 871 872 l 807 714 l 1133 714 l 829 -94 l 824 -94 l 824 644 l 778 644 l 600 185 l 400 549 l 651 549 l 651 644 l 369 644 l 369 714 l 651 714 l 651 872 l 142 872 l 142 833 l 86 833 l 86 982 l 142 982 l 142 942 l 651 942 l 651 1136 l 979 1136 l 900 942 l 1247 942 l 1247 982 z "},"ず":{"ha":1389,"x_min":86,"x_max":1332,"o":"m 1332 1186 l 1189 942 l 1303 942 l 1303 833 l 1247 833 l 1247 872 l 871 872 l 807 714 l 1135 714 l 829 -94 l 824 -94 l 824 644 l 778 644 l 600 185 l 401 549 l 651 549 l 651 644 l 369 644 l 369 714 l 651 714 l 651 872 l 142 872 l 142 833 l 86 833 l 86 982 l 142 982 l 142 942 l 651 942 l 651 1136 l 979 1136 l 900 942 l 1026 942 l 1026 1186 l 1332 1186 m 1174 1167 l 1042 942 l 1174 942 l 1174 1167 z "},"せ":{"ha":1389,"x_min":86,"x_max":1332,"o":"m 1332 201 l 354 -110 l 354 715 l 142 715 l 142 676 l 86 676 l 86 824 l 142 824 l 142 785 l 354 785 l 354 1125 l 651 1125 l 569 785 l 865 785 l 865 1125 l 1146 1125 l 1018 785 l 1247 785 l 1247 824 l 1303 824 l 1303 676 l 1247 676 l 1247 715 l 992 715 l 865 381 l 865 715 l 553 715 l 428 201 l 1332 201 z "},"ぜ":{"ha":1389,"x_min":86,"x_max":1372,"o":"m 1214 919 l 1214 1168 l 1068 919 l 1068 1188 l 1372 1188 l 1214 919 m 553 715 l 429 201 l 1332 201 l 354 -110 l 354 715 l 142 715 l 142 676 l 86 676 l 86 824 l 142 824 l 142 785 l 354 785 l 354 1125 l 651 1125 l 569 785 l 865 785 l 865 1125 l 1032 1125 l 1032 785 l 1247 785 l 1247 824 l 1303 824 l 1303 676 l 1247 676 l 1247 715 l 1022 715 l 865 381 l 865 715 l 553 715 z "},"そ":{"ha":1389,"x_min":86,"x_max":1303,"o":"m 378 1165 l 693 760 l 378 760 l 378 1165 m 1247 689 l 1303 689 l 1303 542 l 1247 542 l 1247 581 l 1061 581 l 696 265 l 1043 -108 l 472 32 l 821 581 l 142 581 l 142 542 l 86 542 l 86 689 l 142 689 l 142 650 l 783 650 l 783 1136 l 1121 1136 l 822 650 l 1247 650 l 1247 689 z "},"ぞ":{"ha":1389,"x_min":86,"x_max":1353,"o":"m 379 1165 l 693 760 l 379 760 l 379 1165 m 1247 650 l 1247 689 l 1303 689 l 1303 542 l 1247 542 l 1247 581 l 1061 581 l 696 265 l 1043 -108 l 474 32 l 821 581 l 142 581 l 142 542 l 86 542 l 86 689 l 142 689 l 142 650 l 785 650 l 785 1136 l 1122 1136 l 822 650 l 1247 650 m 1049 693 l 1049 963 l 1353 963 l 1196 693 l 1196 943 l 1049 693 z "},"た":{"ha":1389,"x_min":86,"x_max":1343,"o":"m 508 829 l 254 -110 l 254 829 l 142 829 l 142 790 l 86 790 l 86 938 l 142 938 l 142 899 l 254 899 l 254 1136 l 592 1136 l 526 899 l 724 899 l 724 938 l 779 938 l 779 790 l 724 790 l 724 829 l 508 829 m 649 713 l 1343 713 l 1072 396 l 1072 642 l 649 642 l 649 601 l 593 601 l 593 750 l 649 750 l 649 713 m 592 -78 l 592 275 l 1332 275 l 592 -78 z "},"だ":{"ha":1389,"x_min":86,"x_max":1343,"o":"m 722 790 l 722 829 l 508 829 l 253 -110 l 253 829 l 142 829 l 142 790 l 86 790 l 86 938 l 142 938 l 142 899 l 253 899 l 253 1136 l 590 1136 l 526 899 l 722 899 l 722 938 l 778 938 l 778 790 l 722 790 m 1174 803 l 1174 1051 l 1026 803 l 1026 1071 l 1332 1071 l 1174 803 m 1343 713 l 1072 396 l 1072 642 l 649 642 l 649 601 l 593 601 l 593 750 l 649 750 l 649 713 l 1343 713 m 592 -78 l 592 275 l 1332 275 l 592 -78 z "},"ち":{"ha":1389,"x_min":138,"x_max":1250,"o":"m 1250 111 l 547 -129 l 1026 383 l 417 383 l 417 804 l 193 804 l 193 765 l 138 765 l 138 914 l 193 914 l 193 874 l 417 874 l 417 1136 l 774 1136 l 649 874 l 1186 874 l 1186 914 l 1242 914 l 1242 765 l 1186 765 l 1186 804 l 615 804 l 447 453 l 1092 453 l 1250 111 z "},"ぢ":{"ha":1389,"x_min":138,"x_max":1303,"o":"m 1144 896 l 1144 1146 l 997 896 l 997 1165 l 1303 1165 l 1144 896 m 447 453 l 1092 453 l 1250 111 l 546 -129 l 1026 383 l 417 383 l 417 804 l 193 804 l 193 765 l 138 765 l 138 914 l 193 914 l 193 874 l 417 874 l 417 1136 l 774 1136 l 649 874 l 1186 874 l 1186 914 l 1242 914 l 1242 765 l 1186 765 l 1186 804 l 615 804 l 447 453 z "},"つ":{"ha":1389,"x_min":204,"x_max":1249,"o":"m 260 979 l 1249 982 l 1249 269 l 526 0 l 1115 521 l 908 910 l 260 910 l 260 869 l 204 869 l 204 1018 l 260 1018 l 260 979 z "},"っ":{"ha":1389,"x_min":276,"x_max":1171,"o":"m 1171 743 l 1171 138 l 556 -92 l 1057 351 l 883 676 l 335 676 l 335 649 l 276 649 l 276 774 l 335 774 l 335 746 l 1171 743 z "},"づ":{"ha":1389,"x_min":204,"x_max":1332,"o":"m 1332 1186 l 1213 982 l 1249 982 l 1249 269 l 525 0 l 1115 521 l 908 910 l 260 910 l 260 869 l 204 869 l 204 1018 l 260 1018 l 260 979 l 1026 982 l 1026 1186 l 1332 1186 m 1064 982 l 1174 982 l 1174 1167 l 1064 982 z "},"て":{"ha":1389,"x_min":204,"x_max":1303,"o":"m 1303 1046 l 565 347 l 1110 -110 l 349 89 l 913 978 l 260 978 l 260 939 l 204 939 l 204 1086 l 260 1086 l 260 1046 l 1303 1046 z "},"で":{"ha":1389,"x_min":204,"x_max":1332,"o":"m 1303 1046 l 564 347 l 1110 -110 l 349 89 l 913 978 l 260 978 l 260 939 l 204 939 l 204 1086 l 260 1086 l 260 1046 l 1303 1046 m 1332 725 l 1174 457 l 1174 706 l 1026 457 l 1026 725 l 1332 725 z "},"と":{"ha":1389,"x_min":58,"x_max":1257,"o":"m 1201 725 l 1257 725 l 1257 578 l 1201 578 l 1201 617 l 517 617 l 342 358 l 901 -108 l 185 125 l 185 686 l 372 686 l 58 1136 l 449 1136 l 449 686 l 1201 686 l 1201 725 z "},"ど":{"ha":1389,"x_min":57,"x_max":1332,"o":"m 1174 896 l 1174 1146 l 1026 896 l 1026 1165 l 1332 1165 l 1174 896 m 1201 686 l 1201 725 l 1257 725 l 1257 578 l 1201 578 l 1201 617 l 517 617 l 342 358 l 901 -108 l 185 125 l 185 686 l 372 686 l 57 1136 l 449 1136 l 449 686 l 1201 686 z "},"な":{"ha":1389,"x_min":117,"x_max":1301,"o":"m 549 797 l 319 86 l 319 797 l 172 797 l 172 758 l 117 758 l 117 906 l 172 906 l 172 867 l 319 867 l 319 1136 l 657 1136 l 571 867 l 753 867 l 753 906 l 808 906 l 808 758 l 753 758 l 753 797 l 549 797 m 1274 967 l 1274 697 l 875 967 l 1274 967 m 1246 321 l 1301 321 l 1301 174 l 1246 174 l 1246 213 l 1090 213 l 968 -110 l 681 138 l 968 138 l 968 213 l 681 213 l 681 282 l 968 282 l 968 693 l 1274 693 l 1117 282 l 1246 282 l 1246 321 z "},"に":{"ha":1389,"x_min":58,"x_max":1339,"o":"m 392 233 l 589 233 l 389 -85 l 58 1136 l 392 1136 l 392 233 m 1015 946 l 646 946 l 646 907 l 589 907 l 589 1056 l 646 1056 l 646 1017 l 1339 1017 l 1015 700 l 1015 946 m 671 -19 l 671 369 l 1332 369 l 671 -19 z "},"ぬ":{"ha":1389,"x_min":138,"x_max":1328,"o":"m 1247 313 l 1247 351 l 1303 351 l 1303 204 l 1247 204 l 1247 243 l 1144 243 l 1050 -108 l 744 168 l 1050 168 l 1050 243 l 744 243 l 744 313 l 1050 313 l 1050 860 l 1026 860 l 439 -108 l 138 224 l 425 224 l 425 860 l 389 860 l 138 224 l 138 929 l 425 929 l 425 1136 l 701 1136 l 647 929 l 807 929 l 889 1136 l 1194 1136 l 1069 928 l 1328 928 l 1163 313 l 1247 313 m 529 224 l 781 860 l 629 860 l 465 224 l 529 224 z "},"ね":{"ha":1389,"x_min":97,"x_max":1332,"o":"m 1275 350 l 1275 389 l 1331 389 l 1331 240 l 1275 240 l 1275 281 l 1190 281 l 1029 -110 l 701 206 l 1029 206 l 1029 281 l 701 281 l 701 350 l 1029 350 l 1029 551 l 608 551 l 333 93 l 301 -110 l 279 -110 l 279 110 l 97 282 l 279 418 l 279 717 l 194 717 l 194 678 l 139 678 l 139 826 l 194 826 l 194 786 l 279 786 l 279 1136 l 610 1136 l 517 786 l 714 786 l 714 728 l 650 621 l 1332 621 l 1219 350 l 1275 350 m 499 717 l 454 547 l 664 717 l 499 717 z "},"の":{"ha":1389,"x_min":146,"x_max":1332,"o":"m 1332 1079 l 1028 -108 l 1024 -108 l 1024 1010 l 801 1010 l 499 -12 l 146 383 l 499 290 l 499 1010 l 371 1010 l 146 383 l 146 1079 l 1332 1079 z "},"は":{"ha":1389,"x_min":58,"x_max":1303,"o":"m 367 1136 l 367 311 l 565 311 l 365 -108 l 365 -87 l 58 1136 l 367 1136 m 1247 906 l 1303 906 l 1303 758 l 1247 758 l 1247 797 l 1153 797 l 1006 282 l 1103 282 l 1103 321 l 1158 321 l 1158 174 l 1103 174 l 1103 213 l 985 213 l 893 -110 l 606 138 l 893 138 l 893 213 l 606 213 l 606 282 l 893 282 l 893 797 l 751 797 l 751 758 l 696 758 l 696 906 l 751 906 l 751 867 l 893 867 l 893 1136 l 1249 1136 l 1172 867 l 1247 867 l 1247 906 z "},"ば":{"ha":1389,"x_min":58,"x_max":1376,"o":"m 1218 931 l 1218 1179 l 1071 931 l 1071 1199 l 1376 1199 l 1218 931 m 367 1136 l 367 311 l 565 311 l 365 -108 l 58 1136 l 367 1136 m 1247 865 l 1247 906 l 1303 906 l 1303 758 l 1247 758 l 1247 797 l 1151 797 l 1004 282 l 1103 282 l 1103 321 l 1158 321 l 1158 174 l 1103 174 l 1103 213 l 985 213 l 893 -110 l 606 138 l 893 138 l 893 213 l 606 213 l 606 282 l 893 282 l 893 797 l 750 797 l 750 758 l 694 758 l 694 906 l 750 906 l 750 867 l 893 867 l 893 1136 l 1039 1136 l 1039 865 l 1247 865 z "},"ぱ":{"ha":1389,"x_min":58,"x_max":1365,"o":"m 1068 1203 l 1365 1203 l 1365 906 l 1068 906 l 1068 1203 m 367 1136 l 367 311 l 565 311 l 365 -108 l 58 1136 l 367 1136 m 1025 871 l 1303 871 l 1303 758 l 1247 758 l 1247 797 l 1153 797 l 1006 282 l 1103 282 l 1103 321 l 1158 321 l 1158 174 l 1103 174 l 1103 213 l 985 213 l 893 -110 l 606 138 l 893 138 l 893 213 l 606 213 l 606 282 l 893 282 l 893 797 l 751 797 l 751 758 l 696 758 l 696 906 l 751 906 l 751 867 l 893 867 l 893 1136 l 1025 1136 l 1025 871 m 1296 989 l 1296 1118 l 1138 1118 l 1138 989 l 1296 989 z "},"ひ":{"ha":1389,"x_min":88,"x_max":1332,"o":"m 88 1136 l 549 1136 l 249 132 l 274 985 l 88 1136 m 1192 1010 l 978 125 l 942 -108 l 249 132 l 976 132 l 976 1136 l 1332 1136 l 1192 1010 z "},"び":{"ha":1389,"x_min":88,"x_max":1332,"o":"m 1174 896 l 1174 1146 l 1028 896 l 1028 1165 l 1332 1165 l 1174 896 m 88 1136 l 549 1136 l 249 132 l 274 985 l 88 1136 m 1332 896 l 1190 771 l 978 125 l 940 -108 l 249 132 l 976 132 l 976 896 l 1332 896 z "},"ぴ":{"ha":1389,"x_min":88,"x_max":1333,"o":"m 1007 1204 l 1304 1204 l 1304 869 l 1007 869 l 1007 1204 m 88 1136 l 549 1136 l 249 132 l 274 985 l 88 1136 m 1235 954 l 1235 1121 l 1076 1121 l 1076 954 l 1235 954 m 1192 690 l 978 125 l 942 -108 l 249 132 l 976 132 l 976 817 l 1333 817 l 1192 690 z "},"ふ":{"ha":1389,"x_min":58,"x_max":1332,"o":"m 908 1115 l 908 779 l 382 1115 l 908 1115 m 801 196 l 567 746 l 915 746 l 915 -108 l 408 196 l 801 196 m 1051 526 l 1332 -79 l 1051 -79 l 1051 526 m 351 -108 l 58 458 l 351 458 l 351 -108 z "},"ぶ":{"ha":1389,"x_min":58,"x_max":1332,"o":"m 1174 897 l 1174 1146 l 1028 897 l 1028 1165 l 1332 1165 l 1174 897 m 908 1115 l 908 779 l 381 1115 l 908 1115 m 801 196 l 565 746 l 914 746 l 914 -108 l 408 196 l 801 196 m 1050 -79 l 1050 526 l 1332 -79 l 1050 -79 m 350 -108 l 58 458 l 350 458 l 350 -108 z "},"ぷ":{"ha":1389,"x_min":58,"x_max":1333,"o":"m 1007 1204 l 1304 1204 l 1304 869 l 1007 869 l 1007 1204 m 1235 954 l 1235 1121 l 1076 1121 l 1076 954 l 1235 954 m 908 1115 l 908 779 l 382 1115 l 908 1115 m 801 196 l 567 746 l 915 746 l 915 -108 l 408 196 l 801 196 m 1051 526 l 1333 -79 l 1051 -79 l 1051 526 m 351 -108 l 58 458 l 351 458 l 351 -108 z "},"へ":{"ha":1389,"x_min":110,"x_max":1367,"o":"m 1150 154 l 469 1018 l 110 275 l 196 1032 l 822 1032 l 1076 351 l 1367 351 l 1150 154 z "},"べ":{"ha":1389,"x_min":110,"x_max":1367,"o":"m 1174 896 l 1174 1146 l 1028 896 l 1028 1165 l 1332 1165 l 1174 896 m 1076 351 l 1367 351 l 1149 154 l 468 1018 l 110 275 l 196 1032 l 822 1032 l 1076 351 z "},"ぺ":{"ha":1389,"x_min":110,"x_max":1367,"o":"m 1007 1204 l 1304 1204 l 1304 869 l 1007 869 l 1007 1204 m 1235 953 l 1235 1119 l 1076 1119 l 1076 953 l 1235 953 m 1150 154 l 469 1018 l 110 275 l 196 1032 l 822 1032 l 1076 351 l 1367 351 l 1150 154 z "},"ほ":{"ha":1389,"x_min":58,"x_max":1297,"o":"m 367 1136 l 367 306 l 565 306 l 365 -108 l 58 1136 l 367 1136 m 1297 985 l 1242 985 l 1242 1024 l 1174 1024 l 1107 765 l 1242 765 l 1242 806 l 1297 806 l 1297 657 l 1242 657 l 1242 696 l 1089 696 l 994 333 l 1103 333 l 1103 372 l 1158 372 l 1158 225 l 1103 225 l 1103 264 l 976 264 l 879 -108 l 606 189 l 893 189 l 893 264 l 606 264 l 606 333 l 893 333 l 893 696 l 653 696 l 653 657 l 596 657 l 596 806 l 653 806 l 653 765 l 893 765 l 893 1024 l 653 1024 l 653 985 l 596 985 l 596 1132 l 653 1132 l 653 1093 l 1242 1093 l 1242 1132 l 1297 1132 l 1297 985 z "},"ぼ":{"ha":1389,"x_min":58,"x_max":1332,"o":"m 1174 896 l 1174 1146 l 1028 896 l 1028 1165 l 1332 1165 l 1174 896 m 367 1136 l 367 306 l 565 306 l 365 -108 l 58 1136 l 367 1136 m 1240 765 l 1240 806 l 1296 806 l 1296 657 l 1240 657 l 1240 696 l 1089 696 l 994 333 l 1103 333 l 1103 372 l 1158 372 l 1158 225 l 1103 225 l 1103 264 l 976 264 l 879 -108 l 606 189 l 893 189 l 893 264 l 606 264 l 606 333 l 893 333 l 893 696 l 651 696 l 651 657 l 596 657 l 596 806 l 651 806 l 651 765 l 893 765 l 893 1024 l 651 1024 l 651 985 l 596 985 l 596 1132 l 651 1132 l 651 1093 l 1000 1093 l 1000 871 l 1132 871 l 1107 765 l 1240 765 z "},"ぽ":{"ha":1389,"x_min":58,"x_max":1364,"o":"m 1067 1204 l 1364 1204 l 1364 875 l 1067 875 l 1067 1204 m 367 1136 l 367 306 l 565 306 l 365 -108 l 58 1136 l 367 1136 m 1019 1093 l 1019 831 l 1124 831 l 1107 765 l 1242 765 l 1242 806 l 1297 806 l 1297 657 l 1242 657 l 1242 696 l 1089 696 l 994 333 l 1103 333 l 1103 372 l 1158 372 l 1158 225 l 1103 225 l 1103 264 l 976 264 l 879 -108 l 606 189 l 893 189 l 893 264 l 606 264 l 606 333 l 893 333 l 893 696 l 651 696 l 651 657 l 596 657 l 596 806 l 651 806 l 651 765 l 893 765 l 893 1024 l 651 1024 l 651 985 l 596 985 l 596 1132 l 651 1132 l 651 1093 l 1019 1093 m 1294 953 l 1294 1119 l 1136 1119 l 1136 953 l 1294 953 z "},"ま":{"ha":1389,"x_min":117,"x_max":1281,"o":"m 1281 850 l 1225 850 l 1225 889 l 846 889 l 800 725 l 1225 725 l 1225 765 l 1281 765 l 1281 617 l 1225 617 l 1225 656 l 779 656 l 679 304 l 1079 304 l 1079 344 l 1135 344 l 1135 196 l 1079 196 l 1079 235 l 660 235 l 561 -110 l 274 139 l 561 139 l 561 235 l 274 235 l 274 304 l 561 304 l 561 656 l 172 656 l 172 617 l 117 617 l 117 765 l 172 765 l 172 725 l 561 725 l 561 889 l 172 889 l 172 850 l 117 850 l 117 997 l 172 997 l 172 958 l 561 958 l 561 1136 l 917 1136 l 867 958 l 1225 958 l 1225 997 l 1281 997 l 1281 850 z "},"み":{"ha":1389,"x_min":86,"x_max":1303,"o":"m 1247 469 l 1303 469 l 1303 322 l 1247 322 l 1247 361 l 993 361 l 875 -108 l 871 -108 l 871 361 l 517 361 l 400 -19 l 88 285 l 426 285 l 426 361 l 86 361 l 86 431 l 426 431 l 426 1019 l 164 1019 l 164 981 l 108 981 l 108 1128 l 164 1128 l 164 1089 l 749 1092 l 539 431 l 871 431 l 871 1136 l 1193 1136 l 1011 431 l 1247 431 l 1247 469 z "},"む":{"ha":1389,"x_min":74,"x_max":1256,"o":"m 963 792 l 1256 792 l 1256 -79 l 753 -79 l 753 -82 l 751 -79 l 486 354 l 350 -108 l 74 185 l 360 185 l 360 310 l 83 310 l 83 379 l 360 379 l 360 858 l 188 858 l 188 819 l 132 819 l 132 967 l 188 967 l 188 928 l 360 928 l 360 1136 l 715 1136 l 654 928 l 825 928 l 825 967 l 881 967 l 881 819 l 825 819 l 825 858 l 635 858 l 499 396 l 753 396 l 753 -10 l 999 -10 l 1254 486 l 963 792 z "},"め":{"ha":1389,"x_min":136,"x_max":1332,"o":"m 1332 928 l 1063 -110 l 1054 -110 l 1054 858 l 1046 858 l 439 -110 l 136 222 l 413 222 l 413 858 l 365 858 l 136 222 l 136 928 l 413 928 l 413 1136 l 682 1136 l 629 928 l 828 928 l 915 1136 l 1221 1136 l 1090 928 l 1332 928 m 532 222 l 799 858 l 613 858 l 451 222 l 532 222 z "},"も":{"ha":1389,"x_min":197,"x_max":1192,"o":"m 432 -108 l 432 507 l 253 507 l 253 468 l 197 468 l 197 617 l 253 617 l 253 576 l 432 576 l 432 740 l 253 740 l 253 701 l 197 701 l 197 849 l 253 849 l 253 810 l 432 810 l 432 1136 l 751 1136 l 665 810 l 1089 810 l 1089 849 l 1144 849 l 1144 701 l 1089 701 l 1089 740 l 647 740 l 604 576 l 1089 576 l 1089 617 l 1144 617 l 1144 468 l 1089 468 l 1089 507 l 586 507 l 513 231 l 1192 231 l 432 -108 z "},"や":{"ha":1389,"x_min":88,"x_max":1333,"o":"m 1333 750 l 978 199 l 581 422 l 581 -110 l 574 -110 l 392 681 l 143 681 l 143 642 l 88 642 l 88 790 l 143 790 l 143 750 l 375 750 l 283 1136 l 581 1136 l 581 750 l 738 750 l 738 1136 l 1057 1136 l 772 750 l 1333 750 m 978 681 l 581 681 l 581 422 l 978 422 l 978 681 z "},"ゃ":{"ha":1389,"x_min":176,"x_max":1240,"o":"m 1240 608 l 939 135 l 600 325 l 600 -126 l 440 540 l 232 540 l 232 506 l 176 506 l 176 644 l 232 644 l 232 610 l 424 610 l 347 932 l 600 932 l 600 610 l 733 610 l 733 932 l 1004 932 l 767 610 l 1240 608 m 938 540 l 600 540 l 600 325 l 938 325 l 938 540 z "},"ゆ":{"ha":1389,"x_min":58,"x_max":1332,"o":"m 1332 928 l 1000 15 l 675 149 l 611 -108 l 606 -108 l 606 176 l 367 274 l 367 13 l 58 1083 l 367 1083 l 367 928 l 606 928 l 606 1136 l 943 1136 l 888 928 l 1332 928 m 367 299 l 606 299 l 606 858 l 367 858 l 367 299 m 717 299 l 1000 299 l 1000 858 l 868 858 l 717 299 z "},"ゅ":{"ha":1389,"x_min":153,"x_max":1236,"o":"m 1236 757 l 954 -24 l 678 89 l 619 -129 l 619 113 l 415 196 l 415 -26 l 153 883 l 415 883 l 415 757 l 619 757 l 619 929 l 906 929 l 860 757 l 1236 757 m 415 217 l 619 217 l 619 688 l 415 688 l 415 217 m 713 217 l 954 217 l 954 688 l 840 688 l 713 217 z "},"よ":{"ha":1389,"x_min":274,"x_max":1139,"o":"m 1139 714 l 1083 714 l 1083 753 l 803 753 l 683 350 l 1079 350 l 1079 390 l 1135 390 l 1135 242 l 1079 242 l 1079 281 l 664 281 l 549 -108 l 274 185 l 561 185 l 561 281 l 274 281 l 274 350 l 561 350 l 561 1136 l 917 1136 l 824 822 l 1083 822 l 1083 861 l 1139 861 l 1139 714 z "},"ょ":{"ha":1389,"x_min":339,"x_max":1078,"o":"m 1078 576 l 1022 576 l 1022 611 l 788 611 l 694 299 l 1019 299 l 1019 333 l 1075 333 l 1075 194 l 1019 194 l 1019 229 l 674 229 l 572 -115 l 339 133 l 583 133 l 583 229 l 339 229 l 339 299 l 583 299 l 583 943 l 886 943 l 808 681 l 1022 681 l 1022 715 l 1078 715 l 1078 576 z "},"ら":{"ha":1389,"x_min":389,"x_max":1250,"o":"m 1060 1115 l 1060 846 l 519 1115 l 1060 1115 m 1250 92 l 606 -110 l 1029 363 l 389 363 l 389 913 l 692 913 l 426 432 l 1092 432 l 1250 92 z "},"り":{"ha":1389,"x_min":317,"x_max":1206,"o":"m 868 1136 l 1206 1136 l 874 -108 l 868 -108 l 868 1136 m 607 1064 l 424 500 l 692 500 l 317 174 l 317 1064 l 607 1064 z "},"る":{"ha":1389,"x_min":157,"x_max":1279,"o":"m 896 -111 l 894 -110 l 893 -111 l 893 -108 l 619 182 l 979 182 l 1007 279 l 619 279 l 619 349 l 1028 349 l 1101 597 l 610 597 l 610 1024 l 213 1024 l 213 985 l 157 985 l 157 1133 l 213 1133 l 213 1093 l 988 1093 l 636 667 l 1121 667 l 1279 325 l 896 -111 z "},"れ":{"ha":1389,"x_min":89,"x_max":1332,"o":"m 1332 317 l 928 -110 l 928 560 l 569 560 l 344 143 l 297 -110 l 283 -110 l 283 104 l 89 288 l 283 465 l 283 775 l 151 775 l 151 735 l 96 735 l 96 883 l 151 883 l 151 844 l 283 844 l 283 1150 l 588 1150 l 514 844 l 678 844 l 678 785 l 599 629 l 1231 629 l 1064 222 l 1332 317 m 497 775 l 463 631 l 619 775 l 497 775 z "},"ろ":{"ha":1389,"x_min":157,"x_max":1279,"o":"m 536 -108 l 524 -108 l 1068 596 l 631 596 l 631 1024 l 213 1024 l 213 985 l 157 985 l 157 1132 l 213 1132 l 213 1093 l 988 1093 l 682 665 l 1121 665 l 1279 325 l 536 -108 z "},"わ":{"ha":1389,"x_min":86,"x_max":1332,"o":"m 1332 621 l 999 -110 l 999 551 l 560 551 l 317 92 l 272 -110 l 260 -110 l 260 124 l 88 288 l 260 432 l 260 751 l 142 751 l 142 713 l 86 713 l 86 861 l 142 861 l 142 821 l 260 821 l 260 1136 l 590 1136 l 507 821 l 665 821 l 665 751 l 596 621 l 1332 621 m 642 751 l 488 751 l 453 621 l 485 621 l 642 751 z "},"ゎ":{"ha":1389,"x_min":176,"x_max":1239,"o":"m 1239 508 l 956 -112 l 956 449 l 582 449 l 369 46 l 328 -112 l 328 86 l 181 225 l 328 347 l 328 614 l 232 614 l 232 579 l 176 579 l 176 718 l 232 718 l 232 683 l 328 683 l 328 946 l 608 946 l 539 683 l 688 683 l 688 614 l 614 507 l 1239 508 m 658 614 l 521 614 l 492 507 l 538 507 l 658 614 z "},"ゐ":{"ha":1389,"x_min":90,"x_max":1332,"o":"m 551 467 l 1332 467 l 1010 -108 l 749 167 l 1010 167 l 1010 243 l 749 243 l 749 313 l 1010 313 l 1010 397 l 529 397 l 379 -104 l 90 397 l 90 467 l 426 467 l 426 1019 l 174 1019 l 174 981 l 118 981 l 118 1128 l 174 1128 l 174 1090 l 749 1090 l 551 467 m 426 167 l 426 397 l 104 397 l 426 167 z "},"ゑ":{"ha":1389,"x_min":90,"x_max":1300,"o":"m 1100 893 l 778 465 l 539 465 l 539 519 l 479 360 l 626 -67 l 389 101 l 325 -79 l 90 -79 l 539 535 l 778 535 l 778 879 l 646 679 l 646 1068 l 371 1068 l 371 1029 l 315 1029 l 315 1176 l 371 1176 l 371 1136 l 944 1136 l 788 893 l 1100 893 m 626 -67 l 756 242 l 1040 242 l 626 -67 m 1300 -79 l 1040 -79 l 1040 242 l 1300 -79 z "},"を":{"ha":1389,"x_min":115,"x_max":1258,"o":"m 1203 440 l 1258 440 l 1258 308 l 1203 308 l 1203 339 l 953 339 l 953 242 l 861 339 l 732 339 l 628 178 l 1108 -81 l 464 -81 l 464 408 l 794 408 l 664 547 l 421 547 l 286 188 l 286 860 l 171 860 l 171 821 l 115 821 l 115 969 l 171 969 l 171 931 l 286 931 l 286 1136 l 642 1136 l 565 931 l 1036 931 l 1036 969 l 1092 969 l 1092 821 l 1036 821 l 1036 860 l 539 860 l 447 617 l 953 617 l 953 408 l 1203 408 l 1203 440 z "},"ん":{"ha":1389,"x_min":224,"x_max":1332,"o":"m 224 1136 l 550 1136 l 224 -108 l 224 1136 m 1332 317 l 968 -79 l 564 210 l 224 -108 l 608 606 l 968 -42 l 968 317 l 1332 317 z "},"ゔ":{"ha":1389,"x_min":196,"x_max":1332,"o":"m 1174 896 l 1174 1146 l 1026 896 l 1026 1165 l 1332 1165 l 1174 896 m 876 1115 l 876 817 l 335 1115 l 876 1115 m 251 786 l 1233 789 l 1233 126 l 515 -108 l 1096 375 l 894 717 l 251 717 l 251 678 l 196 678 l 196 825 l 251 825 l 251 786 z "},"ア":{"ha":1389,"x_min":88,"x_max":1332,"o":"m 1332 1057 l 943 325 l 943 988 l 143 988 l 143 949 l 88 949 l 88 1097 l 143 1097 l 143 1057 l 1332 1057 m 508 -108 l 508 701 l 882 701 l 508 -108 z "},"ァ":{"ha":1389,"x_min":175,"x_max":1239,"o":"m 1239 863 l 908 235 l 908 793 l 233 793 l 233 758 l 175 758 l 175 897 l 233 897 l 233 863 l 1239 863 m 539 -133 l 539 554 l 856 554 l 539 -133 z "},"イ":{"ha":1389,"x_min":139,"x_max":1251,"o":"m 1251 1169 l 1251 801 l 894 801 l 894 -108 l 563 801 l 139 801 l 1251 1169 z "},"ィ":{"ha":1389,"x_min":222,"x_max":1168,"o":"m 1168 963 l 1168 650 l 865 650 l 865 -124 l 583 650 l 222 650 l 1168 963 z "},"ウ":{"ha":1389,"x_min":135,"x_max":1332,"o":"m 1332 867 l 917 -107 l 917 797 l 483 797 l 135 332 l 135 865 l 632 867 l 633 1136 l 1006 1136 l 704 867 l 1332 867 z "},"ゥ":{"ha":1389,"x_min":225,"x_max":1243,"o":"m 1243 715 l 890 -111 l 890 657 l 522 657 l 225 263 l 225 715 l 649 715 l 649 946 l 965 946 l 710 715 l 1243 715 z "},"エ":{"ha":1389,"x_min":88,"x_max":1303,"o":"m 1247 247 l 1303 247 l 1303 99 l 1247 99 l 1247 138 l 143 138 l 143 99 l 88 99 l 88 247 l 143 247 l 143 207 l 586 207 l 586 907 l 179 907 l 179 867 l 124 867 l 124 1015 l 179 1015 l 179 976 l 1211 976 l 1211 1015 l 1267 1015 l 1267 867 l 1211 867 l 1211 907 l 925 907 l 603 207 l 1247 207 l 1247 247 z "},"ェ":{"ha":1389,"x_min":172,"x_max":1218,"o":"m 1160 106 l 1218 106 l 1218 -33 l 1160 -33 l 1160 1 l 232 1 l 232 -33 l 172 -33 l 172 106 l 232 106 l 232 71 l 603 71 l 603 654 l 263 654 l 263 619 l 204 619 l 204 758 l 263 758 l 263 724 l 1128 724 l 1128 758 l 1188 758 l 1188 619 l 1128 619 l 1128 654 l 889 654 l 619 71 l 1160 71 l 1160 106 z "},"オ":{"ha":1389,"x_min":92,"x_max":1307,"o":"m 1251 886 l 1307 886 l 1307 739 l 1251 739 l 1251 778 l 1007 778 l 1007 -87 l 1001 -90 l 779 683 l 161 -57 l 157 -54 l 556 778 l 147 778 l 147 739 l 92 739 l 92 886 l 147 886 l 147 847 l 732 847 l 649 1136 l 1007 1136 l 1007 847 l 1251 847 l 1251 886 z "},"ォ":{"ha":1389,"x_min":178,"x_max":1222,"o":"m 1164 707 l 1222 707 l 1222 568 l 1164 568 l 1164 603 l 961 603 l 961 -119 l 954 -119 l 768 528 l 253 -89 l 246 -83 l 575 603 l 236 603 l 236 568 l 178 568 l 178 707 l 236 707 l 236 672 l 726 672 l 657 913 l 961 913 l 961 672 l 1164 672 l 1164 707 z "},"カ":{"ha":1389,"x_min":88,"x_max":1315,"o":"m 1315 826 l 938 -79 l 926 -79 l 926 757 l 699 757 l 460 -79 l 451 -79 l 451 757 l 143 757 l 143 718 l 88 718 l 88 867 l 143 867 l 143 826 l 451 826 l 451 1136 l 807 1136 l 718 826 l 1315 826 z "},"ヵ":{"ha":1389,"x_min":174,"x_max":1222,"o":"m 1222 658 l 906 -108 l 892 -108 l 892 589 l 697 589 l 499 -106 l 489 -106 l 489 589 l 232 589 l 232 554 l 174 554 l 174 693 l 232 693 l 232 658 l 489 658 l 489 917 l 790 917 l 717 658 l 1222 658 z "},"ガ":{"ha":1389,"x_min":88,"x_max":1332,"o":"m 1175 897 l 1175 1146 l 1028 897 l 1028 1165 l 1332 1165 l 1175 897 m 807 1136 l 718 826 l 1315 826 l 939 -79 l 926 -79 l 926 757 l 699 757 l 460 -79 l 451 -79 l 451 757 l 143 757 l 143 718 l 88 718 l 88 867 l 143 867 l 143 826 l 451 826 l 451 1136 l 807 1136 z "},"キ":{"ha":1389,"x_min":88,"x_max":1303,"o":"m 1303 688 l 1247 688 l 1247 726 l 825 726 l 825 401 l 1247 401 l 1247 440 l 1303 440 l 1303 292 l 1247 292 l 1247 332 l 825 332 l 825 -79 l 818 -81 l 706 332 l 143 332 l 143 292 l 88 292 l 88 440 l 143 440 l 143 401 l 686 401 l 597 726 l 143 726 l 143 688 l 88 688 l 88 836 l 143 836 l 143 796 l 578 796 l 485 1136 l 825 1136 l 825 796 l 1247 796 l 1247 836 l 1303 836 l 1303 688 z "},"ギ":{"ha":1389,"x_min":88,"x_max":1332,"o":"m 1175 897 l 1175 1146 l 1028 897 l 1028 1165 l 1332 1165 l 1175 897 m 1249 796 l 1249 836 l 1304 836 l 1304 688 l 1249 688 l 1249 726 l 826 726 l 826 401 l 1249 401 l 1249 440 l 1304 440 l 1304 292 l 1249 292 l 1249 332 l 826 332 l 826 -79 l 818 -81 l 706 332 l 143 332 l 143 292 l 88 292 l 88 440 l 143 440 l 143 401 l 686 401 l 597 726 l 143 726 l 143 688 l 88 688 l 88 836 l 143 836 l 143 796 l 578 796 l 485 1136 l 826 1136 l 826 796 l 1249 796 z "},"ク":{"ha":1389,"x_min":168,"x_max":1264,"o":"m 561 -79 l 889 988 l 560 988 l 168 235 l 272 1056 l 1264 1056 l 561 -79 z "},"グ":{"ha":1389,"x_min":168,"x_max":1332,"o":"m 1264 1056 l 561 -79 l 890 988 l 561 988 l 168 235 l 272 1056 l 1264 1056 m 1332 649 l 1175 381 l 1175 629 l 1028 381 l 1028 649 l 1332 649 z "},"ケ":{"ha":1389,"x_min":63,"x_max":1303,"o":"m 1247 926 l 1303 926 l 1303 779 l 1247 779 l 1247 818 l 1096 818 l 461 -79 l 450 -79 l 767 818 l 363 818 l 68 285 l 63 288 l 215 1136 l 539 1136 l 401 888 l 1247 888 l 1247 926 z "},"ヶ":{"ha":1389,"x_min":186,"x_max":1243,"o":"m 1185 732 l 1243 732 l 1243 593 l 1185 593 l 1185 628 l 1057 628 l 522 -128 l 515 -122 l 779 628 l 435 628 l 197 196 l 186 200 l 313 904 l 588 904 l 474 697 l 1185 697 l 1185 732 z "},"ゲ":{"ha":1389,"x_min":63,"x_max":1332,"o":"m 1175 897 l 1175 1146 l 1028 897 l 1028 1165 l 1332 1165 l 1175 897 m 1249 888 l 1249 926 l 1304 926 l 1304 779 l 1249 779 l 1249 818 l 1096 818 l 461 -79 l 451 -79 l 767 818 l 363 818 l 69 285 l 63 288 l 215 1136 l 539 1136 l 401 888 l 1249 888 z "},"コ":{"ha":1389,"x_min":181,"x_max":1318,"o":"m 1318 975 l 982 -79 l 972 -79 l 972 138 l 236 138 l 236 99 l 181 99 l 181 247 l 236 247 l 236 207 l 972 207 l 972 906 l 236 906 l 236 867 l 181 867 l 181 1015 l 236 1015 l 236 976 l 1318 975 z "},"ゴ":{"ha":1389,"x_min":181,"x_max":1332,"o":"m 1332 1200 l 1201 975 l 1318 975 l 982 -79 l 972 -79 l 972 138 l 236 138 l 236 99 l 181 99 l 181 247 l 236 247 l 236 207 l 972 207 l 972 906 l 236 906 l 236 867 l 181 867 l 181 1015 l 236 1015 l 236 976 l 1028 975 l 1028 1200 l 1332 1200 m 1175 1181 l 1054 975 l 1175 975 l 1175 1181 z "},"サ":{"ha":1389,"x_min":86,"x_max":1303,"o":"m 1247 858 l 1303 858 l 1303 710 l 1247 710 l 1247 750 l 1047 750 l 811 -79 l 803 -79 l 803 750 l 551 750 l 344 93 l 344 750 l 142 750 l 142 710 l 86 710 l 86 858 l 142 858 l 142 819 l 344 819 l 344 1057 l 647 1057 l 572 819 l 803 819 l 803 1136 l 1157 1136 l 1067 819 l 1247 819 l 1247 858 z "},"ザ":{"ha":1389,"x_min":86,"x_max":1332,"o":"m 1174 897 l 1174 1146 l 1026 897 l 1026 1165 l 1332 1165 l 1174 897 m 1247 819 l 1247 858 l 1303 858 l 1303 710 l 1247 710 l 1247 750 l 1047 750 l 811 -79 l 803 -79 l 803 750 l 551 750 l 346 93 l 346 750 l 142 750 l 142 710 l 86 710 l 86 858 l 142 858 l 142 819 l 346 819 l 346 1057 l 649 1057 l 574 819 l 803 819 l 803 1136 l 996 1136 l 996 881 l 1085 881 l 1068 819 l 1247 819 z "},"シ":{"ha":1389,"x_min":146,"x_max":1310,"o":"m 250 799 l 579 799 l 146 1057 l 681 1057 l 681 799 l 783 799 l 783 482 l 250 799 m 199 288 l 1310 500 l 1310 492 l 199 -118 l 199 288 z "},"ジ":{"ha":1389,"x_min":147,"x_max":1332,"o":"m 1174 897 l 1174 1146 l 1026 897 l 1026 1165 l 1332 1165 l 1174 897 m 250 799 l 581 799 l 147 1057 l 681 1057 l 681 799 l 785 799 l 785 482 l 250 799 m 200 -118 l 200 288 l 1311 500 l 1310 492 l 200 -118 z "},"ス":{"ha":1389,"x_min":214,"x_max":1249,"o":"m 1249 1058 l 801 560 l 1161 560 l 1161 -108 l 790 547 l 226 -79 l 215 -79 l 778 988 l 269 988 l 269 949 l 214 949 l 214 1097 l 269 1097 l 269 1057 l 1249 1058 z "},"ズ":{"ha":1389,"x_min":215,"x_max":1332,"o":"m 1332 1165 l 1174 897 l 1174 1146 l 1026 897 l 1026 1165 l 1332 1165 m 1081 869 l 801 560 l 1161 560 l 1161 -108 l 790 547 l 226 -79 l 215 -79 l 779 988 l 271 988 l 271 949 l 215 949 l 215 1097 l 271 1097 l 271 1057 l 990 1058 l 990 871 l 1081 869 z "},"セ":{"ha":1389,"x_min":86,"x_max":1310,"o":"m 640 740 l 471 201 l 1251 201 l 372 -108 l 372 740 l 142 740 l 142 701 l 86 701 l 86 850 l 142 850 l 142 810 l 372 810 l 372 1136 l 765 1136 l 663 810 l 1310 810 l 988 375 l 988 740 l 640 740 z "},"ゼ":{"ha":1389,"x_min":86,"x_max":1332,"o":"m 1174 897 l 1174 1146 l 1026 897 l 1026 1165 l 1332 1165 l 1174 897 m 1311 810 l 988 375 l 988 740 l 640 740 l 471 201 l 1253 201 l 372 -108 l 372 740 l 142 740 l 142 701 l 86 701 l 86 850 l 142 850 l 142 810 l 372 810 l 372 1136 l 765 1136 l 663 810 l 1311 810 z "},"ソ":{"ha":1389,"x_min":186,"x_max":1306,"o":"m 926 1136 l 1306 1136 l 460 -79 l 450 -79 l 926 1136 m 519 1010 l 519 483 l 186 1010 l 519 1010 z "},"ゾ":{"ha":1389,"x_min":188,"x_max":1332,"o":"m 928 1136 l 1306 1136 l 460 -79 l 451 -79 l 928 1136 m 521 1010 l 521 483 l 188 1010 l 521 1010 m 1332 700 l 1174 431 l 1174 681 l 1026 431 l 1026 700 l 1332 700 z "},"タ":{"ha":1389,"x_min":138,"x_max":1281,"o":"m 1281 1057 l 601 -79 l 592 -79 l 801 628 l 335 628 l 147 265 l 138 268 l 235 1057 l 1281 1057 m 371 697 l 821 697 l 907 988 l 522 988 l 371 697 z "},"ダ":{"ha":1389,"x_min":138,"x_max":1332,"o":"m 1332 649 l 1174 381 l 1174 629 l 1026 381 l 1026 632 l 601 -79 l 592 -79 l 800 628 l 335 628 l 147 265 l 138 268 l 233 1057 l 1281 1057 l 1036 649 l 1332 649 m 821 697 l 907 988 l 522 988 l 371 697 l 821 697 z "},"チ":{"ha":1389,"x_min":86,"x_max":1303,"o":"m 1247 578 l 1303 578 l 1303 429 l 1247 429 l 1247 469 l 857 469 l 857 -79 l 847 -79 l 663 469 l 142 469 l 142 429 l 86 429 l 86 578 l 142 578 l 142 539 l 639 539 l 546 815 l 124 815 l 124 824 l 1208 1169 l 1208 815 l 857 815 l 857 539 l 1247 539 l 1247 578 z "},"ヂ":{"ha":1389,"x_min":86,"x_max":1338,"o":"m 1247 539 l 1247 578 l 1303 578 l 1303 429 l 1247 429 l 1247 469 l 857 469 l 857 -79 l 847 -79 l 663 469 l 142 469 l 142 429 l 86 429 l 86 578 l 142 578 l 142 539 l 639 539 l 546 815 l 124 815 l 124 824 l 1208 1169 l 1208 815 l 857 815 l 857 539 l 1032 539 l 1032 782 l 1338 782 l 1194 539 l 1247 539 m 1179 763 l 1047 539 l 1179 539 l 1179 763 z "},"ツ":{"ha":1389,"x_min":247,"x_max":1333,"o":"m 981 1136 l 1333 1136 l 639 -79 l 631 -79 l 981 1136 m 769 1011 l 483 483 l 483 921 l 247 483 l 247 1011 l 769 1011 z "},"ッ":{"ha":1389,"x_min":328,"x_max":1253,"o":"m 951 918 l 1253 918 l 647 -140 l 951 918 m 772 811 l 529 363 l 529 735 l 328 363 l 328 811 l 772 811 z "},"ヅ":{"ha":1389,"x_min":246,"x_max":1333,"o":"m 979 1136 l 1333 1136 l 639 -79 l 631 -79 l 979 1136 m 769 1011 l 483 483 l 483 921 l 246 483 l 246 1011 l 769 1011 m 1332 561 l 1174 293 l 1174 542 l 1026 293 l 1026 561 l 1332 561 z "},"テ":{"ha":1389,"x_min":86,"x_max":1303,"o":"m 179 988 l 179 949 l 124 949 l 124 1097 l 179 1097 l 179 1057 l 1211 1057 l 1211 1097 l 1267 1097 l 1267 949 l 1211 949 l 1211 988 l 179 988 m 1247 740 l 1303 740 l 1303 593 l 1247 593 l 1247 632 l 874 632 l 529 -108 l 529 632 l 142 632 l 142 593 l 86 593 l 86 740 l 142 740 l 142 701 l 1247 701 l 1247 740 z "},"デ":{"ha":1389,"x_min":86,"x_max":1332,"o":"m 1174 897 l 1174 1146 l 1026 897 l 1026 1165 l 1332 1165 l 1174 897 m 178 988 l 178 949 l 122 949 l 122 1097 l 178 1097 l 178 1057 l 982 1057 l 982 988 l 178 988 m 1247 701 l 1247 740 l 1303 740 l 1303 593 l 1247 593 l 1247 632 l 874 632 l 529 -108 l 529 632 l 142 632 l 142 593 l 86 593 l 86 740 l 142 740 l 142 701 l 1247 701 z "},"ト":{"ha":1389,"x_min":381,"x_max":1182,"o":"m 1182 419 l 533 419 l 389 -79 l 381 -79 l 381 1136 l 742 1136 l 613 690 l 1182 419 z "},"ド":{"ha":1389,"x_min":381,"x_max":1332,"o":"m 1174 897 l 1174 1146 l 1026 897 l 1026 1165 l 1332 1165 l 1174 897 m 742 1136 l 613 690 l 1182 419 l 533 419 l 389 -79 l 381 -79 l 381 1136 l 742 1136 z "},"ナ":{"ha":1389,"x_min":88,"x_max":1303,"o":"m 1247 858 l 1303 858 l 1303 710 l 1247 710 l 1247 750 l 808 750 l 554 -79 l 544 -79 l 544 750 l 143 750 l 143 710 l 88 710 l 88 858 l 143 858 l 143 819 l 544 819 l 544 1136 l 928 1136 l 829 819 l 1247 819 l 1247 858 z "},"ニ":{"ha":1389,"x_min":88,"x_max":1303,"o":"m 179 906 l 179 867 l 124 867 l 124 1015 l 179 1015 l 179 976 l 1211 976 l 1211 1015 l 1267 1015 l 1267 867 l 1211 867 l 1211 906 l 179 906 m 1247 247 l 1303 247 l 1303 99 l 1247 99 l 1247 138 l 143 138 l 143 99 l 88 99 l 88 247 l 143 247 l 143 207 l 1247 207 l 1247 247 z "},"ヌ":{"ha":1389,"x_min":215,"x_max":1247,"o":"m 796 547 l 1199 -83 l 1190 -90 l 614 343 l 239 -79 l 228 -79 l 493 435 l 231 632 l 594 632 l 779 988 l 271 988 l 271 949 l 215 949 l 215 1097 l 271 1097 l 271 1057 l 1247 1057 l 796 547 z "},"ネ":{"ha":1389,"x_min":154,"x_max":1263,"o":"m 1199 867 l 846 417 l 915 417 l 514 -108 l 514 417 l 814 417 l 814 797 l 249 797 l 249 757 l 193 757 l 193 906 l 249 906 l 249 867 l 633 867 l 633 1136 l 1006 1136 l 704 867 l 1199 867 m 154 -79 l 154 417 l 440 417 l 154 -79 m 976 417 l 1263 417 l 1263 -79 l 976 417 z "},"ノ":{"ha":1389,"x_min":171,"x_max":1240,"o":"m 861 1136 l 1240 1136 l 179 -79 l 171 -79 l 861 1136 z "},"ハ":{"ha":1389,"x_min":160,"x_max":1243,"o":"m 160 -28 l 160 1097 l 500 1097 l 160 -28 m 894 1097 l 1243 1097 l 1243 -28 l 1232 -28 l 894 1097 z "},"バ":{"ha":1389,"x_min":158,"x_max":1332,"o":"m 1174 897 l 1174 1146 l 1028 897 l 1028 1165 l 1332 1165 l 1174 897 m 158 -28 l 158 1097 l 499 1097 l 158 -28 m 1232 -28 l 964 868 l 1242 868 l 1242 -28 l 1232 -28 z "},"パ":{"ha":1389,"x_min":160,"x_max":1304,"o":"m 1007 1204 l 1304 1204 l 1304 869 l 1007 869 l 1007 1204 m 1235 954 l 1235 1121 l 1076 1121 l 1076 954 l 1235 954 m 160 -28 l 160 1097 l 500 1097 l 160 -28 m 964 815 l 1243 815 l 1243 -28 l 1232 -28 l 964 815 z "},"ヒ":{"ha":1389,"x_min":235,"x_max":1297,"o":"m 325 201 l 1297 201 l 1297 194 l 235 -108 l 235 1136 l 628 1136 l 503 751 l 1179 751 l 1179 790 l 1235 790 l 1235 643 l 1179 643 l 1179 682 l 481 682 l 325 201 z "},"ビ":{"ha":1389,"x_min":235,"x_max":1332,"o":"m 1174 897 l 1174 1146 l 1028 897 l 1028 1165 l 1332 1165 l 1174 897 m 325 201 l 1296 201 l 1297 194 l 235 -108 l 235 1136 l 628 1136 l 503 751 l 1178 751 l 1178 790 l 1233 790 l 1233 643 l 1178 643 l 1178 682 l 481 682 l 325 201 z "},"ピ":{"ha":1389,"x_min":235,"x_max":1304,"o":"m 1007 1204 l 1304 1204 l 1304 869 l 1007 869 l 1007 1204 m 325 201 l 1297 201 l 1297 194 l 235 -108 l 235 1136 l 628 1136 l 503 751 l 1179 751 l 1179 790 l 1235 790 l 1235 643 l 1179 643 l 1179 682 l 481 682 l 325 201 m 1235 954 l 1235 1121 l 1076 1121 l 1076 954 l 1235 954 z "},"フ":{"ha":1389,"x_min":164,"x_max":1322,"o":"m 1322 1057 l 888 -90 l 881 -90 l 881 988 l 219 988 l 219 949 l 164 949 l 164 1097 l 219 1097 l 219 1057 l 1322 1057 z "},"ブ":{"ha":1389,"x_min":163,"x_max":1332,"o":"m 1332 1165 l 1174 897 l 1174 1146 l 1028 897 l 1028 1165 l 1332 1165 m 994 868 l 1249 868 l 886 -90 l 879 -90 l 879 988 l 218 988 l 218 949 l 163 949 l 163 1097 l 218 1097 l 218 1057 l 994 1057 l 994 868 z "},"プ":{"ha":1389,"x_min":164,"x_max":1333,"o":"m 1035 1204 l 1333 1204 l 1333 869 l 1035 869 l 1035 1204 m 1264 954 l 1264 1121 l 1104 1121 l 1104 954 l 1264 954 m 986 817 l 1231 817 l 888 -90 l 881 -90 l 881 988 l 219 988 l 219 949 l 164 949 l 164 1097 l 219 1097 l 219 1057 l 986 1057 l 986 817 z "},"ヘ":{"ha":1389,"x_min":110,"x_max":1315,"o":"m 1315 -89 l 469 1018 l 110 275 l 196 1032 l 822 1032 l 1315 -89 z "},"ベ":{"ha":1389,"x_min":110,"x_max":1332,"o":"m 1174 897 l 1174 1146 l 1028 897 l 1028 1165 l 1332 1165 l 1174 897 m 196 1032 l 822 1032 l 1315 -89 l 468 1018 l 110 275 l 196 1032 z "},"ペ":{"ha":1389,"x_min":110,"x_max":1315,"o":"m 1007 1204 l 1304 1204 l 1304 869 l 1007 869 l 1007 1204 m 1235 954 l 1235 1121 l 1076 1121 l 1076 954 l 1235 954 m 1315 -89 l 469 1018 l 110 275 l 196 1032 l 822 1032 l 1315 -89 z "},"ホ":{"ha":1389,"x_min":88,"x_max":1304,"o":"m 1249 886 l 1304 886 l 1304 739 l 1249 739 l 1249 778 l 867 778 l 622 -79 l 614 -79 l 614 778 l 143 778 l 143 739 l 88 739 l 88 886 l 143 886 l 143 847 l 614 847 l 614 1136 l 969 1136 l 886 847 l 1249 847 l 1249 886 m 131 -62 l 131 464 l 444 464 l 131 -62 m 1269 -62 l 956 464 l 1269 464 l 1269 -62 z "},"ボ":{"ha":1389,"x_min":88,"x_max":1332,"o":"m 1174 897 l 1174 1146 l 1028 897 l 1028 1165 l 1332 1165 l 1174 897 m 1247 847 l 1247 886 l 1303 886 l 1303 739 l 1247 739 l 1247 778 l 867 778 l 622 -79 l 614 -79 l 614 778 l 143 778 l 143 739 l 88 739 l 88 886 l 143 886 l 143 847 l 614 847 l 614 1136 l 968 1136 l 886 847 l 1247 847 m 131 -62 l 131 464 l 443 464 l 131 -62 m 1269 -62 l 956 464 l 1269 464 l 1269 -62 z "},"ポ":{"ha":1389,"x_min":88,"x_max":1304,"o":"m 1007 1204 l 1304 1204 l 1304 892 l 1007 892 l 1007 1204 m 1303 847 l 1303 739 l 1249 739 l 1249 778 l 867 778 l 622 -79 l 614 -79 l 614 778 l 143 778 l 143 739 l 88 739 l 88 886 l 143 886 l 143 847 l 614 847 l 614 1136 l 969 1136 l 886 847 l 1303 847 m 1235 969 l 1235 1121 l 1076 1121 l 1076 969 l 1235 969 m 131 -62 l 131 464 l 444 464 l 131 -62 m 1269 -62 l 956 464 l 1269 464 l 1269 -62 z "},"マ":{"ha":1389,"x_min":86,"x_max":1306,"o":"m 1306 1057 l 967 363 l 1111 297 l 1103 -53 l 329 642 l 335 647 l 917 385 l 917 988 l 142 988 l 142 949 l 86 949 l 86 1097 l 142 1097 l 142 1057 l 1306 1057 z "},"ミ":{"ha":1389,"x_min":254,"x_max":1247,"o":"m 254 1128 l 1069 818 l 1069 811 l 254 811 l 254 1128 m 254 736 l 1068 425 l 1069 418 l 254 418 l 254 736 m 254 321 l 1243 11 l 1247 3 l 254 3 l 254 321 z "},"ム":{"ha":1389,"x_min":164,"x_max":1335,"o":"m 1335 111 l 1126 -108 l 1028 211 l 164 -79 l 164 246 l 276 246 l 276 1136 l 626 1136 l 325 246 l 1017 246 l 917 571 l 1335 111 z "},"メ":{"ha":1389,"x_min":158,"x_max":1243,"o":"m 807 574 l 1076 154 l 1071 146 l 710 449 l 301 -79 l 293 -79 l 583 554 l 158 910 l 593 910 l 682 769 l 851 1136 l 1243 1136 l 807 574 z "},"モ":{"ha":1389,"x_min":86,"x_max":1313,"o":"m 1313 207 l 554 -94 l 554 632 l 142 632 l 142 593 l 86 593 l 86 740 l 142 740 l 142 701 l 554 701 l 554 988 l 179 988 l 179 949 l 124 949 l 124 1097 l 179 1097 l 179 1057 l 1211 1057 l 1211 1097 l 1267 1097 l 1267 949 l 1211 949 l 1211 988 l 896 988 l 804 701 l 1247 701 l 1247 740 l 1303 740 l 1303 593 l 1247 593 l 1247 632 l 782 632 l 649 215 l 1313 207 z "},"ヤ":{"ha":1389,"x_min":88,"x_max":1333,"o":"m 1333 828 l 978 275 l 978 757 l 638 757 l 638 -79 l 631 -86 l 397 757 l 143 757 l 143 718 l 88 718 l 88 867 l 143 867 l 143 826 l 379 826 l 293 1136 l 638 1136 l 638 826 l 1333 828 z "},"ャ":{"ha":1389,"x_min":196,"x_max":1256,"o":"m 1256 650 l 958 176 l 958 581 l 669 581 l 669 -122 l 663 -126 l 467 581 l 254 581 l 254 546 l 196 546 l 196 685 l 254 685 l 254 650 l 447 650 l 376 908 l 669 908 l 669 650 l 1256 650 z "},"ユ":{"ha":1389,"x_min":88,"x_max":1303,"o":"m 1247 247 l 1303 247 l 1303 99 l 1247 99 l 1247 138 l 143 138 l 143 99 l 88 99 l 88 247 l 143 247 l 143 207 l 815 207 l 815 907 l 306 907 l 306 867 l 250 867 l 250 1015 l 306 1015 l 306 976 l 1214 975 l 839 207 l 1247 207 l 1247 247 z "},"ュ":{"ha":1389,"x_min":172,"x_max":1218,"o":"m 1158 104 l 1218 104 l 1218 -35 l 1158 -35 l 1158 0 l 231 0 l 231 -35 l 172 -35 l 172 104 l 231 104 l 231 69 l 797 69 l 797 653 l 369 653 l 369 618 l 311 618 l 311 757 l 369 757 l 369 722 l 1139 722 l 821 69 l 1158 69 l 1158 104 z "},"ヨ":{"ha":1389,"x_min":143,"x_max":1317,"o":"m 1317 1057 l 981 -79 l 972 -79 l 972 57 l 199 57 l 199 18 l 143 18 l 143 165 l 199 165 l 199 126 l 972 126 l 972 529 l 199 529 l 199 490 l 143 490 l 143 638 l 199 638 l 199 599 l 972 599 l 972 988 l 199 988 l 199 949 l 143 949 l 143 1097 l 199 1097 l 199 1057 l 1317 1057 z "},"ョ":{"ha":1389,"x_min":231,"x_max":1236,"o":"m 1236 831 l 950 -136 l 942 -135 l 942 -31 l 289 -31 l 289 -65 l 231 -65 l 231 74 l 289 74 l 289 39 l 942 39 l 942 371 l 289 371 l 289 336 l 231 336 l 231 475 l 289 475 l 289 440 l 942 440 l 942 761 l 289 761 l 289 726 l 231 726 l 231 865 l 289 865 l 289 831 l 1236 831 z "},"ラ":{"ha":1389,"x_min":156,"x_max":1332,"o":"m 253 988 l 253 949 l 197 949 l 197 1097 l 253 1097 l 253 1057 l 1246 1057 l 1246 1097 l 1301 1097 l 1301 949 l 1246 949 l 1246 988 l 253 988 m 1332 738 l 900 -108 l 900 668 l 211 668 l 211 628 l 156 628 l 156 776 l 211 776 l 211 738 l 1332 738 z "},"リ":{"ha":1389,"x_min":276,"x_max":1211,"o":"m 856 1136 l 1211 1136 l 864 -79 l 856 -86 l 856 1136 m 276 289 l 276 1136 l 625 1136 l 276 289 z "},"ル":{"ha":1389,"x_min":251,"x_max":1332,"o":"m 746 276 l 1332 276 l 644 -42 l 644 1136 l 990 1136 l 746 276 m 251 -79 l 251 986 l 563 986 l 251 -79 z "},"レ":{"ha":1389,"x_min":374,"x_max":1253,"o":"m 465 206 l 1253 206 l 374 -108 l 374 1136 l 735 1136 l 465 206 z "},"ロ":{"ha":1389,"x_min":190,"x_max":1200,"o":"m 1190 -79 l 1124 138 l 271 138 l 200 -79 l 190 -79 l 190 976 l 1200 976 l 1190 -79 m 294 207 l 1101 207 l 888 906 l 525 906 l 294 207 z "},"ワ":{"ha":1389,"x_min":57,"x_max":1332,"o":"m 1332 1058 l 881 -79 l 869 -79 l 914 988 l 436 988 l 436 332 l 57 1058 l 1332 1058 z "},"ヮ":{"ha":1389,"x_min":153,"x_max":1236,"o":"m 1236 832 l 853 -137 l 844 -136 l 881 772 l 475 772 l 475 215 l 153 832 l 1236 832 z "},"ヷ":{"ha":1389,"x_min":58,"x_max":1332,"o":"m 1174 897 l 1174 1146 l 1028 897 l 1028 1165 l 1332 1165 l 1174 897 m 994 1058 l 994 868 l 1256 868 l 881 -79 l 871 -79 l 914 988 l 436 988 l 436 332 l 58 1058 l 994 1058 z "},"ヰ":{"ha":1389,"x_min":88,"x_max":1303,"o":"m 1303 688 l 1247 688 l 1247 726 l 1090 726 l 1090 349 l 1247 349 l 1247 388 l 1303 388 l 1303 240 l 1247 240 l 1247 279 l 1090 279 l 1090 -79 l 1085 -86 l 985 279 l 143 279 l 143 240 l 88 240 l 88 388 l 143 388 l 143 349 l 611 349 l 322 726 l 143 726 l 143 688 l 88 688 l 88 836 l 143 836 l 143 796 l 843 796 l 750 1136 l 1090 1136 l 1090 796 l 1247 796 l 1247 836 l 1303 836 l 1303 688 m 965 349 l 863 726 l 638 726 l 638 349 l 965 349 z "},"ヸ":{"ha":1389,"x_min":86,"x_max":1376,"o":"m 1219 931 l 1219 1181 l 1072 931 l 1072 1200 l 1376 1200 l 1219 931 m 1247 796 l 1247 836 l 1303 836 l 1303 688 l 1247 688 l 1247 726 l 1090 726 l 1090 349 l 1247 349 l 1247 388 l 1303 388 l 1303 240 l 1247 240 l 1247 279 l 1090 279 l 1090 -79 l 1085 -86 l 983 279 l 142 279 l 142 240 l 86 240 l 86 388 l 142 388 l 142 349 l 610 349 l 322 726 l 142 726 l 142 688 l 86 688 l 86 836 l 142 836 l 142 796 l 843 796 l 750 1136 l 1018 1136 l 1018 899 l 1090 899 l 1090 796 l 1247 796 m 636 349 l 965 349 l 861 726 l 636 726 l 636 349 z "},"ヱ":{"ha":1389,"x_min":88,"x_max":1303,"o":"m 1247 247 l 1303 247 l 1303 99 l 1247 99 l 1247 138 l 143 138 l 143 99 l 88 99 l 88 247 l 143 247 l 143 207 l 574 207 l 574 597 l 815 597 l 815 907 l 306 907 l 306 867 l 250 867 l 250 1015 l 306 1015 l 306 976 l 1214 975 l 861 597 l 972 597 l 594 207 l 1247 207 l 1247 247 z "},"ヹ":{"ha":1389,"x_min":86,"x_max":1332,"o":"m 1247 207 l 1247 247 l 1303 247 l 1303 99 l 1247 99 l 1247 138 l 142 138 l 142 99 l 86 99 l 86 247 l 142 247 l 142 207 l 574 207 l 574 597 l 815 597 l 815 906 l 304 906 l 304 867 l 249 867 l 249 1015 l 304 1015 l 304 976 l 1026 975 l 1026 1200 l 1332 1200 l 1200 975 l 1213 975 l 861 597 l 971 597 l 593 207 l 1247 207 m 1174 1181 l 1053 975 l 1174 975 l 1174 1181 z "},"ヲ":{"ha":1389,"x_min":163,"x_max":1321,"o":"m 1321 1057 l 819 -89 l 813 -79 l 850 535 l 218 535 l 218 496 l 163 496 l 163 643 l 218 643 l 218 604 l 854 604 l 879 988 l 218 988 l 218 949 l 163 949 l 163 1097 l 218 1097 l 218 1057 l 1321 1057 z "},"ヺ":{"ha":1389,"x_min":163,"x_max":1332,"o":"m 1174 897 l 1174 1146 l 1028 897 l 1028 1165 l 1332 1165 l 1174 897 m 997 1057 l 997 874 l 1240 874 l 819 -89 l 813 -79 l 851 535 l 218 535 l 218 496 l 163 496 l 163 643 l 218 643 l 218 604 l 856 604 l 879 988 l 218 988 l 218 949 l 163 949 l 163 1097 l 218 1097 l 218 1057 l 997 1057 z "},"ン":{"ha":1389,"x_min":206,"x_max":1314,"o":"m 840 1032 l 840 714 l 307 1032 l 840 1032 m 206 288 l 1308 499 l 1314 494 l 206 -108 l 206 288 z "},"ヴ":{"ha":1389,"x_min":135,"x_max":1332,"o":"m 1174 897 l 1174 1146 l 1028 897 l 1028 1165 l 1332 1165 l 1174 897 m 1006 1136 l 704 867 l 1332 867 l 917 -107 l 917 797 l 483 797 l 135 332 l 135 865 l 632 867 l 633 1136 l 1006 1136 z "},"０":{"ha":1389,"x_min":279,"x_max":1110,"o":"m 279 1036 l 1110 1036 l 1110 -39 l 279 -39 l 279 1036 m 788 33 l 1103 551 l 794 967 l 594 967 l 285 550 l 600 33 l 788 33 z "},"１":{"ha":1389,"x_min":436,"x_max":871,"o":"m 871 1036 l 718 31 l 828 31 l 828 -39 l 581 -39 l 581 31 l 686 31 l 593 833 l 492 833 l 492 800 l 436 800 l 436 936 l 492 936 l 492 903 l 586 903 l 574 1036 l 871 1036 z "},"２":{"ha":1389,"x_min":268,"x_max":1126,"o":"m 297 31 l 814 31 l 1046 222 l 1046 -39 l 268 -39 l 268 597 l 803 597 l 803 967 l 492 967 l 268 781 l 268 1036 l 1126 1036 l 803 528 l 604 528 l 297 31 z "},"３":{"ha":1389,"x_min":268,"x_max":1188,"o":"m 1188 597 l 871 -39 l 268 -39 l 268 221 l 499 31 l 860 31 l 860 528 l 336 528 l 336 494 l 281 494 l 281 631 l 336 631 l 336 597 l 797 597 l 797 967 l 493 967 l 268 781 l 268 1036 l 1121 1036 l 843 597 l 1188 597 z "},"４":{"ha":1389,"x_min":221,"x_max":1149,"o":"m 1149 179 l 1093 179 l 1093 214 l 1014 214 l 1014 31 l 1121 31 l 1121 -39 l 874 -39 l 874 31 l 975 31 l 926 214 l 221 214 l 519 1110 l 519 283 l 907 283 l 704 1036 l 1014 1036 l 1014 283 l 1093 283 l 1093 318 l 1149 318 l 1149 179 z "},"５":{"ha":1389,"x_min":268,"x_max":1186,"o":"m 1186 597 l 825 -39 l 268 -39 l 268 222 l 496 33 l 806 33 l 806 528 l 275 528 l 275 1036 l 1132 1036 l 1132 781 l 907 967 l 594 967 l 326 597 l 1186 597 z "},"６":{"ha":1389,"x_min":268,"x_max":1178,"o":"m 1178 597 l 807 -39 l 268 -39 l 268 1036 l 1108 1036 l 1108 778 l 883 967 l 622 967 l 501 597 l 1178 597 m 797 31 l 797 528 l 478 528 l 315 31 l 797 31 z "},"７":{"ha":1389,"x_min":268,"x_max":1161,"o":"m 1161 1036 l 869 31 l 958 31 l 958 -39 l 711 -39 l 711 31 l 825 31 l 825 967 l 499 967 l 268 776 l 268 1036 l 1161 1036 z "},"８":{"ha":1389,"x_min":225,"x_max":1165,"o":"m 1071 597 l 1165 597 l 1165 -39 l 225 -39 l 225 597 l 325 597 l 325 1036 l 1071 1036 l 1071 597 m 611 967 l 363 597 l 1033 597 l 785 967 l 611 967 m 288 31 l 1106 31 l 857 528 l 532 528 l 288 31 z "},"９":{"ha":1389,"x_min":268,"x_max":1113,"o":"m 268 1036 l 1113 1036 l 1113 -39 l 268 -39 l 268 222 l 500 31 l 1078 31 l 924 475 l 268 475 l 268 1036 m 304 544 l 900 544 l 753 967 l 540 967 l 304 544 z "},"¹":{"ha":342,"x_min":56,"x_max":286,"o":"m 124 501 l 124 539 l 179 539 l 139 967 l 86 967 l 86 949 l 56 949 l 56 1022 l 86 1022 l 86 1004 l 136 1004 l 129 1075 l 286 1075 l 214 539 l 272 539 l 272 501 l 124 501 z "},"²":{"ha":524,"x_min":56,"x_max":468,"o":"m 56 501 l 56 842 l 263 842 l 263 1038 l 189 1038 l 56 921 l 56 1075 l 468 1075 l 296 804 l 263 804 l 97 539 l 301 539 l 425 660 l 425 501 l 56 501 z "},"³":{"ha":558,"x_min":56,"x_max":503,"o":"m 56 501 l 56 660 l 179 539 l 288 539 l 288 804 l 92 804 l 92 786 l 63 786 l 63 858 l 92 858 l 92 840 l 257 840 l 257 1038 l 175 1038 l 56 939 l 56 1075 l 464 1075 l 315 840 l 503 840 l 335 501 l 56 501 z "},"⁴":{"ha":601,"x_min":56,"x_max":546,"o":"m 376 504 l 376 543 l 433 543 l 406 647 l 56 647 l 244 1151 l 244 686 l 396 686 l 281 1078 l 471 1078 l 471 686 l 515 686 l 515 706 l 546 706 l 546 626 l 515 626 l 515 647 l 471 647 l 471 543 l 531 543 l 531 504 l 376 504 z "},"⁄":{"ha":585,"x_min":-56,"x_max":626,"o":"m 447 1004 l 626 1004 l -31 -54 l -56 -54 l 447 1004 z "},"½":{"ha":1169,"x_min":56,"x_max":1114,"o":"m 239 -32 l 675 1149 l 806 1149 l 249 -37 l 239 -32 m 124 501 l 124 539 l 179 539 l 139 967 l 86 967 l 86 949 l 56 949 l 56 1022 l 86 1022 l 86 1004 l 136 1004 l 129 1075 l 286 1075 l 214 539 l 272 539 l 272 501 l 124 501 m 701 78 l 701 418 l 908 418 l 908 614 l 833 614 l 701 497 l 701 651 l 1114 651 l 942 381 l 908 381 l 743 115 l 947 115 l 1071 236 l 1071 78 l 701 78 z "},"¼":{"ha":1124,"x_min":56,"x_max":1068,"o":"m 231 -32 l 667 1149 l 797 1149 l 240 -37 l 231 -32 m 122 501 l 122 539 l 179 539 l 139 967 l 85 967 l 85 949 l 56 949 l 56 1022 l 85 1022 l 85 1004 l 135 1004 l 128 1075 l 285 1075 l 213 539 l 271 539 l 271 501 l 122 501 m 899 57 l 899 96 l 956 96 l 928 200 l 578 200 l 767 704 l 767 239 l 918 239 l 803 631 l 993 631 l 993 239 l 1038 239 l 1038 258 l 1068 258 l 1068 179 l 1038 179 l 1038 200 l 993 200 l 993 96 l 1053 96 l 1053 57 l 899 57 z "},"¾":{"ha":1193,"x_min":56,"x_max":1138,"o":"m 300 -32 l 736 1149 l 867 1149 l 310 -37 l 300 -32 m 56 501 l 56 660 l 179 539 l 289 539 l 289 804 l 93 804 l 93 786 l 63 786 l 63 858 l 93 858 l 93 840 l 257 840 l 257 1038 l 176 1038 l 56 939 l 56 1075 l 465 1075 l 317 840 l 504 840 l 335 501 l 56 501 m 968 57 l 968 96 l 1025 96 l 997 200 l 647 200 l 836 704 l 836 239 l 988 239 l 872 631 l 1063 631 l 1063 239 l 1107 239 l 1107 258 l 1138 258 l 1138 179 l 1107 179 l 1107 200 l 1063 200 l 1063 96 l 1122 96 l 1122 57 l 968 57 z "},"〇":{"ha":1389,"x_min":122,"x_max":1267,"o":"m 1267 528 l 1125 24 l 694 -24 l 264 24 l 122 528 l 267 1035 l 694 1079 l 1122 1035 l 1267 528 m 381 135 l 694 -17 l 1008 135 l 1260 528 l 1008 921 l 694 1072 l 381 921 l 129 528 l 381 135 z "},".":{"ha":274,"x_min":56,"x_max":218,"o":"m 56 161 l 218 161 l 218 0 l 56 0 l 56 161 z "},",":{"ha":272,"x_min":56,"x_max":217,"o":"m 56 157 l 217 157 l 217 -6 l 115 -118 l 115 -6 l 56 -6 l 56 157 z "},":":{"ha":274,"x_min":56,"x_max":218,"o":"m 56 747 l 218 747 l 218 585 l 56 585 l 56 747 m 56 24 l 56 186 l 218 186 l 218 24 l 56 24 z "},";":{"ha":274,"x_min":56,"x_max":218,"o":"m 56 742 l 218 742 l 218 579 l 56 579 l 56 742 m 56 18 l 56 181 l 217 181 l 217 18 l 115 -94 l 115 18 l 56 18 z "},"…":{"ha":1197,"x_min":56,"x_max":1142,"o":"m 518 454 l 518 617 l 679 617 l 679 454 l 518 454 m 981 454 l 981 617 l 1142 617 l 1142 454 l 981 454 m 56 617 l 217 617 l 217 454 l 56 454 l 56 617 z "},"!":{"ha":396,"x_min":56,"x_max":340,"o":"m 340 1006 l 197 263 l 56 1006 l 340 1006 m 117 0 l 117 161 l 279 161 l 279 0 l 117 0 z "},"¡":{"ha":396,"x_min":56,"x_max":340,"o":"m 279 878 l 279 717 l 117 717 l 117 878 l 279 878 m 56 -128 l 197 615 l 340 -128 l 56 -128 z "},"?":{"ha":888,"x_min":56,"x_max":832,"o":"m 56 1006 l 832 1006 l 567 556 l 482 556 l 482 263 l 281 625 l 567 625 l 567 939 l 253 939 l 253 681 l 56 1006 m 364 0 l 364 163 l 526 163 l 526 0 l 364 0 z "},"¿":{"ha":888,"x_min":56,"x_max":832,"o":"m 522 878 l 522 717 l 360 717 l 360 878 l 522 878 m 832 -128 l 56 -128 l 319 322 l 404 322 l 404 615 l 607 253 l 319 253 l 319 -61 l 635 -61 l 635 199 l 832 -128 z "},"·":{"ha":288,"x_min":56,"x_max":232,"o":"m 232 522 l 56 522 l 56 699 l 232 699 l 232 522 z "},"•":{"ha":433,"x_min":56,"x_max":378,"o":"m 378 314 l 56 314 l 56 636 l 378 636 l 378 314 z "},"*":{"ha":628,"x_min":56,"x_max":572,"o":"m 261 1054 l 375 1054 l 314 842 l 310 842 l 261 1054 m 56 831 l 90 939 l 272 815 l 272 811 l 56 831 m 538 926 l 572 818 l 351 811 l 350 815 l 538 926 m 204 565 l 111 632 l 286 768 l 289 765 l 204 565 m 501 625 l 410 558 l 335 765 l 338 768 l 501 625 z "},"‖":{"ha":1111,"x_min":415,"x_max":697,"o":"m 471 -128 l 415 -128 l 415 1261 l 471 1261 l 471 -128 m 697 -128 l 642 -128 l 642 1261 l 697 1261 l 697 -128 z "},"〃":{"ha":1389,"x_min":431,"x_max":1019,"o":"m 740 851 l 431 185 l 482 851 l 740 851 m 1019 851 l 710 185 l 761 851 l 1019 851 z "},"#":{"ha":801,"x_min":56,"x_max":746,"o":"m 746 703 l 621 703 l 565 328 l 708 328 l 708 244 l 553 244 l 513 -28 l 501 -28 l 501 244 l 249 244 l 208 -28 l 197 -28 l 197 244 l 56 244 l 56 328 l 197 328 l 197 703 l 83 703 l 83 786 l 197 786 l 197 1006 l 361 1006 l 329 786 l 501 786 l 501 1006 l 665 1006 l 633 786 l 746 786 l 746 703 m 501 328 l 501 703 l 317 703 l 261 328 l 501 328 z "},"※":{"ha":1250,"x_min":111,"x_max":1139,"o":"m 719 1042 l 719 851 l 531 851 l 531 1042 l 719 1042 m 1117 993 l 692 564 l 1117 47 l 1082 38 l 628 499 l 172 38 l 138 47 l 563 564 l 138 993 l 338 993 l 628 642 l 917 993 l 1117 993 m 300 622 l 300 432 l 111 432 l 111 622 l 300 622 m 950 622 l 1139 622 l 1139 432 l 950 432 l 950 622 m 531 203 l 719 203 l 719 13 l 531 13 l 531 203 z "},"/":{"ha":793,"x_min":56,"x_max":738,"o":"m 558 1004 l 738 1004 l 81 -54 l 56 -54 l 558 1004 z "},"\\":{"ha":793,"x_min":56,"x_max":738,"o":"m 235 1004 l 738 -54 l 713 -54 l 56 1004 l 235 1004 z "},"‣":{"ha":567,"x_min":132,"x_max":454,"o":"m 132 276 l 132 672 l 454 475 l 132 276 z "},"‥":{"ha":1389,"x_min":265,"x_max":1124,"o":"m 961 454 l 961 617 l 1124 617 l 1124 454 l 961 454 m 265 617 l 428 617 l 428 454 l 265 454 l 265 617 z "},"＆":{"ha":1389,"x_min":150,"x_max":1243,"o":"m 1243 600 l 1189 600 l 1010 78 l 1213 78 l 963 -60 l 963 8 l 386 8 l 150 303 l 397 674 l 397 1085 l 785 1085 l 785 1117 l 840 1117 l 840 829 l 694 1015 l 613 1015 l 536 669 l 728 669 l 728 703 l 783 703 l 783 567 l 728 567 l 728 600 l 519 600 l 407 78 l 963 78 l 963 600 l 900 600 l 900 669 l 1243 669 l 1243 600 z "},"＊":{"ha":1389,"x_min":190,"x_max":1192,"o":"m 617 1061 l 772 1061 l 699 589 l 694 589 l 617 1061 m 194 732 l 272 867 l 646 567 l 643 563 l 194 732 m 1114 860 l 1192 725 l 744 553 l 742 557 l 1114 860 m 268 201 l 190 336 l 638 508 l 640 504 l 268 201 m 1188 329 l 1110 194 l 738 496 l 739 500 l 1188 329 m 765 0 l 610 0 l 683 474 l 689 474 l 765 0 z "},"＠":{"ha":1389,"x_min":79,"x_max":1313,"o":"m 1176 288 l 561 288 l 393 550 l 561 794 l 878 794 l 1074 347 l 1074 1003 l 324 1003 l 324 67 l 989 67 l 989 189 l 1131 189 l 1021 -3 l 299 -3 l 79 526 l 299 1072 l 1096 1072 l 1313 535 l 1176 288 m 561 725 l 561 354 l 878 354 l 878 725 l 561 725 z "},"＼":{"ha":1389,"x_min":79,"x_max":1306,"o":"m 279 1138 l 1306 -82 l 1271 -92 l 79 1138 l 279 1138 z "},"：":{"ha":1389,"x_min":549,"x_max":840,"o":"m 549 957 l 840 957 l 840 665 l 549 665 l 549 957 m 840 393 l 840 101 l 549 101 l 549 393 l 840 393 z "},"，":{"ha":1389,"x_min":88,"x_max":379,"o":"m 88 -11 l 88 238 l 379 238 l 379 0 l 196 -165 l 196 -11 l 88 -11 z "},"︐":{"ha":1389,"x_min":979,"x_max":1271,"o":"m 979 888 l 979 1136 l 1271 1136 l 1271 899 l 1088 733 l 1088 888 l 979 888 z "},"！":{"ha":1389,"x_min":500,"x_max":886,"o":"m 886 1078 l 693 335 l 500 1078 l 886 1078 m 846 278 l 846 -14 l 554 -14 l 554 278 l 846 278 z "},"＃":{"ha":1389,"x_min":232,"x_max":1158,"o":"m 1158 740 l 971 740 l 915 367 l 1121 367 l 1121 283 l 903 283 l 863 -19 l 851 -19 l 851 283 l 482 283 l 442 -19 l 431 -19 l 431 283 l 232 283 l 232 367 l 431 367 l 431 740 l 260 740 l 260 824 l 431 824 l 431 1089 l 593 1089 l 561 824 l 851 824 l 851 1089 l 1015 1089 l 983 824 l 1158 824 l 1158 740 m 851 367 l 851 740 l 549 740 l 494 367 l 851 367 z "},"％":{"ha":1389,"x_min":101,"x_max":1297,"o":"m 631 1053 l 922 1053 l 631 -65 l 631 1053 m 343 953 q 464 920 410 953 q 551 833 518 888 q 583 713 583 779 q 551 591 583 646 q 464 503 518 536 q 343 471 410 471 q 222 503 276 471 q 134 591 167 536 q 101 713 101 646 q 134 833 101 779 q 222 920 167 888 q 343 953 276 953 m 343 575 q 440 616 400 575 q 479 713 479 657 q 440 809 479 769 q 343 849 400 849 q 247 809 288 849 q 206 713 206 769 q 247 616 206 657 q 343 575 288 575 m 1056 649 q 1177 616 1122 649 q 1265 528 1232 583 q 1297 407 1297 474 q 1265 286 1297 340 q 1177 199 1232 232 q 1056 167 1122 167 q 934 199 989 167 q 847 286 879 232 q 815 407 815 340 q 847 528 815 474 q 934 616 879 583 q 1056 649 989 649 m 1056 271 q 1153 311 1113 271 q 1193 407 1193 351 q 1153 504 1193 464 q 1056 544 1113 544 q 960 504 1000 544 q 919 407 919 464 q 960 311 919 351 q 1056 271 1000 271 z "},"．":{"ha":1389,"x_min":89,"x_max":382,"o":"m 382 238 l 382 -54 l 89 -54 l 89 238 l 382 238 z "},"？":{"ha":1389,"x_min":222,"x_max":1165,"o":"m 222 1078 l 1165 1078 l 863 601 l 704 601 l 704 335 l 501 672 l 850 672 l 850 1011 l 475 1011 l 475 719 l 222 1078 m 838 278 l 838 -14 l 546 -14 l 546 278 l 838 278 z "},"；":{"ha":1389,"x_min":549,"x_max":842,"o":"m 549 957 l 842 957 l 842 665 l 549 665 l 549 957 m 549 126 l 549 389 l 840 389 l 840 126 l 658 -78 l 658 126 l 549 126 z "},"／":{"ha":1389,"x_min":79,"x_max":1306,"o":"m 1106 1138 l 1306 1138 l 114 -92 l 79 -82 l 1106 1138 z "},"＿":{"ha":1389,"x_min":0,"x_max":1375,"o":"m 0 -15 l 1375 -15 l 1375 -99 l 0 -99 l 0 -15 z "},"(":{"ha":419,"x_min":56,"x_max":364,"o":"m 56 565 l 364 1090 l 364 -19 l 56 565 z "},")":{"ha":421,"x_min":56,"x_max":365,"o":"m 365 565 l 56 -19 l 56 1090 l 365 565 z "},"{":{"ha":493,"x_min":56,"x_max":438,"o":"m 329 239 l 256 93 l 438 -44 l 186 -44 l 186 453 l 56 538 l 186 614 l 186 1067 l 438 1067 l 261 933 l 329 813 l 210 575 l 210 451 l 329 239 z "},"}":{"ha":493,"x_min":56,"x_max":438,"o":"m 438 538 l 307 453 l 307 -44 l 56 -44 l 238 93 l 164 239 l 283 451 l 283 575 l 164 813 l 232 933 l 56 1067 l 307 1067 l 307 614 l 438 538 z "},"[":{"ha":447,"x_min":56,"x_max":392,"o":"m 392 1004 l 233 1004 l 79 24 l 392 24 l 392 -46 l 56 -46 l 56 1074 l 392 1074 l 392 1004 z "},"]":{"ha":447,"x_min":56,"x_max":392,"o":"m 56 1004 l 56 1074 l 392 1074 l 392 -46 l 56 -46 l 56 24 l 367 24 l 213 1004 l 56 1004 z "},"〈":{"ha":1389,"x_min":790,"x_max":1233,"o":"m 976 528 l 1233 -106 l 1231 -112 l 790 528 l 1231 1165 l 1233 1158 l 976 528 z "},"〉":{"ha":1389,"x_min":157,"x_max":599,"o":"m 414 528 l 157 1158 l 160 1165 l 599 528 l 160 -112 l 157 -106 l 414 528 z "},"【":{"ha":1389,"x_min":965,"x_max":1300,"o":"m 1300 1094 l 974 535 l 1300 -25 l 965 -25 l 965 1094 l 1300 1094 z "},"】":{"ha":1389,"x_min":92,"x_max":425,"o":"m 92 1094 l 425 1094 l 425 -25 l 92 -25 l 418 535 l 92 1094 z "},"｛":{"ha":1389,"x_min":786,"x_max":1215,"o":"m 1107 190 l 1039 25 l 1215 -108 l 964 -108 l 964 451 l 786 531 l 964 607 l 964 1165 l 1215 1165 l 1039 1032 l 1107 868 l 988 567 l 988 490 l 1107 190 z "},"｝":{"ha":1389,"x_min":174,"x_max":603,"o":"m 282 190 l 403 490 l 403 567 l 282 868 l 350 1032 l 174 1165 l 425 1165 l 425 607 l 603 531 l 425 451 l 425 -108 l 174 -108 l 350 25 l 282 190 z "},"「":{"ha":1389,"x_min":965,"x_max":1301,"o":"m 1301 1043 l 1143 1043 l 990 518 l 965 518 l 965 1113 l 1301 1113 l 1301 1043 z "},"」":{"ha":1389,"x_min":90,"x_max":426,"o":"m 401 26 l 246 540 l 426 540 l 426 -43 l 90 -43 l 90 26 l 401 26 z "},"《":{"ha":1389,"x_min":765,"x_max":1281,"o":"m 1149 528 l 1281 -106 l 1276 -112 l 1010 528 l 1278 1165 l 1281 1158 l 1149 528 m 918 528 l 1218 -106 l 1215 -112 l 765 528 l 1215 1165 l 1218 1158 l 918 528 z "},"》":{"ha":1389,"x_min":110,"x_max":625,"o":"m 242 528 l 110 1158 l 113 1165 l 381 528 l 114 -112 l 110 -106 l 242 528 m 472 528 l 172 1158 l 175 1165 l 625 528 l 175 -112 l 172 -106 l 472 528 z "},"〔":{"ha":1389,"x_min":971,"x_max":1307,"o":"m 1303 1165 l 1307 1161 l 1081 974 l 1081 85 l 1307 -104 l 1303 -108 l 971 4 l 971 1054 l 1303 1165 z "},"〕":{"ha":1389,"x_min":83,"x_max":419,"o":"m 86 1165 l 419 1054 l 419 4 l 86 -108 l 83 -104 l 310 85 l 310 974 l 83 1161 l 86 1165 z "},"『":{"ha":1389,"x_min":931,"x_max":1303,"o":"m 988 482 l 931 482 l 931 1113 l 1303 1113 l 1303 985 l 1140 985 l 988 482 m 967 1076 l 967 542 l 1114 1022 l 1267 1022 l 1267 1076 l 967 1076 z "},"』":{"ha":1389,"x_min":86,"x_max":458,"o":"m 458 -43 l 86 -43 l 86 64 l 351 64 l 238 578 l 458 578 l 458 -43 m 122 -6 l 422 -6 l 422 540 l 283 540 l 397 26 l 122 26 l 122 -6 z "},"︿":{"ha":1389,"x_min":54,"x_max":1332,"o":"m 694 247 l 61 -10 l 54 -7 l 694 432 l 1332 -7 l 1325 -10 l 694 247 z "},"﹀":{"ha":1389,"x_min":54,"x_max":1332,"o":"m 694 810 l 1325 1067 l 1332 1064 l 694 624 l 54 1064 l 61 1067 l 694 810 z "},"︻":{"ha":1389,"x_min":142,"x_max":1261,"o":"m 1261 -76 l 701 250 l 142 -76 l 142 258 l 1261 258 l 1261 -76 z "},"︼":{"ha":1389,"x_min":142,"x_max":1261,"o":"m 1261 1132 l 1261 797 l 142 797 l 142 1132 l 701 806 l 1261 1132 z "},"︷":{"ha":1389,"x_min":58,"x_max":1332,"o":"m 356 117 l 192 183 l 58 7 l 58 258 l 617 258 l 696 436 l 772 258 l 1332 258 l 1332 7 l 1199 183 l 1033 117 l 733 236 l 657 236 l 356 117 z "},"︸":{"ha":1389,"x_min":58,"x_max":1332,"o":"m 357 940 l 657 821 l 733 821 l 1033 940 l 1199 872 l 1332 1049 l 1332 797 l 772 797 l 696 619 l 618 797 l 58 797 l 58 1049 l 192 872 l 357 940 z "},"［":{"ha":1389,"x_min":967,"x_max":1303,"o":"m 1303 -93 l 1303 -108 l 967 -108 l 967 1165 l 1303 1165 l 1303 1150 l 1040 1096 l 1040 -39 l 1303 -93 z "},"﹇":{"ha":1389,"x_min":58,"x_max":1332,"o":"m 1317 -79 l 1263 183 l 128 183 l 74 -79 l 58 -79 l 58 257 l 1332 257 l 1332 -79 l 1317 -79 z "},"］":{"ha":1389,"x_min":86,"x_max":422,"o":"m 86 -93 l 349 -39 l 349 1096 l 86 1150 l 86 1165 l 422 1165 l 422 -108 l 86 -108 l 86 -93 z "},"﹈":{"ha":1389,"x_min":58,"x_max":1332,"o":"m 1317 1136 l 1332 1136 l 1332 800 l 58 800 l 58 1136 l 74 1136 l 128 874 l 1263 874 l 1317 1136 z "},"﹁":{"ha":1389,"x_min":685,"x_max":1279,"o":"m 1210 -78 l 1210 81 l 685 233 l 685 258 l 1279 258 l 1279 -78 l 1210 -78 z "},"﹂":{"ha":1389,"x_min":124,"x_max":707,"o":"m 193 822 l 707 978 l 707 797 l 124 797 l 124 1133 l 193 1133 l 193 822 z "},"︽":{"ha":1389,"x_min":54,"x_max":1332,"o":"m 694 306 l 61 6 l 54 8 l 694 458 l 1332 8 l 1325 6 l 694 306 m 694 75 l 61 -57 l 54 -54 l 694 214 l 1332 -54 l 1325 -57 l 694 75 z "},"︾":{"ha":1389,"x_min":54,"x_max":1332,"o":"m 694 982 l 1325 1114 l 1332 1110 l 694 843 l 54 1110 l 61 1114 l 694 982 m 694 751 l 1325 1051 l 1332 1049 l 694 597 l 54 1049 l 61 1051 l 694 751 z "},"（":{"ha":1389,"x_min":925,"x_max":1233,"o":"m 925 526 l 1233 1165 l 1233 -108 l 925 526 z "},"）":{"ha":1389,"x_min":157,"x_max":465,"o":"m 465 526 l 157 -108 l 157 1165 l 465 526 z "},"︹":{"ha":1389,"x_min":58,"x_max":1332,"o":"m 1332 -81 l 1328 -83 l 1140 143 l 250 143 l 63 -83 l 58 -81 l 171 253 l 1219 253 l 1332 -81 z "},"︺":{"ha":1389,"x_min":58,"x_max":1332,"o":"m 1332 1136 l 1219 803 l 171 803 l 58 1136 l 63 1139 l 250 914 l 1140 914 l 1328 1139 l 1332 1136 z "},"︵":{"ha":1389,"x_min":58,"x_max":1332,"o":"m 693 299 l 1332 -10 l 58 -10 l 693 299 z "},"︶":{"ha":1389,"x_min":58,"x_max":1332,"o":"m 693 758 l 58 1067 l 1332 1067 l 693 758 z "},"﹃":{"ha":1389,"x_min":649,"x_max":1279,"o":"m 649 236 l 649 293 l 1279 293 l 1279 -81 l 1151 -81 l 1151 82 l 649 236 m 1243 256 l 707 256 l 1189 110 l 1189 -43 l 1243 -43 l 1243 256 z "},"﹄":{"ha":1389,"x_min":124,"x_max":744,"o":"m 124 764 l 124 1138 l 231 1138 l 231 871 l 744 986 l 744 764 l 124 764 m 161 1100 l 161 801 l 707 801 l 707 940 l 193 825 l 193 1100 l 161 1100 z "},"-":{"ha":831,"x_min":201,"x_max":628,"o":"m 201 539 l 628 539 l 628 411 l 201 411 l 201 539 z "},"­":{"ha":833,"x_min":0,"x_max":0,"o":""},"–":{"ha":626,"x_min":0,"x_max":626,"o":"m 0 479 l 626 479 l 626 396 l 0 396 l 0 479 z "},"—":{"ha":1389,"x_min":0,"x_max":1390,"o":"m 0 479 l 1390 479 l 1390 396 l 0 396 l 0 479 z "},"―":{"ha":1389,"x_min":0,"x_max":1390,"o":"m 0 564 l 1390 564 l 1390 494 l 0 494 l 0 564 z "},"‐":{"ha":772,"x_min":285,"x_max":711,"o":"m 285 603 l 711 603 l 711 533 l 285 533 l 285 603 z "},"_":{"ha":1269,"x_min":178,"x_max":1090,"o":"m 178 -15 l 1090 -15 l 1090 -99 l 178 -99 l 178 -15 z "},"〜":{"ha":1389,"x_min":160,"x_max":1232,"o":"m 978 500 l 1232 604 l 978 333 l 414 511 l 160 406 l 414 676 l 414 678 l 978 500 z "},"︱":{"ha":1389,"x_min":651,"x_max":738,"o":"m 738 1222 l 738 -167 l 653 -167 l 651 1222 l 738 1222 z "},"︲":{"ha":1389,"x_min":653,"x_max":736,"o":"m 736 1126 l 736 500 l 653 500 l 653 1126 l 736 1126 z "},"－":{"ha":1389,"x_min":201,"x_max":1189,"o":"m 201 586 l 1189 586 l 1189 447 l 201 447 l 201 586 z "},"‚":{"ha":272,"x_min":56,"x_max":217,"o":"m 56 163 l 217 163 l 217 0 l 129 -112 l 129 0 l 56 0 l 56 163 z "},"„":{"ha":476,"x_min":56,"x_max":421,"o":"m 56 163 l 217 163 l 217 0 l 129 -112 l 129 0 l 56 0 l 56 163 m 260 163 l 421 163 l 421 0 l 333 -112 l 333 0 l 260 0 l 260 163 z "},"“":{"ha":476,"x_min":56,"x_max":421,"o":"m 421 878 l 260 878 l 260 1040 l 347 1153 l 347 1040 l 421 1040 l 421 878 m 217 878 l 56 878 l 56 1040 l 143 1153 l 143 1040 l 217 1040 l 217 878 z "},"”":{"ha":476,"x_min":56,"x_max":421,"o":"m 56 1143 l 217 1143 l 217 981 l 129 868 l 129 981 l 56 981 l 56 1143 m 260 1143 l 421 1143 l 421 981 l 333 868 l 333 981 l 260 981 l 260 1143 z "},"‘":{"ha":272,"x_min":56,"x_max":217,"o":"m 217 878 l 56 878 l 56 1040 l 142 1153 l 142 1040 l 217 1040 l 217 878 z "},"’":{"ha":272,"x_min":56,"x_max":217,"o":"m 56 1143 l 217 1143 l 217 981 l 129 868 l 129 981 l 56 981 l 56 1143 z "},"«":{"ha":811,"x_min":56,"x_max":756,"o":"m 56 529 l 471 815 l 264 529 l 471 260 l 56 529 m 403 529 l 756 815 l 611 529 l 756 260 l 403 529 z "},"»":{"ha":811,"x_min":56,"x_max":756,"o":"m 756 531 l 340 260 l 547 531 l 340 815 l 756 531 m 408 531 l 56 260 l 200 531 l 56 815 l 408 531 z "},"‹":{"ha":526,"x_min":56,"x_max":471,"o":"m 56 529 l 471 815 l 264 529 l 471 260 l 56 529 z "},"›":{"ha":526,"x_min":56,"x_max":471,"o":"m 471 531 l 56 260 l 263 531 l 56 815 l 471 531 z "},"〟":{"ha":1389,"x_min":64,"x_max":468,"o":"m 161 257 l 468 60 l 335 -31 l 161 257 m 64 186 l 324 -40 l 190 -132 l 64 186 z "},"〝":{"ha":1389,"x_min":922,"x_max":1326,"o":"m 1326 871 l 1067 1097 l 1200 1189 l 1326 871 m 1229 800 l 922 997 l 1056 1088 l 1229 800 z "},"\"":{"ha":440,"x_min":56,"x_max":385,"o":"m 56 711 l 56 1000 l 211 1000 l 60 711 l 56 711 m 229 1000 l 385 1000 l 235 711 l 229 711 l 229 1000 z "},"'":{"ha":267,"x_min":56,"x_max":211,"o":"m 56 1000 l 211 1000 l 60 711 l 56 711 l 56 1000 z "},"⟨":{"ha":535,"x_min":42,"x_max":493,"o":"m 172 540 l 493 -111 l 481 -128 l 42 540 l 481 1204 l 493 1190 l 172 540 z "},"⟩":{"ha":535,"x_min":42,"x_max":493,"o":"m 361 540 l 42 1190 l 53 1204 l 493 540 l 53 -128 l 42 -111 l 361 540 z "},"・":{"ha":1389,"x_min":549,"x_max":842,"o":"m 842 675 l 842 383 l 549 383 l 549 675 l 842 675 z "},"、":{"ha":1389,"x_min":169,"x_max":486,"o":"m 486 64 l 299 -69 l 169 399 l 486 64 z "},"︑":{"ha":1389,"x_min":989,"x_max":1306,"o":"m 1306 829 l 1118 694 l 989 1163 l 1306 829 z "},"。":{"ha":1389,"x_min":126,"x_max":451,"o":"m 126 318 l 451 318 l 451 -17 l 126 -17 l 126 318 m 382 67 l 382 233 l 197 233 l 197 67 l 382 67 z "},"︒":{"ha":1389,"x_min":956,"x_max":1281,"o":"m 956 1167 l 1281 1167 l 1281 832 l 956 832 l 956 1167 m 1211 917 l 1211 1083 l 1025 1083 l 1025 917 l 1211 917 z "},"　":{"ha":1389,"x_min":0,"x_max":0,"o":""}," ":{"ha":486,"x_min":0,"x_max":0,"o":""}," ":{"ha":486,"x_min":0,"x_max":0,"o":""},"\r":{"ha":833,"x_min":0,"x_max":0,"o":""},"₵":{"ha":1026,"x_min":56,"x_max":971,"o":"m 683 1006 l 618 100 l 971 100 l 971 31 l 614 31 l 593 -256 l 574 -256 l 574 31 l 363 31 l 56 568 l 363 1075 l 574 1075 l 574 1319 l 706 1319 l 688 1075 l 915 1075 l 915 1111 l 971 1111 l 971 758 l 776 1006 l 683 1006 m 381 100 l 574 100 l 574 1006 l 381 1006 l 381 100 z "},"¢":{"ha":838,"x_min":56,"x_max":782,"o":"m 636 764 l 544 764 l 544 228 l 778 228 l 778 158 l 544 158 l 544 21 l 489 21 l 489 158 l 313 158 l 56 508 l 321 833 l 489 833 l 489 993 l 544 993 l 544 833 l 782 833 l 782 657 l 636 764 m 489 228 l 489 764 l 326 764 l 326 228 l 489 228 z "},"₡":{"ha":1025,"x_min":56,"x_max":969,"o":"m 969 757 l 811 958 l 499 100 l 969 100 l 969 31 l 474 31 l 369 -256 l 350 -256 l 433 31 l 361 31 l 346 57 l 250 -256 l 231 -256 l 317 108 l 56 567 l 361 1074 l 544 1074 l 603 1319 l 733 1319 l 658 1075 l 739 1075 l 811 1319 l 943 1319 l 854 1075 l 914 1075 l 914 1111 l 969 1111 l 969 757 m 379 1004 l 379 374 l 528 1004 l 379 1004 m 379 100 l 454 100 l 719 1004 l 636 1004 l 379 165 l 379 100 z "},"¤":{"ha":797,"x_min":56,"x_max":742,"o":"m 579 419 l 742 200 l 524 364 q 399 325 468 325 q 275 364 329 325 l 56 200 l 219 419 q 181 543 181 474 q 219 668 181 613 l 56 886 l 275 724 q 333 752 301 742 q 399 763 364 763 q 465 752 433 763 q 524 724 497 742 l 742 886 l 579 668 q 608 610 597 642 q 618 543 618 578 q 608 477 618 508 q 579 419 597 446 m 250 543 q 294 438 250 482 q 399 394 338 394 q 505 438 461 394 q 549 543 549 482 q 505 649 549 606 q 399 693 461 693 q 294 649 338 693 q 250 543 250 606 z "},"$":{"ha":954,"x_min":56,"x_max":899,"o":"m 899 304 l 656 0 l 499 0 l 499 -53 l 443 -53 l 443 0 l 150 0 l 150 254 l 296 69 l 443 69 l 443 496 l 282 496 l 56 750 l 290 1013 l 443 1013 l 443 1067 l 499 1067 l 499 1013 l 753 1013 l 753 757 l 607 943 l 499 943 l 499 565 l 656 565 l 899 304 m 296 565 l 443 565 l 443 943 l 296 943 l 296 565 m 499 69 l 646 69 l 646 496 l 499 496 l 499 69 z "},"₫":{"ha":981,"x_min":56,"x_max":925,"o":"m 738 865 l 925 865 l 883 831 l 738 815 l 738 69 l 836 69 l 836 0 l 311 0 l 56 350 l 321 675 l 524 675 l 490 790 l 361 776 l 315 865 l 469 865 l 410 1075 l 836 1074 l 836 1004 l 738 1004 l 738 865 m 326 69 l 697 69 l 543 606 l 326 606 l 326 69 m 157 -171 l 111 -81 l 879 -81 l 838 -117 l 157 -171 z "}}}
